<svg width="196" height="201" viewBox="0 0 196 201" fill="none" xmlns="http://www.w3.org/2000/svg">
<circle cx="98" cy="102.047" r="95" fill="white" stroke="#7A3D89" stroke-width="6"/>
<circle cx="97.5" cy="100.547" r="63.9" fill="white" stroke="#7A3D89" stroke-width="3.2" stroke-dasharray="12 12"/>
<rect x="17" y="88.0469" width="12" height="12" fill="#F2E7ED"/>
<rect x="7" y="97.0469" width="12" height="12" fill="#F2E7ED"/>
<rect x="17" y="109.047" width="12" height="12" fill="#F2E7ED"/>
<rect x="7" y="114.047" width="12" height="12" fill="#F2E7ED"/>
<rect x="17" y="120.047" width="12" height="12" fill="#F2E7ED"/>
<rect x="23" y="130.047" width="12" height="12" fill="#F2E7ED"/>
<rect x="17" y="136.047" width="12" height="12" fill="#F2E7ED"/>
<rect x="33" y="139.047" width="12" height="12" fill="#F2E7ED"/>
<rect x="25" y="148.047" width="12" height="12" fill="#F2E7ED"/>
<rect x="35" y="159.047" width="12" height="12" fill="#F2E7ED"/>
<rect x="37" y="151.047" width="12" height="12" fill="#F2E7ED"/>
<rect x="48" y="157.047" width="12" height="12" fill="#F2E7ED"/>
<rect x="57" y="167.047" width="12" height="12" fill="#F2E7ED"/>
<rect x="47" y="165.047" width="12" height="12" fill="#F2E7ED"/>
<rect x="71" y="165.047" width="12" height="12" fill="#F2E7ED"/>
<rect x="65" y="177.047" width="12" height="12" fill="#F2E7ED"/>
<rect x="75" y="177.047" width="12" height="12" fill="#F2E7ED"/>
<rect x="87" y="179.047" width="12" height="12" fill="#F2E7ED"/>
<rect x="87" y="169.047" width="12" height="12" fill="#F2E7ED"/>
<rect x="99" y="167.047" width="12" height="12" fill="#F2E7ED"/>
<rect x="99" y="177.047" width="12" height="12" fill="#F2E7ED"/>
<rect x="114" y="166.047" width="12" height="12" fill="#F2E7ED"/>
<rect x="112" y="175.047" width="12" height="12" fill="#F2E7ED"/>
<rect x="123" y="161.047" width="12" height="12" fill="#F2E7ED"/>
<rect x="132" y="155.047" width="12" height="12" fill="#F2E7ED"/>
<rect x="141" y="151.047" width="12" height="12" fill="#F2E7ED"/>
<rect x="150" y="139.047" width="12" height="12" fill="#F2E7ED"/>
<rect x="157" y="131.047" width="12" height="12" fill="#F2E7ED"/>
<rect x="161" y="121.047" width="12" height="12" fill="#F2E7ED"/>
<rect x="169" y="124.047" width="12" height="12" fill="#F2E7ED"/>
<rect x="166" y="137.047" width="12" height="12" fill="#F2E7ED"/>
<rect x="157" y="145.047" width="11" height="12" fill="#F2E7ED"/>
<rect x="150" y="159.047" width="11" height="12" fill="#F2E7ED"/>
<rect x="138" y="165.047" width="11" height="12" fill="#F2E7ED"/>
<rect x="124" y="171.047" width="11" height="12" fill="#F2E7ED"/>
<rect x="11" y="76.0469" width="12" height="12" fill="#F2E7ED"/>
<rect x="17" y="64.0469" width="12" height="12" fill="#F2E7ED"/>
<rect x="24" y="52.0469" width="12" height="12" fill="#F2E7ED"/>
<rect x="30" y="43.0469" width="12" height="12" fill="#F2E7ED"/>
<rect x="33" y="49.0469" width="12" height="12" fill="#F2E7ED"/>
<rect x="35" y="37.0469" width="12" height="12" fill="#F2E7ED"/>
<rect x="44" y="29.0469" width="12" height="12" fill="#F2E7ED"/>
<rect x="49" y="29.0469" width="12" height="12" fill="#F2E7ED"/>
<rect x="52" y="25.0469" width="12" height="12" fill="#F2E7ED"/>
<rect x="59" y="19.0469" width="12" height="12" fill="#F2E7ED"/>
<rect x="65" y="23.0469" width="12" height="12" fill="#F2E7ED"/>
<rect x="71" y="18.0469" width="12" height="12" fill="#F2E7ED"/>
<rect x="75" y="19.0469" width="12" height="12" fill="#F2E7ED"/>
<rect x="81" y="13.0469" width="12" height="12" fill="#F2E7ED"/>
<rect x="85" y="17.0469" width="12" height="12" fill="#F2E7ED"/>
<rect x="98" y="13.0469" width="12" height="12" fill="#F2E7ED"/>
<rect x="109" y="19.0469" width="12" height="12" fill="#F2E7ED"/>
<rect x="120" y="18.0469" width="12" height="12" fill="#F2E7ED"/>
<rect x="129" y="29.0469" width="12" height="12" fill="#F2E7ED"/>
<rect x="137" y="29.0469" width="12" height="12" fill="#F2E7ED"/>
<rect x="143" y="43.0469" width="12" height="12" fill="#F2E7ED"/>
<rect x="155" y="41.0469" width="12" height="12" fill="#F2E7ED"/>
<rect x="156" y="53.0469" width="12" height="12" fill="#F2E7ED"/>
<rect x="167" y="57.0469" width="12" height="12" fill="#F2E7ED"/>
<rect x="162" y="70.0469" width="12" height="12" fill="#F2E7ED"/>
<rect x="173" y="76.0469" width="12" height="12" fill="#F2E7ED"/>
<rect x="167" y="84.0469" width="12" height="12" fill="#F2E7ED"/>
<rect x="175" y="92.0469" width="12" height="12" fill="#F2E7ED"/>
<rect x="168" y="102.047" width="12" height="12" fill="#F2E7ED"/>
<rect x="173" y="109.047" width="12" height="12" fill="#F2E7ED"/>
<path d="M16.5 97.0469L19.3064 105.684H28.3882L21.0409 111.022L23.8473 119.66L16.5 114.321L9.15268 119.66L11.9591 111.022L4.61179 105.684H13.6936L16.5 97.0469Z" fill="#793A8B"/>
<path d="M29.5 131.047L32.3064 139.684H41.3882L34.0409 145.022L36.8473 153.66L29.5 148.321L22.1527 153.66L24.9591 145.022L17.6118 139.684H26.6936L29.5 131.047Z" fill="#793A8B"/>
<path d="M174.5 97.0469L177.306 105.684H186.388L179.041 111.022L181.847 119.66L174.5 114.321L167.153 119.66L169.959 111.022L162.612 105.684H171.694L174.5 97.0469Z" fill="#793A8B"/>
<path d="M163.5 131.047L166.306 139.684H175.388L168.041 145.022L170.847 153.66L163.5 148.321L156.153 153.66L158.959 145.022L151.612 139.684H160.694L163.5 131.047Z" fill="#793A8B"/>
<path d="M138.5 156.047L141.306 164.684H150.388L143.041 170.022L145.847 178.66L138.5 173.321L131.153 178.66L133.959 170.022L126.612 164.684H135.694L138.5 156.047Z" fill="#793A8B"/>
<path d="M54.5 156.047L57.3064 164.684H66.3882L59.0409 170.022L61.8473 178.66L54.5 173.321L47.1527 178.66L49.9591 170.022L42.6118 164.684H51.6936L54.5 156.047Z" fill="#793A8B"/>
<path d="M100.5 168.047L103.306 176.684H112.388L105.041 182.022L107.847 190.66L100.5 185.321L93.1527 190.66L95.9591 182.022L88.6118 176.684H97.6936L100.5 168.047Z" fill="#793A8B"/>
<path d="M29.929 55.4541C29.4668 55.3814 29.0312 55.4351 28.6222 55.615C28.2131 55.795 27.8493 56.0922 27.5307 56.5066C27.1781 56.9654 26.9688 57.452 26.903 57.9665C26.8372 58.4809 26.9199 58.9859 27.1511 59.4815C27.3823 59.9771 27.7495 60.4182 28.2527 60.805C28.7707 61.2032 29.2989 61.4503 29.8373 61.5462C30.3813 61.6348 30.8963 61.5774 31.3822 61.3741C31.8681 61.1708 32.2959 60.8286 32.6656 60.3476C33.1207 59.7556 33.3378 59.1515 33.3171 58.5352C33.289 57.9132 33.0393 57.3269 32.5679 56.7762L30.5202 59.4402L29.3325 58.5272L32.5576 54.3315L33.9118 55.3724C34.3724 55.8912 34.7012 56.4972 34.8984 57.1902C35.0955 57.8833 35.1271 58.6079 34.993 59.3643C34.8573 60.1075 34.5335 60.8121 34.0216 61.4781C33.4471 62.2255 32.7601 62.7746 31.9607 63.1255C31.1596 63.4632 30.3257 63.5756 29.459 63.4627C28.5979 63.3424 27.7863 62.9893 27.0241 62.4034C26.2619 61.8175 25.712 61.1241 25.3742 60.3229C25.0348 59.5087 24.9289 58.674 25.0566 57.8186C25.1826 56.9502 25.5301 56.146 26.0989 55.406C26.77 54.5328 27.5676 53.9392 28.4917 53.6254C29.4083 53.3058 30.3453 53.3197 31.3026 53.667L29.929 55.4541Z" fill="#793A8B"/>
<path d="M39.3778 50.2967L41.5584 47.9275L42.7019 48.9799L39.1939 52.7912L32.0038 46.1735L33.3311 44.7313L39.3778 50.2967Z" fill="#793A8B"/>
<path d="M70.8981 32.9648L67.6855 29.9935L66.8054 30.2747L67.9642 33.9021L66.0971 34.4985L63.1234 25.19L66.6175 24.0738C67.3376 23.8437 67.9922 23.7767 68.5814 23.8726C69.1677 23.9597 69.6549 24.1812 70.043 24.5374C70.4371 24.8817 70.7194 25.3207 70.8898 25.8541C71.0858 26.4676 71.0855 27.08 70.8889 27.6915C70.6895 28.2941 70.2685 28.8009 69.6257 29.212L73.0585 32.2746L70.8981 32.9648ZM66.358 28.8744L67.9183 28.376C68.4251 28.2141 68.7646 27.9733 68.9369 27.6538C69.1063 27.3253 69.1214 26.9432 68.9822 26.5076C68.8459 26.0808 68.6164 25.7916 68.2936 25.64C67.9679 25.4795 67.5517 25.4802 67.045 25.6421L65.4847 26.1405L66.358 28.8744Z" fill="#793A8B"/>
<path d="M49.0141 44.564C48.2395 45.0504 47.414 45.3152 46.5375 45.3586C45.661 45.402 44.8321 45.2226 44.0507 44.8206C43.2643 44.4106 42.6155 43.7986 42.1044 42.9844C41.5981 42.1782 41.3337 41.3358 41.3111 40.4573C41.2836 39.5709 41.4797 38.7425 41.8996 37.9719C42.3195 37.2013 42.9167 36.5729 43.6914 36.0865C44.4739 35.5952 45.2994 35.3303 46.168 35.2919C47.0445 35.2485 47.8719 35.4343 48.6504 35.8492C49.4318 36.2513 50.0756 36.8554 50.5819 37.6616C51.093 38.4758 51.3624 39.3261 51.39 40.2125C51.4205 41.086 51.2258 41.908 50.8059 42.6786C50.386 43.4492 49.7888 44.0776 49.0141 44.564ZM48.0836 43.0819C48.5816 42.7692 48.9508 42.3831 49.1912 41.9236C49.4267 41.4561 49.5197 40.946 49.47 40.393C49.4204 39.8401 49.2219 39.287 48.8745 38.7336C48.5271 38.1803 48.1176 37.7652 47.6461 37.4881C47.1697 37.2032 46.6723 37.0692 46.1539 37.0861C45.6355 37.103 45.1273 37.2678 44.6294 37.5804C44.1314 37.8931 43.7582 38.2817 43.5099 38.7462C43.2694 39.2057 43.174 39.712 43.2236 40.2649C43.2683 40.81 43.4643 41.3591 43.8117 41.9124C44.1591 42.4657 44.5711 42.8849 45.0475 43.1698C45.524 43.4547 46.0239 43.5927 46.5472 43.5837C47.0735 43.5618 47.5856 43.3946 48.0836 43.0819Z" fill="#793A8B"/>
<path d="M81.8712 20.0569L80.2063 27.037L81.0294 30.338L79.1276 30.8121L78.3046 27.5112L73.5441 22.1331L75.6904 21.598L78.8084 25.4233L79.752 20.5853L81.8712 20.0569Z" fill="#793A8B"/>
<path d="M60.6833 36.7439L57.0491 34.3063L56.2231 34.7204L57.93 38.1245L56.178 39.003L51.7978 30.2677L55.0766 28.6236C55.7524 28.2847 56.3888 28.117 56.9856 28.1205C57.5783 28.1156 58.094 28.259 58.5326 28.5507C58.9754 28.8299 59.3223 29.2197 59.5733 29.7203C59.8619 30.296 59.9566 30.9011 59.8571 31.5357C59.7535 32.1619 59.416 32.7279 58.8448 33.2336L62.7107 35.7273L60.6833 36.7439ZM55.5642 33.4064L57.0285 32.6722C57.504 32.4337 57.8021 32.1433 57.9228 31.8009C58.0392 31.4501 57.995 31.0703 57.79 30.6615C57.5892 30.261 57.3176 30.0109 56.9752 29.9111C56.6286 29.803 56.2176 29.8682 55.742 30.1066L54.2778 30.8409L55.5642 33.4064Z" fill="#793A8B"/>
<path d="M104.21 18.8714L104.161 21.3209L107.45 21.3871L107.419 22.9408L104.13 22.8746L104.078 25.4641L107.787 25.5387L107.755 27.1344L102.086 27.0203L102.283 17.2363L107.952 17.3503L107.92 18.946L104.21 18.8714Z" fill="#793A8B"/>
<path d="M170.249 84.9826C169.929 84.381 169.743 83.7823 169.69 83.1866C169.642 82.5991 169.737 82.0622 169.976 81.5761C170.214 81.09 170.595 80.7026 171.118 80.4139L172.103 82.2681C171.762 82.4812 171.548 82.7538 171.46 83.0859C171.377 83.4262 171.44 83.7941 171.651 84.1896C171.865 84.5934 172.129 84.8603 172.441 84.9903C172.761 85.1159 173.078 85.0954 173.391 84.9289C173.647 84.7931 173.815 84.603 173.897 84.3588C173.979 84.1146 174.001 83.8489 173.965 83.5617C173.941 83.2784 173.877 82.9001 173.773 82.4267C173.64 81.7787 173.558 81.2359 173.526 80.7982C173.507 80.3645 173.59 79.9344 173.775 79.5081C173.974 79.0856 174.345 78.7298 174.889 78.4406C175.399 78.1689 175.912 78.06 176.427 78.1139C176.942 78.1678 177.421 78.3729 177.864 78.7293C178.316 79.0812 178.699 79.5538 179.015 80.1472C179.488 81.0372 179.653 81.8744 179.51 82.6588C179.379 83.447 178.942 84.0759 178.198 84.5455L177.186 82.6418C177.474 82.4676 177.649 82.2106 177.711 81.8708C177.786 81.5349 177.721 81.1733 177.515 80.786C177.335 80.4481 177.104 80.2222 176.822 80.1082C176.544 80.0024 176.24 80.0372 175.91 80.2124C175.679 80.3351 175.525 80.5123 175.447 80.7439C175.382 80.9793 175.359 81.2346 175.379 81.5096C175.411 81.7886 175.475 82.1669 175.57 82.6447C175.703 83.2927 175.782 83.8377 175.805 84.2797C175.829 84.7217 175.744 85.1581 175.55 85.5888C175.356 86.0195 174.991 86.3773 174.456 86.6621C173.994 86.9075 173.502 87.0159 172.98 86.9872C172.457 86.9585 171.953 86.777 171.469 86.4426C170.993 86.1038 170.586 85.6171 170.249 84.9826Z" fill="#793A8B"/>
<path d="M163.323 66.7732C162.903 66.2362 162.616 65.679 162.461 65.1014C162.311 64.5311 162.312 63.986 162.462 63.4658C162.612 62.9457 162.92 62.4981 163.385 62.123L164.678 63.778C164.379 64.0471 164.215 64.3528 164.186 64.695C164.163 65.0446 164.29 65.3959 164.565 65.7489C164.847 66.1093 165.153 66.3264 165.483 66.4002C165.82 66.4683 166.129 66.3931 166.408 66.1748C166.636 65.9967 166.769 65.7803 166.807 65.5256C166.845 65.271 166.821 65.0054 166.735 64.7289C166.663 64.454 166.534 64.0925 166.35 63.6443C166.106 63.0292 165.931 62.5089 165.824 62.0835C165.729 61.6597 165.737 61.2217 165.845 60.7696C165.967 60.3191 166.271 59.9043 166.756 59.5251C167.212 59.1689 167.699 58.9726 168.215 58.9363C168.732 58.9 169.239 59.0189 169.737 59.2929C170.243 59.5611 170.702 59.96 171.116 60.4896C171.737 61.2839 172.044 62.0798 172.04 62.8771C172.048 63.676 171.726 64.3713 171.075 64.9629L169.748 63.2638C170.001 63.0423 170.129 62.7588 170.132 62.4133C170.147 62.0695 170.02 61.7247 169.75 61.379C169.515 61.0774 169.248 60.8951 168.95 60.8318C168.657 60.776 168.364 60.8629 168.07 61.0928C167.864 61.2537 167.743 61.4549 167.706 61.6964C167.683 61.9396 167.705 62.195 167.772 62.4625C167.852 62.7316 167.98 63.0932 168.157 63.5471C168.401 64.1622 168.573 64.6853 168.673 65.1165C168.773 65.5477 168.764 65.9922 168.648 66.45C168.532 66.9079 168.235 67.3235 167.757 67.697C167.345 68.0188 166.879 68.2109 166.36 68.2734C165.84 68.3359 165.313 68.2445 164.778 67.9992C164.25 67.7482 163.765 67.3395 163.323 66.7732Z" fill="#793A8B"/>
<path d="M131.356 21.8641L130.841 23.3599L128.379 22.5121L125.713 30.2559L123.86 29.6178L126.526 21.874L124.064 21.0262L124.579 19.5304L131.356 21.8641Z" fill="#793A8B"/>
<path d="M136.37 26.4417L135.195 28.5919L138.083 30.1689L137.338 31.5328L134.451 29.9557L133.209 32.2287L136.465 34.0071L135.7 35.4078L130.724 32.6898L135.415 24.1015L140.391 26.8194L139.626 28.2201L136.37 26.4417Z" fill="#793A8B"/>
<path d="M142.438 40.525L143.136 36.205L142.415 35.6274L140.034 38.5997L138.504 37.3745L144.613 29.747L147.476 32.0399C148.066 32.5125 148.484 33.0207 148.73 33.5645C148.982 34.101 149.067 34.6295 148.985 35.1498C148.916 35.6687 148.707 36.1467 148.357 36.5838C147.954 37.0864 147.444 37.4251 146.826 37.5997C146.214 37.767 145.558 37.6967 144.86 37.3887L144.209 41.9427L142.438 40.525ZM143.334 34.48L144.612 35.5039C145.027 35.8365 145.416 35.9861 145.777 35.9527C146.145 35.9121 146.471 35.7133 146.757 35.3563C147.037 35.0067 147.151 34.6554 147.099 34.3027C147.052 33.9426 146.821 33.5963 146.406 33.2637L145.128 32.2398L143.334 34.48Z" fill="#793A8B"/>
<path d="M156.443 55.1698L158.045 51.0979L157.464 50.3798L154.505 52.7762L153.271 51.253L160.865 45.1033L163.174 47.9539C163.649 48.5414 163.95 49.1271 164.074 49.7108C164.206 50.2887 164.176 50.8231 163.985 51.314C163.807 51.8063 163.501 52.2287 163.066 52.5811C162.565 52.9864 161.994 53.2084 161.353 53.2472C160.719 53.2801 160.094 53.0717 159.478 52.6221L157.87 56.9324L156.443 55.1698ZM158.606 49.4547L159.637 50.7276C159.972 51.1411 160.319 51.3701 160.68 51.4146C161.047 51.4532 161.409 51.3286 161.764 51.0408C162.112 50.7589 162.299 50.44 162.323 50.0842C162.354 49.7225 162.202 49.3349 161.868 48.9215L160.837 47.6485L158.606 49.4547Z" fill="#793A8B"/>
<path d="M155.704 44.62C155.338 44.9931 154.905 45.2547 154.404 45.4048C153.911 45.5613 153.376 45.5533 152.8 45.3807C152.231 45.2146 151.66 44.8505 151.087 44.2884L149.918 43.1414L147.29 45.82L145.891 44.4475L152.734 37.4712L155.302 39.9907C155.842 40.5201 156.21 41.0643 156.407 41.6234C156.604 42.1825 156.636 42.7168 156.502 43.2263C156.375 43.7423 156.109 44.2069 155.704 44.62ZM152.135 43.1002C152.521 43.4793 152.893 43.6737 153.249 43.6834C153.612 43.6865 153.951 43.5282 154.264 43.2083C154.931 42.5287 154.885 41.8163 154.125 41.0713L153.016 39.9831L151.025 42.012L152.135 43.1002Z" fill="#793A8B"/>
<path d="M167.711 55.4117L159.61 60.8762L158.514 59.2512L166.615 53.7868L167.711 55.4117Z" fill="#793A8B"/>
<path d="M118.834 28.5983L116.895 28.3134L113.478 21.0336L112.504 27.6683L110.565 27.3835L111.987 17.7014L113.926 17.9863L117.34 25.2799L118.317 18.6313L120.256 18.9162L118.834 28.5983Z" fill="#793A8B"/>
<path d="M173.752 71.0015L171.63 72.2265L173.275 75.0757L171.929 75.8527L170.284 73.0035L168.041 74.2985L169.896 77.5114L168.514 78.3094L165.679 73.3991L174.154 68.5061L176.989 73.4164L175.607 74.2144L173.752 71.0015Z" fill="#793A8B"/>
<path d="M52.6263 72.1829C52.9409 72.2415 53.1996 72.3989 53.4023 72.6549C53.6049 72.9109 53.7063 73.2042 53.7063 73.5349C53.7063 73.8335 53.6316 74.0975 53.4823 74.3269C53.3383 74.5509 53.1276 74.7269 52.8503 74.8549C52.5729 74.9829 52.2449 75.0469 51.8663 75.0469H49.4583V69.4629H51.7623C52.1409 69.4629 52.4663 69.5242 52.7383 69.6469C53.0156 69.7695 53.2236 69.9402 53.3623 70.1589C53.5063 70.3775 53.5783 70.6255 53.5783 70.9029C53.5783 71.2282 53.4903 71.5002 53.3142 71.7189C53.1436 71.9375 52.9143 72.0922 52.6263 72.1829ZM50.5783 71.7669H51.6023C51.8689 71.7669 52.0743 71.7082 52.2183 71.5909C52.3623 71.4682 52.4343 71.2949 52.4343 71.0709C52.4343 70.8469 52.3623 70.6735 52.2183 70.5509C52.0743 70.4282 51.8689 70.3669 51.6023 70.3669H50.5783V71.7669ZM51.7063 74.1349C51.9783 74.1349 52.1889 74.0709 52.3383 73.9429C52.4929 73.8149 52.5703 73.6335 52.5703 73.3989C52.5703 73.1589 52.4903 72.9722 52.3303 72.8389C52.1703 72.7002 51.9543 72.6309 51.6823 72.6309H50.5783V74.1349H51.7063ZM55.7189 69.1269V75.0469H54.5989V69.1269H55.7189ZM58.7934 75.1189C58.3668 75.1189 57.9828 75.0255 57.6414 74.8389C57.3001 74.6469 57.0308 74.3775 56.8334 74.0309C56.6414 73.6842 56.5454 73.2842 56.5454 72.8309C56.5454 72.3775 56.6441 71.9775 56.8414 71.6309C57.0441 71.2842 57.3188 71.0175 57.6654 70.8309C58.0121 70.6389 58.3988 70.5429 58.8254 70.5429C59.2521 70.5429 59.6388 70.6389 59.9854 70.8309C60.3321 71.0175 60.6041 71.2842 60.8014 71.6309C61.0041 71.9775 61.1054 72.3775 61.1054 72.8309C61.1054 73.2842 61.0014 73.6842 60.7934 74.0309C60.5908 74.3775 60.3134 74.6469 59.9614 74.8389C59.6148 75.0255 59.2254 75.1189 58.7934 75.1189ZM58.7934 74.1429C58.9961 74.1429 59.1854 74.0949 59.3614 73.9989C59.5428 73.8975 59.6868 73.7482 59.7934 73.5509C59.9001 73.3535 59.9534 73.1135 59.9534 72.8309C59.9534 72.4095 59.8414 72.0869 59.6174 71.8629C59.3988 71.6335 59.1294 71.5189 58.8094 71.5189C58.4894 71.5189 58.2201 71.6335 58.0014 71.8629C57.7881 72.0869 57.6814 72.4095 57.6814 72.8309C57.6814 73.2522 57.7854 73.5775 57.9934 73.8069C58.2068 74.0309 58.4734 74.1429 58.7934 74.1429ZM61.639 72.8309C61.639 72.3722 61.7323 71.9722 61.919 71.6309C62.1057 71.2842 62.3643 71.0175 62.695 70.8309C63.0257 70.6389 63.4043 70.5429 63.831 70.5429C64.3803 70.5429 64.8337 70.6815 65.191 70.9589C65.5537 71.2309 65.7963 71.6149 65.919 72.1109H64.711C64.647 71.9189 64.5377 71.7695 64.383 71.6629C64.2337 71.5509 64.047 71.4949 63.823 71.4949C63.503 71.4949 63.2497 71.6122 63.063 71.8469C62.8763 72.0762 62.783 72.4042 62.783 72.8309C62.783 73.2522 62.8763 73.5802 63.063 73.8149C63.2497 74.0442 63.503 74.1589 63.823 74.1589C64.2763 74.1589 64.5723 73.9562 64.711 73.5509H65.919C65.7963 74.0309 65.5537 74.4122 65.191 74.6949C64.8283 74.9775 64.375 75.1189 63.831 75.1189C63.4043 75.1189 63.0257 75.0255 62.695 74.8389C62.3643 74.6469 62.1057 74.3802 61.919 74.0389C61.7323 73.6922 61.639 73.2895 61.639 72.8309ZM69.3635 75.0469L67.8595 73.1589V75.0469H66.7395V69.1269H67.8595V72.4949L69.3475 70.6149H70.8035L68.8515 72.8389L70.8195 75.0469H69.3635ZM78.0936 75.0469H76.9736L74.4376 71.2149V75.0469H73.3176V69.4549H74.4376L76.9736 73.2949V69.4549H78.0936V75.0469ZM83.3844 70.6149V75.0469H82.2564V74.4869C82.1124 74.6789 81.9231 74.8309 81.6884 74.9429C81.4591 75.0495 81.2084 75.1029 80.9364 75.1029C80.5898 75.1029 80.2831 75.0309 80.0164 74.8869C79.7498 74.7375 79.5391 74.5215 79.3844 74.2389C79.2351 73.9509 79.1604 73.6095 79.1604 73.2149V70.6149H80.2804V73.0549C80.2804 73.4069 80.3684 73.6789 80.5444 73.8709C80.7204 74.0575 80.9604 74.1509 81.2644 74.1509C81.5738 74.1509 81.8164 74.0575 81.9924 73.8709C82.1684 73.6789 82.2564 73.4069 82.2564 73.0549V70.6149H83.3844ZM89.9935 70.5509C90.5375 70.5509 90.9748 70.7189 91.3055 71.0549C91.6415 71.3855 91.8095 71.8495 91.8095 72.4469V75.0469H90.6895V72.5989C90.6895 72.2522 90.6015 71.9882 90.4255 71.8069C90.2495 71.6202 90.0095 71.5269 89.7055 71.5269C89.4015 71.5269 89.1588 71.6202 88.9775 71.8069C88.8015 71.9882 88.7135 72.2522 88.7135 72.5989V75.0469H87.5935V72.5989C87.5935 72.2522 87.5055 71.9882 87.3295 71.8069C87.1535 71.6202 86.9135 71.5269 86.6095 71.5269C86.3002 71.5269 86.0548 71.6202 85.8735 71.8069C85.6975 71.9882 85.6095 72.2522 85.6095 72.5989V75.0469H84.4895V70.6149H85.6095V71.1509C85.7535 70.9642 85.9375 70.8175 86.1615 70.7109C86.3908 70.6042 86.6415 70.5509 86.9135 70.5509C87.2602 70.5509 87.5695 70.6255 87.8415 70.7749C88.1135 70.9189 88.3242 71.1269 88.4735 71.3989C88.6175 71.1429 88.8255 70.9375 89.0975 70.7829C89.3748 70.6282 89.6735 70.5509 89.9935 70.5509ZM93.9923 71.2629C94.1363 71.0495 94.3336 70.8762 94.5843 70.7429C94.8403 70.6095 95.131 70.5429 95.4563 70.5429C95.835 70.5429 96.1763 70.6362 96.4803 70.8229C96.7896 71.0095 97.0323 71.2762 97.2083 71.6229C97.3896 71.9642 97.4803 72.3615 97.4803 72.8149C97.4803 73.2682 97.3896 73.6709 97.2083 74.0229C97.0323 74.3695 96.7896 74.6389 96.4803 74.8309C96.1763 75.0229 95.835 75.1189 95.4563 75.1189C95.1256 75.1189 94.835 75.0549 94.5843 74.9269C94.339 74.7935 94.1416 74.6229 93.9923 74.4149V75.0469H92.8723V69.1269H93.9923V71.2629ZM96.3363 72.8149C96.3363 72.5482 96.2803 72.3189 96.1683 72.1269C96.0616 71.9295 95.9176 71.7802 95.7363 71.6789C95.5603 71.5775 95.3683 71.5269 95.1603 71.5269C94.9576 71.5269 94.7656 71.5802 94.5843 71.6869C94.4083 71.7882 94.2643 71.9375 94.1523 72.1349C94.0456 72.3322 93.9923 72.5642 93.9923 72.8309C93.9923 73.0975 94.0456 73.3295 94.1523 73.5269C94.2643 73.7242 94.4083 73.8762 94.5843 73.9829C94.7656 74.0842 94.9576 74.1349 95.1603 74.1349C95.3683 74.1349 95.5603 74.0815 95.7363 73.9749C95.9176 73.8682 96.0616 73.7162 96.1683 73.5189C96.2803 73.3215 96.3363 73.0869 96.3363 72.8149ZM102.414 72.7349C102.414 72.8949 102.404 73.0389 102.382 73.1669H99.1422C99.1689 73.4869 99.2809 73.7375 99.4782 73.9189C99.6755 74.1002 99.9182 74.1909 100.206 74.1909C100.622 74.1909 100.918 74.0122 101.094 73.6549H102.302C102.174 74.0815 101.929 74.4335 101.566 74.7109C101.204 74.9829 100.758 75.1189 100.23 75.1189C99.8035 75.1189 99.4195 75.0255 99.0782 74.8389C98.7422 74.6469 98.4782 74.3775 98.2862 74.0309C98.0995 73.6842 98.0062 73.2842 98.0062 72.8309C98.0062 72.3722 98.0995 71.9695 98.2862 71.6229C98.4729 71.2762 98.7342 71.0095 99.0702 70.8229C99.4062 70.6362 99.7929 70.5429 100.23 70.5429C100.652 70.5429 101.028 70.6335 101.358 70.8149C101.694 70.9962 101.953 71.2549 102.134 71.5909C102.321 71.9215 102.414 72.3029 102.414 72.7349ZM101.254 72.4149C101.249 72.1269 101.145 71.8975 100.942 71.7269C100.74 71.5509 100.492 71.4629 100.198 71.4629C99.9209 71.4629 99.6862 71.5482 99.4942 71.7189C99.3075 71.8842 99.1929 72.1162 99.1502 72.4149H101.254ZM104.352 71.3029C104.496 71.0682 104.682 70.8842 104.912 70.7509C105.146 70.6175 105.413 70.5509 105.712 70.5509V71.7269H105.416C105.064 71.7269 104.797 71.8095 104.616 71.9749C104.44 72.1402 104.352 72.4282 104.352 72.8389V75.0469H103.232V70.6149H104.352V71.3029ZM108.108 70.2469V69.2149H110.036V75.0469H108.884V70.2469H108.108ZM111.495 73.7829C112.007 73.3562 112.415 73.0015 112.719 72.7189C113.023 72.4309 113.276 72.1322 113.479 71.8229C113.681 71.5135 113.783 71.2095 113.783 70.9109C113.783 70.6389 113.719 70.4255 113.591 70.2709C113.463 70.1162 113.265 70.0389 112.999 70.0389C112.732 70.0389 112.527 70.1295 112.383 70.3109C112.239 70.4869 112.164 70.7295 112.159 71.0389H111.071C111.092 70.3989 111.281 69.9135 111.639 69.5829C112.001 69.2522 112.46 69.0869 113.015 69.0869C113.623 69.0869 114.089 69.2495 114.415 69.5749C114.74 69.8949 114.903 70.3189 114.903 70.8469C114.903 71.2629 114.791 71.6602 114.567 72.0389C114.343 72.4175 114.087 72.7482 113.799 73.0309C113.511 73.3082 113.135 73.6442 112.671 74.0389H115.031V74.9669H111.079V74.1349L111.495 73.7829ZM116.713 71.9589C116.179 71.6815 115.913 71.2522 115.913 70.6709C115.913 70.3829 115.985 70.1215 116.129 69.8869C116.278 69.6469 116.499 69.4575 116.793 69.3189C117.091 69.1749 117.454 69.1029 117.881 69.1029C118.307 69.1029 118.667 69.1749 118.961 69.3189C119.259 69.4575 119.481 69.6469 119.625 69.8869C119.774 70.1215 119.849 70.3829 119.849 70.6709C119.849 70.9642 119.777 71.2229 119.633 71.4469C119.489 71.6655 119.297 71.8362 119.057 71.9589C119.35 72.0869 119.579 72.2735 119.745 72.5189C119.91 72.7642 119.993 73.0549 119.993 73.3909C119.993 73.7535 119.899 74.0709 119.713 74.3429C119.531 74.6095 119.281 74.8149 118.961 74.9589C118.641 75.1029 118.281 75.1749 117.881 75.1749C117.481 75.1749 117.121 75.1029 116.801 74.9589C116.486 74.8149 116.235 74.6095 116.049 74.3429C115.867 74.0709 115.777 73.7535 115.777 73.3909C115.777 73.0549 115.859 72.7642 116.025 72.5189C116.19 72.2682 116.419 72.0815 116.713 71.9589ZM118.761 70.8309C118.761 70.5695 118.681 70.3669 118.521 70.2229C118.366 70.0789 118.153 70.0069 117.881 70.0069C117.614 70.0069 117.401 70.0789 117.241 70.2229C117.086 70.3669 117.009 70.5722 117.009 70.8389C117.009 71.0789 117.089 71.2709 117.249 71.4149C117.414 71.5589 117.625 71.6309 117.881 71.6309C118.137 71.6309 118.347 71.5589 118.513 71.4149C118.678 71.2655 118.761 71.0709 118.761 70.8309ZM117.881 72.4469C117.577 72.4469 117.329 72.5242 117.137 72.6789C116.95 72.8335 116.857 73.0549 116.857 73.3429C116.857 73.6095 116.947 73.8282 117.129 73.9989C117.315 74.1642 117.566 74.2469 117.881 74.2469C118.195 74.2469 118.443 74.1615 118.625 73.9909C118.806 73.8202 118.897 73.6042 118.897 73.3429C118.897 73.0602 118.803 72.8415 118.617 72.6869C118.43 72.5269 118.185 72.4469 117.881 72.4469ZM124.839 75.1029C124.45 75.1029 124.098 75.0362 123.783 74.9029C123.474 74.7695 123.229 74.5775 123.047 74.3269C122.866 74.0762 122.773 73.7802 122.767 73.4389H123.967C123.983 73.6682 124.063 73.8495 124.207 73.9829C124.357 74.1162 124.559 74.1829 124.815 74.1829C125.077 74.1829 125.282 74.1215 125.431 73.9989C125.581 73.8709 125.655 73.7055 125.655 73.5029C125.655 73.3375 125.605 73.2015 125.503 73.0949C125.402 72.9882 125.274 72.9055 125.119 72.8469C124.97 72.7829 124.762 72.7135 124.495 72.6389C124.133 72.5322 123.837 72.4282 123.607 72.3269C123.383 72.2202 123.189 72.0629 123.023 71.8549C122.863 71.6415 122.783 71.3589 122.783 71.0069C122.783 70.6762 122.866 70.3882 123.031 70.1429C123.197 69.8975 123.429 69.7109 123.727 69.5829C124.026 69.4495 124.367 69.3829 124.751 69.3829C125.327 69.3829 125.794 69.5242 126.151 69.8069C126.514 70.0842 126.714 70.4735 126.751 70.9749H125.519C125.509 70.7829 125.426 70.6255 125.271 70.5029C125.122 70.3749 124.922 70.3109 124.671 70.3109C124.453 70.3109 124.277 70.3669 124.143 70.4789C124.015 70.5909 123.951 70.7535 123.951 70.9669C123.951 71.1162 123.999 71.2415 124.095 71.3429C124.197 71.4389 124.319 71.5189 124.463 71.5829C124.613 71.6415 124.821 71.7109 125.087 71.7909C125.45 71.8975 125.746 72.0042 125.975 72.1109C126.205 72.2175 126.402 72.3775 126.567 72.5909C126.733 72.8042 126.815 73.0842 126.815 73.4309C126.815 73.7295 126.738 74.0069 126.583 74.2629C126.429 74.5189 126.202 74.7242 125.903 74.8789C125.605 75.0282 125.25 75.1029 124.839 75.1029ZM130.282 70.5509C130.618 70.5509 130.917 70.6255 131.178 70.7749C131.44 70.9189 131.642 71.1349 131.786 71.4229C131.936 71.7055 132.01 72.0469 132.01 72.4469V75.0469H130.89V72.5989C130.89 72.2469 130.802 71.9775 130.626 71.7909C130.45 71.5989 130.21 71.5029 129.906 71.5029C129.597 71.5029 129.352 71.5989 129.17 71.7909C128.994 71.9775 128.906 72.2469 128.906 72.5989V75.0469H127.786V69.1269H128.906V71.1669C129.05 70.9749 129.242 70.8255 129.482 70.7189C129.722 70.6069 129.989 70.5509 130.282 70.5509ZM133.643 70.0869C133.446 70.0869 133.281 70.0255 133.147 69.9029C133.019 69.7749 132.955 69.6175 132.955 69.4309C132.955 69.2442 133.019 69.0895 133.147 68.9669C133.281 68.8389 133.446 68.7749 133.643 68.7749C133.841 68.7749 134.003 68.8389 134.131 68.9669C134.265 69.0895 134.331 69.2442 134.331 69.4309C134.331 69.6175 134.265 69.7749 134.131 69.9029C134.003 70.0255 133.841 70.0869 133.643 70.0869ZM134.195 70.6149V75.0469H133.075V70.6149H134.195ZM137.15 74.0149L138.27 70.6149H139.462L137.822 75.0469H136.462L134.83 70.6149H136.03L137.15 74.0149ZM139.803 72.8149C139.803 72.3669 139.891 71.9695 140.067 71.6229C140.248 71.2762 140.491 71.0095 140.795 70.8229C141.104 70.6362 141.448 70.5429 141.827 70.5429C142.158 70.5429 142.446 70.6095 142.691 70.7429C142.942 70.8762 143.142 71.0442 143.291 71.2469V70.6149H144.419V75.0469H143.291V74.3989C143.147 74.6069 142.947 74.7802 142.691 74.9189C142.44 75.0522 142.15 75.1189 141.819 75.1189C141.446 75.1189 141.104 75.0229 140.795 74.8309C140.491 74.6389 140.248 74.3695 140.067 74.0229C139.891 73.6709 139.803 73.2682 139.803 72.8149ZM143.291 72.8309C143.291 72.5589 143.238 72.3269 143.131 72.1349C143.024 71.9375 142.88 71.7882 142.699 71.6869C142.518 71.5802 142.323 71.5269 142.115 71.5269C141.907 71.5269 141.715 71.5775 141.539 71.6789C141.363 71.7802 141.219 71.9295 141.107 72.1269C141 72.3189 140.947 72.5482 140.947 72.8149C140.947 73.0815 141 73.3162 141.107 73.5189C141.219 73.7162 141.363 73.8682 141.539 73.9749C141.72 74.0815 141.912 74.1349 142.115 74.1349C142.323 74.1349 142.518 74.0842 142.699 73.9829C142.88 73.8762 143.024 73.7269 143.131 73.5349C143.238 73.3375 143.291 73.1029 143.291 72.8309ZM146.081 70.0869C145.878 70.0869 145.71 70.0255 145.577 69.9029C145.449 69.7749 145.385 69.6175 145.385 69.4309C145.385 69.2442 145.449 69.0895 145.577 68.9669C145.71 68.8389 145.878 68.7749 146.081 68.7749C146.278 68.7749 146.441 68.8389 146.569 68.9669C146.697 69.0895 146.761 69.2442 146.761 69.4309C146.761 69.6175 146.697 69.7749 146.569 69.9029C146.441 70.0255 146.278 70.0869 146.081 70.0869ZM146.633 75.7749C146.633 76.2655 146.51 76.6175 146.265 76.8309C146.025 77.0495 145.678 77.1589 145.225 77.1589H144.729V76.2069H145.049C145.22 76.2069 145.34 76.1722 145.409 76.1029C145.478 76.0389 145.513 75.9322 145.513 75.7829V70.6149H146.633V75.7749ZM148.308 70.0869C148.11 70.0869 147.945 70.0255 147.812 69.9029C147.684 69.7749 147.62 69.6175 147.62 69.4309C147.62 69.2442 147.684 69.0895 147.812 68.9669C147.945 68.8389 148.11 68.7749 148.308 68.7749C148.505 68.7749 148.668 68.8389 148.796 68.9669C148.929 69.0895 148.996 69.2442 148.996 69.4309C148.996 69.6175 148.929 69.7749 148.796 69.9029C148.668 70.0255 148.505 70.0869 148.308 70.0869ZM148.86 70.6149V75.0469H147.74V70.6149H148.86ZM52.328 87.0469H51.208L48.672 83.2149V87.0469H47.552V81.4549H48.672L51.208 85.2949V81.4549H52.328V87.0469ZM53.1468 84.8149C53.1468 84.3669 53.2348 83.9695 53.4108 83.6229C53.5921 83.2762 53.8348 83.0095 54.1388 82.8229C54.4481 82.6362 54.7921 82.5429 55.1708 82.5429C55.5015 82.5429 55.7895 82.6095 56.0348 82.7429C56.2855 82.8762 56.4855 83.0442 56.6348 83.2469V82.6149H57.7628V87.0469H56.6348V86.3989C56.4908 86.6069 56.2908 86.7802 56.0348 86.9189C55.7841 87.0522 55.4935 87.1189 55.1628 87.1189C54.7895 87.1189 54.4481 87.0229 54.1388 86.8309C53.8348 86.6389 53.5921 86.3695 53.4108 86.0229C53.2348 85.6709 53.1468 85.2682 53.1468 84.8149ZM56.6348 84.8309C56.6348 84.5589 56.5815 84.3269 56.4748 84.1349C56.3681 83.9375 56.2241 83.7882 56.0428 83.6869C55.8615 83.5802 55.6668 83.5269 55.4588 83.5269C55.2508 83.5269 55.0588 83.5775 54.8828 83.6789C54.7068 83.7802 54.5628 83.9295 54.4508 84.1269C54.3441 84.3189 54.2908 84.5482 54.2908 84.8149C54.2908 85.0815 54.3441 85.3162 54.4508 85.5189C54.5628 85.7162 54.7068 85.8682 54.8828 85.9749C55.0641 86.0815 55.2561 86.1349 55.4588 86.1349C55.6668 86.1349 55.8615 86.0842 56.0428 85.9829C56.2241 85.8762 56.3681 85.7269 56.4748 85.5349C56.5815 85.3375 56.6348 85.1029 56.6348 84.8309ZM60.5927 82.5429C60.9234 82.5429 61.214 82.6095 61.4647 82.7429C61.7154 82.8709 61.9127 83.0389 62.0567 83.2469V82.6149H63.1847V87.0789C63.1847 87.4895 63.102 87.8549 62.9367 88.1749C62.7714 88.5002 62.5234 88.7562 62.1927 88.9429C61.862 89.1349 61.462 89.2309 60.9927 89.2309C60.3634 89.2309 59.846 89.0842 59.4407 88.7909C59.0407 88.4975 58.814 88.0975 58.7607 87.5909H59.8727C59.9314 87.7935 60.0567 87.9535 60.2487 88.0709C60.446 88.1935 60.6834 88.2549 60.9607 88.2549C61.286 88.2549 61.55 88.1562 61.7527 87.9589C61.9554 87.7669 62.0567 87.4735 62.0567 87.0789V86.3909C61.9127 86.5989 61.7127 86.7722 61.4567 86.9109C61.206 87.0495 60.918 87.1189 60.5927 87.1189C60.2194 87.1189 59.878 87.0229 59.5687 86.8309C59.2594 86.6389 59.014 86.3695 58.8327 86.0229C58.6567 85.6709 58.5687 85.2682 58.5687 84.8149C58.5687 84.3669 58.6567 83.9695 58.8327 83.6229C59.014 83.2762 59.2567 83.0095 59.5607 82.8229C59.87 82.6362 60.214 82.5429 60.5927 82.5429ZM62.0567 84.8309C62.0567 84.5589 62.0034 84.3269 61.8967 84.1349C61.79 83.9375 61.646 83.7882 61.4647 83.6869C61.2834 83.5802 61.0887 83.5269 60.8807 83.5269C60.6727 83.5269 60.4807 83.5775 60.3047 83.6789C60.1287 83.7802 59.9847 83.9295 59.8727 84.1269C59.766 84.3189 59.7127 84.5482 59.7127 84.8149C59.7127 85.0815 59.766 85.3162 59.8727 85.5189C59.9847 85.7162 60.1287 85.8682 60.3047 85.9749C60.486 86.0815 60.678 86.1349 60.8807 86.1349C61.0887 86.1349 61.2834 86.0842 61.4647 85.9829C61.646 85.8762 61.79 85.7269 61.8967 85.5349C62.0034 85.3375 62.0567 85.1029 62.0567 84.8309ZM63.9906 84.8149C63.9906 84.3669 64.0786 83.9695 64.2546 83.6229C64.4359 83.2762 64.6786 83.0095 64.9826 82.8229C65.2919 82.6362 65.6359 82.5429 66.0146 82.5429C66.3452 82.5429 66.6332 82.6095 66.8786 82.7429C67.1292 82.8762 67.3292 83.0442 67.4786 83.2469V82.6149H68.6066V87.0469H67.4786V86.3989C67.3346 86.6069 67.1346 86.7802 66.8786 86.9189C66.6279 87.0522 66.3372 87.1189 66.0066 87.1189C65.6332 87.1189 65.2919 87.0229 64.9826 86.8309C64.6786 86.6389 64.4359 86.3695 64.2546 86.0229C64.0786 85.6709 63.9906 85.2682 63.9906 84.8149ZM67.4786 84.8309C67.4786 84.5589 67.4252 84.3269 67.3186 84.1349C67.2119 83.9375 67.0679 83.7882 66.8866 83.6869C66.7052 83.5802 66.5106 83.5269 66.3026 83.5269C66.0946 83.5269 65.9026 83.5775 65.7266 83.6789C65.5506 83.7802 65.4066 83.9295 65.2946 84.1269C65.1879 84.3189 65.1346 84.5482 65.1346 84.8149C65.1346 85.0815 65.1879 85.3162 65.2946 85.5189C65.4066 85.7162 65.5506 85.8682 65.7266 85.9749C65.9079 86.0815 66.0999 86.1349 66.3026 86.1349C66.5106 86.1349 66.7052 86.0842 66.8866 85.9829C67.0679 85.8762 67.2119 85.7269 67.3186 85.5349C67.4252 85.3375 67.4786 85.1029 67.4786 84.8309ZM70.8204 83.3029C70.9644 83.0682 71.1511 82.8842 71.3804 82.7509C71.6151 82.6175 71.8818 82.5509 72.1804 82.5509V83.7269H71.8844C71.5324 83.7269 71.2658 83.8095 71.0844 83.9749C70.9084 84.1402 70.8204 84.4282 70.8204 84.8389V87.0469H69.7004V82.6149H70.8204V83.3029ZM78.9131 83.1909C78.9131 83.4895 78.8411 83.7695 78.6971 84.0309C78.5584 84.2922 78.3371 84.5029 78.0331 84.6629C77.7344 84.8229 77.3557 84.9029 76.8971 84.9029H75.9611V87.0469H74.8411V81.4629H76.8971C77.3291 81.4629 77.6971 81.5375 78.0011 81.6869C78.3051 81.8362 78.5317 82.0415 78.6811 82.3029C78.8357 82.5642 78.9131 82.8602 78.9131 83.1909ZM76.8491 83.9989C77.1584 83.9989 77.3877 83.9295 77.5371 83.7909C77.6864 83.6469 77.7611 83.4469 77.7611 83.1909C77.7611 82.6469 77.4571 82.3749 76.8491 82.3749H75.9611V83.9989H76.8491ZM81.6763 87.1189C81.2496 87.1189 80.8656 87.0255 80.5243 86.8389C80.1829 86.6469 79.9136 86.3775 79.7163 86.0309C79.5243 85.6842 79.4283 85.2842 79.4283 84.8309C79.4283 84.3775 79.5269 83.9775 79.7243 83.6309C79.9269 83.2842 80.2016 83.0175 80.5483 82.8309C80.8949 82.6389 81.2816 82.5429 81.7083 82.5429C82.1349 82.5429 82.5216 82.6389 82.8683 82.8309C83.2149 83.0175 83.4869 83.2842 83.6843 83.6309C83.8869 83.9775 83.9883 84.3775 83.9883 84.8309C83.9883 85.2842 83.8843 85.6842 83.6762 86.0309C83.4736 86.3775 83.1963 86.6469 82.8443 86.8389C82.4976 87.0255 82.1083 87.1189 81.6763 87.1189ZM81.6763 86.1429C81.8789 86.1429 82.0683 86.0949 82.2443 85.9989C82.4256 85.8975 82.5696 85.7482 82.6763 85.5509C82.7829 85.3535 82.8363 85.1135 82.8363 84.8309C82.8363 84.4095 82.7243 84.0869 82.5003 83.8629C82.2816 83.6335 82.0123 83.5189 81.6923 83.5189C81.3723 83.5189 81.1029 83.6335 80.8843 83.8629C80.6709 84.0869 80.5643 84.4095 80.5643 84.8309C80.5643 85.2522 80.6683 85.5775 80.8763 85.8069C81.0896 86.0309 81.3563 86.1429 81.6763 86.1429ZM86.5058 87.1189C86.1431 87.1189 85.8178 87.0549 85.5298 86.9269C85.2418 86.7935 85.0125 86.6149 84.8418 86.3909C84.6765 86.1669 84.5858 85.9189 84.5698 85.6469H85.6978C85.7191 85.8175 85.8018 85.9589 85.9458 86.0709C86.0951 86.1829 86.2791 86.2389 86.4978 86.2389C86.7111 86.2389 86.8765 86.1962 86.9938 86.1109C87.1165 86.0255 87.1778 85.9162 87.1778 85.7829C87.1778 85.6389 87.1031 85.5322 86.9538 85.4629C86.8098 85.3882 86.5778 85.3082 86.2578 85.2229C85.9271 85.1429 85.6551 85.0602 85.4418 84.9749C85.2338 84.8895 85.0525 84.7589 84.8978 84.5829C84.7485 84.4069 84.6738 84.1695 84.6738 83.8709C84.6738 83.6255 84.7431 83.4015 84.8818 83.1989C85.0258 82.9962 85.2285 82.8362 85.4898 82.7189C85.7565 82.6015 86.0685 82.5429 86.4258 82.5429C86.9538 82.5429 87.3751 82.6762 87.6898 82.9429C88.0045 83.2042 88.1778 83.5589 88.2098 84.0069H87.1378C87.1218 83.8309 87.0471 83.6922 86.9138 83.5909C86.7858 83.4842 86.6125 83.4309 86.3938 83.4309C86.1911 83.4309 86.0338 83.4682 85.9218 83.5429C85.8151 83.6175 85.7618 83.7215 85.7618 83.8549C85.7618 84.0042 85.8365 84.1189 85.9858 84.1989C86.1351 84.2735 86.3671 84.3509 86.6818 84.4309C87.0018 84.5109 87.2658 84.5935 87.4738 84.6789C87.6818 84.7642 87.8605 84.8975 88.0098 85.0789C88.1645 85.2549 88.2445 85.4895 88.2498 85.7829C88.2498 86.0389 88.1778 86.2682 88.0338 86.4709C87.8951 86.6735 87.6925 86.8335 87.4258 86.9509C87.1645 87.0629 86.8578 87.1189 86.5058 87.1189ZM90.4732 83.5349V85.6789C90.4732 85.8282 90.5079 85.9375 90.5772 86.0069C90.6519 86.0709 90.7745 86.1029 90.9452 86.1029H91.4652V87.0469H90.7612C89.8172 87.0469 89.3452 86.5882 89.3452 85.6709V83.5349H88.8172V82.6149H89.3452V81.5189H90.4732V82.6149H91.4652V83.5349H90.4732ZM96.769 87.1029C96.2463 87.1029 95.7663 86.9802 95.329 86.7349C94.8917 86.4895 94.545 86.1509 94.289 85.7189C94.033 85.2815 93.905 84.7882 93.905 84.2389C93.905 83.6949 94.033 83.2069 94.289 82.7749C94.545 82.3375 94.8917 81.9962 95.329 81.7509C95.7663 81.5055 96.2463 81.3829 96.769 81.3829C97.297 81.3829 97.777 81.5055 98.209 81.7509C98.6463 81.9962 98.9903 82.3375 99.241 82.7749C99.497 83.2069 99.625 83.6949 99.625 84.2389C99.625 84.7882 99.497 85.2815 99.241 85.7189C98.9903 86.1509 98.6463 86.4895 98.209 86.7349C97.7717 86.9802 97.2917 87.1029 96.769 87.1029ZM96.769 86.1029C97.105 86.1029 97.401 86.0282 97.657 85.8789C97.913 85.7242 98.113 85.5055 98.257 85.2229C98.401 84.9402 98.473 84.6122 98.473 84.2389C98.473 83.8655 98.401 83.5402 98.257 83.2629C98.113 82.9802 97.913 82.7642 97.657 82.6149C97.401 82.4655 97.105 82.3909 96.769 82.3909C96.433 82.3909 96.1343 82.4655 95.873 82.6149C95.617 82.7642 95.417 82.9802 95.273 83.2629C95.129 83.5402 95.057 83.8655 95.057 84.2389C95.057 84.6122 95.129 84.9402 95.273 85.2229C95.417 85.5055 95.617 85.7242 95.873 85.8789C96.1343 86.0282 96.433 86.1029 96.769 86.1029ZM102.49 83.5349H101.714V87.0469H100.578V83.5349H100.074V82.6149H100.578V82.3909C100.578 81.8469 100.733 81.4469 101.042 81.1909C101.352 80.9349 101.818 80.8149 102.442 80.8309V81.7749C102.17 81.7695 101.981 81.8149 101.874 81.9109C101.768 82.0069 101.714 82.1802 101.714 82.4309V82.6149H102.49V83.5349ZM105.248 83.5349H104.472V87.0469H103.336V83.5349H102.832V82.6149H103.336V82.3909C103.336 81.8469 103.491 81.4469 103.8 81.1909C104.109 80.9349 104.576 80.8149 105.2 80.8309V81.7749C104.928 81.7695 104.739 81.8149 104.632 81.9109C104.525 82.0069 104.472 82.1802 104.472 82.4309V82.6149H105.248V83.5349ZM106.542 82.0869C106.345 82.0869 106.179 82.0255 106.046 81.9029C105.918 81.7749 105.854 81.6175 105.854 81.4309C105.854 81.2442 105.918 81.0895 106.046 80.9669C106.179 80.8389 106.345 80.7749 106.542 80.7749C106.739 80.7749 106.902 80.8389 107.03 80.9669C107.163 81.0895 107.23 81.2442 107.23 81.4309C107.23 81.6175 107.163 81.7749 107.03 81.9029C106.902 82.0255 106.739 82.0869 106.542 82.0869ZM107.094 82.6149V87.0469H105.974V82.6149H107.094ZM107.912 84.8309C107.912 84.3722 108.006 83.9722 108.192 83.6309C108.379 83.2842 108.638 83.0175 108.968 82.8309C109.299 82.6389 109.678 82.5429 110.104 82.5429C110.654 82.5429 111.107 82.6815 111.464 82.9589C111.827 83.2309 112.07 83.6149 112.192 84.1109H110.984C110.92 83.9189 110.811 83.7695 110.656 83.6629C110.507 83.5509 110.32 83.4949 110.096 83.4949C109.776 83.4949 109.523 83.6122 109.336 83.8469C109.15 84.0762 109.056 84.4042 109.056 84.8309C109.056 85.2522 109.15 85.5802 109.336 85.8149C109.523 86.0442 109.776 86.1589 110.096 86.1589C110.55 86.1589 110.846 85.9562 110.984 85.5509H112.192C112.07 86.0309 111.827 86.4122 111.464 86.6949C111.102 86.9775 110.648 87.1189 110.104 87.1189C109.678 87.1189 109.299 87.0255 108.968 86.8389C108.638 86.6469 108.379 86.3802 108.192 86.0389C108.006 85.6922 107.912 85.2895 107.912 84.8309ZM117.133 84.7349C117.133 84.8949 117.122 85.0389 117.101 85.1669H113.861C113.888 85.4869 114 85.7375 114.197 85.9189C114.394 86.1002 114.637 86.1909 114.925 86.1909C115.341 86.1909 115.637 86.0122 115.813 85.6549H117.021C116.893 86.0815 116.648 86.4335 116.285 86.7109C115.922 86.9829 115.477 87.1189 114.949 87.1189C114.522 87.1189 114.138 87.0255 113.797 86.8389C113.461 86.6469 113.197 86.3775 113.005 86.0309C112.818 85.6842 112.725 85.2842 112.725 84.8309C112.725 84.3722 112.818 83.9695 113.005 83.6229C113.192 83.2762 113.453 83.0095 113.789 82.8229C114.125 82.6362 114.512 82.5429 114.949 82.5429C115.37 82.5429 115.746 82.6335 116.077 82.8149C116.413 82.9962 116.672 83.2549 116.853 83.5909C117.04 83.9215 117.133 84.3029 117.133 84.7349ZM115.973 84.4149C115.968 84.1269 115.864 83.8975 115.661 83.7269C115.458 83.5509 115.21 83.4629 114.917 83.4629C114.64 83.4629 114.405 83.5482 114.213 83.7189C114.026 83.8842 113.912 84.1162 113.869 84.4149H115.973ZM120.961 81.4629V84.9189C120.961 85.2975 121.059 85.5882 121.257 85.7909C121.454 85.9882 121.731 86.0869 122.089 86.0869C122.451 86.0869 122.731 85.9882 122.929 85.7909C123.126 85.5882 123.225 85.2975 123.225 84.9189V81.4629H124.353V84.9109C124.353 85.3855 124.249 85.7882 124.041 86.1189C123.838 86.4442 123.563 86.6895 123.217 86.8549C122.875 87.0202 122.494 87.1029 122.073 87.1029C121.657 87.1029 121.278 87.0202 120.937 86.8549C120.601 86.6895 120.334 86.4442 120.137 86.1189C119.939 85.7882 119.841 85.3855 119.841 84.9109V81.4629H120.961ZM125.147 84.8149C125.147 84.3669 125.235 83.9695 125.411 83.6229C125.592 83.2762 125.837 83.0095 126.147 82.8229C126.456 82.6362 126.8 82.5429 127.179 82.5429C127.467 82.5429 127.741 82.6069 128.003 82.7349C128.264 82.8575 128.472 83.0229 128.627 83.2309V81.1269H129.763V87.0469H128.627V86.3909C128.488 86.6095 128.293 86.7855 128.043 86.9189C127.792 87.0522 127.501 87.1189 127.171 87.1189C126.797 87.1189 126.456 87.0229 126.147 86.8309C125.837 86.6389 125.592 86.3695 125.411 86.0229C125.235 85.6709 125.147 85.2682 125.147 84.8149ZM128.635 84.8309C128.635 84.5589 128.581 84.3269 128.475 84.1349C128.368 83.9375 128.224 83.7882 128.043 83.6869C127.861 83.5802 127.667 83.5269 127.459 83.5269C127.251 83.5269 127.059 83.5775 126.883 83.6789C126.707 83.7802 126.563 83.9295 126.451 84.1269C126.344 84.3189 126.291 84.5482 126.291 84.8149C126.291 85.0815 126.344 85.3162 126.451 85.5189C126.563 85.7162 126.707 85.8682 126.883 85.9749C127.064 86.0815 127.256 86.1349 127.459 86.1349C127.667 86.1349 127.861 86.0842 128.043 85.9829C128.224 85.8762 128.368 85.7269 128.475 85.5349C128.581 85.3375 128.635 85.1029 128.635 84.8309ZM130.569 84.8149C130.569 84.3669 130.657 83.9695 130.833 83.6229C131.014 83.2762 131.257 83.0095 131.561 82.8229C131.87 82.6362 132.214 82.5429 132.593 82.5429C132.923 82.5429 133.211 82.6095 133.457 82.7429C133.707 82.8762 133.907 83.0442 134.057 83.2469V82.6149H135.185V87.0469H134.057V86.3989C133.913 86.6069 133.713 86.7802 133.457 86.9189C133.206 87.0522 132.915 87.1189 132.585 87.1189C132.211 87.1189 131.87 87.0229 131.561 86.8309C131.257 86.6389 131.014 86.3695 130.833 86.0229C130.657 85.6709 130.569 85.2682 130.569 84.8149ZM134.057 84.8309C134.057 84.5589 134.003 84.3269 133.897 84.1349C133.79 83.9375 133.646 83.7882 133.465 83.6869C133.283 83.5802 133.089 83.5269 132.881 83.5269C132.673 83.5269 132.481 83.5775 132.305 83.6789C132.129 83.7802 131.985 83.9295 131.873 84.1269C131.766 84.3189 131.713 84.5482 131.713 84.8149C131.713 85.0815 131.766 85.3162 131.873 85.5189C131.985 85.7162 132.129 85.8682 132.305 85.9749C132.486 86.0815 132.678 86.1349 132.881 86.1349C133.089 86.1349 133.283 86.0842 133.465 85.9829C133.646 85.8762 133.79 85.7269 133.897 85.5349C134.003 85.3375 134.057 85.1029 134.057 84.8309ZM136.847 82.0869C136.649 82.0869 136.484 82.0255 136.351 81.9029C136.223 81.7749 136.159 81.6175 136.159 81.4309C136.159 81.2442 136.223 81.0895 136.351 80.9669C136.484 80.8389 136.649 80.7749 136.847 80.7749C137.044 80.7749 137.207 80.8389 137.335 80.9669C137.468 81.0895 137.535 81.2442 137.535 81.4309C137.535 81.6175 137.468 81.7749 137.335 81.9029C137.207 82.0255 137.044 82.0869 136.847 82.0869ZM137.399 82.6149V87.0469H136.279V82.6149H137.399ZM139.625 83.2549C139.769 83.0522 139.966 82.8842 140.217 82.7509C140.473 82.6122 140.764 82.5429 141.089 82.5429C141.468 82.5429 141.809 82.6362 142.113 82.8229C142.422 83.0095 142.665 83.2762 142.841 83.6229C143.022 83.9642 143.113 84.3615 143.113 84.8149C143.113 85.2682 143.022 85.6709 142.841 86.0229C142.665 86.3695 142.422 86.6389 142.113 86.8309C141.809 87.0229 141.468 87.1189 141.089 87.1189C140.764 87.1189 140.476 87.0522 140.225 86.9189C139.98 86.7855 139.78 86.6175 139.625 86.4149V89.1589H138.505V82.6149H139.625V83.2549ZM141.969 84.8149C141.969 84.5482 141.913 84.3189 141.801 84.1269C141.694 83.9295 141.55 83.7802 141.369 83.6789C141.193 83.5775 141.001 83.5269 140.793 83.5269C140.59 83.5269 140.398 83.5802 140.217 83.6869C140.041 83.7882 139.897 83.9375 139.785 84.1349C139.678 84.3322 139.625 84.5642 139.625 84.8309C139.625 85.0975 139.678 85.3295 139.785 85.5269C139.897 85.7242 140.041 85.8762 140.217 85.9829C140.398 86.0842 140.59 86.1349 140.793 86.1349C141.001 86.1349 141.193 86.0815 141.369 85.9749C141.55 85.8682 141.694 85.7162 141.801 85.5189C141.913 85.3215 141.969 85.0869 141.969 84.8149ZM148.111 82.6149V87.0469H146.983V86.4869C146.839 86.6789 146.65 86.8309 146.415 86.9429C146.186 87.0495 145.935 87.1029 145.663 87.1029C145.316 87.1029 145.01 87.0309 144.743 86.8869C144.476 86.7375 144.266 86.5215 144.111 86.2389C143.962 85.9509 143.887 85.6095 143.887 85.2149V82.6149H145.007V85.0549C145.007 85.4069 145.095 85.6789 145.271 85.8709C145.447 86.0575 145.687 86.1509 145.991 86.1509C146.3 86.1509 146.543 86.0575 146.719 85.8709C146.895 85.6789 146.983 85.4069 146.983 85.0549V82.6149H148.111ZM150.336 83.3029C150.48 83.0682 150.667 82.8842 150.896 82.7509C151.131 82.6175 151.397 82.5509 151.696 82.5509V83.7269H151.4C151.048 83.7269 150.781 83.8095 150.6 83.9749C150.424 84.1402 150.336 84.4282 150.336 84.8389V87.0469H149.216V82.6149H150.336V83.3029ZM47.28 96.2469C47.28 95.6975 47.4027 95.2069 47.648 94.7749C47.8987 94.3375 48.2373 93.9989 48.664 93.7589C49.096 93.5135 49.5787 93.3909 50.112 93.3909C50.736 93.3909 51.2827 93.5509 51.752 93.8709C52.2213 94.1909 52.5493 94.6335 52.736 95.1989H51.448C51.32 94.9322 51.1387 94.7322 50.904 94.5989C50.6747 94.4655 50.408 94.3989 50.104 94.3989C49.7787 94.3989 49.488 94.4762 49.232 94.6309C48.9813 94.7802 48.784 94.9935 48.64 95.2709C48.5013 95.5482 48.432 95.8735 48.432 96.2469C48.432 96.6149 48.5013 96.9402 48.64 97.2229C48.784 97.5002 48.9813 97.7162 49.232 97.8709C49.488 98.0202 49.7787 98.0949 50.104 98.0949C50.408 98.0949 50.6747 98.0282 50.904 97.8949C51.1387 97.7562 51.32 97.5535 51.448 97.2869H52.736C52.5493 97.8575 52.2213 98.3029 51.752 98.6229C51.288 98.9375 50.7413 99.0949 50.112 99.0949C49.5787 99.0949 49.096 98.9749 48.664 98.7349C48.2373 98.4895 47.8987 98.1509 47.648 97.7189C47.4027 97.2869 47.28 96.7962 47.28 96.2469ZM54.2606 94.0869C54.0633 94.0869 53.898 94.0255 53.7646 93.9029C53.6366 93.7749 53.5726 93.6175 53.5726 93.4309C53.5726 93.2442 53.6366 93.0895 53.7646 92.9669C53.898 92.8389 54.0633 92.7749 54.2606 92.7749C54.458 92.7749 54.6206 92.8389 54.7486 92.9669C54.882 93.0895 54.9486 93.2442 54.9486 93.4309C54.9486 93.6175 54.882 93.7749 54.7486 93.9029C54.6206 94.0255 54.458 94.0869 54.2606 94.0869ZM54.8126 94.6149V99.0469H53.6926V94.6149H54.8126ZM57.2232 95.5349V97.6789C57.2232 97.8282 57.2579 97.9375 57.3272 98.0069C57.4019 98.0709 57.5245 98.1029 57.6952 98.1029H58.2152V99.0469H57.5112C56.5672 99.0469 56.0952 98.5882 56.0952 97.6709V95.5349H55.5672V94.6149H56.0952V93.5189H57.2232V94.6149H58.2152V95.5349H57.2232ZM63.2608 94.6149L60.5168 101.143H59.3248L60.2848 98.9349L58.5088 94.6149H59.7648L60.9088 97.7109L62.0688 94.6149H63.2608ZM67.6988 99.1029C67.3094 99.1029 66.9574 99.0362 66.6428 98.9029C66.3334 98.7695 66.0881 98.5775 65.9068 98.3269C65.7254 98.0762 65.6321 97.7802 65.6268 97.4389H66.8268C66.8428 97.6682 66.9228 97.8495 67.0668 97.9829C67.2161 98.1162 67.4188 98.1829 67.6748 98.1829C67.9361 98.1829 68.1414 98.1215 68.2908 97.9989C68.4401 97.8709 68.5148 97.7055 68.5148 97.5029C68.5148 97.3375 68.4641 97.2015 68.3628 97.0949C68.2614 96.9882 68.1334 96.9055 67.9788 96.8469C67.8294 96.7829 67.6214 96.7135 67.3548 96.6389C66.9921 96.5322 66.6961 96.4282 66.4668 96.3269C66.2428 96.2202 66.0481 96.0629 65.8828 95.8549C65.7228 95.6415 65.6428 95.3589 65.6428 95.0069C65.6428 94.6762 65.7254 94.3882 65.8908 94.1429C66.0561 93.8975 66.2881 93.7109 66.5868 93.5829C66.8854 93.4495 67.2268 93.3829 67.6108 93.3829C68.1868 93.3829 68.6534 93.5242 69.0108 93.8069C69.3734 94.0842 69.5734 94.4735 69.6108 94.9749H68.3788C68.3681 94.7829 68.2854 94.6255 68.1308 94.5029C67.9814 94.3749 67.7814 94.3109 67.5308 94.3109C67.3121 94.3109 67.1361 94.3669 67.0028 94.4789C66.8748 94.5909 66.8108 94.7535 66.8108 94.9669C66.8108 95.1162 66.8588 95.2415 66.9548 95.3429C67.0561 95.4389 67.1788 95.5189 67.3228 95.5829C67.4721 95.6415 67.6801 95.7109 67.9468 95.7909C68.3094 95.8975 68.6054 96.0042 68.8348 96.1109C69.0641 96.2175 69.2614 96.3775 69.4268 96.5909C69.5921 96.8042 69.6748 97.0842 69.6748 97.4309C69.6748 97.7295 69.5974 98.0069 69.4427 98.2629C69.2881 98.5189 69.0614 98.7242 68.7628 98.8789C68.4641 99.0282 68.1094 99.1029 67.6988 99.1029ZM73.2378 99.1029C72.7151 99.1029 72.2351 98.9802 71.7978 98.7349C71.3604 98.4895 71.0138 98.1509 70.7578 97.7189C70.5018 97.2815 70.3738 96.7882 70.3738 96.2389C70.3738 95.6949 70.5018 95.2069 70.7578 94.7749C71.0138 94.3375 71.3604 93.9962 71.7978 93.7509C72.2351 93.5055 72.7151 93.3829 73.2378 93.3829C73.7658 93.3829 74.2458 93.5055 74.6778 93.7509C75.1151 93.9962 75.4591 94.3375 75.7098 94.7749C75.9658 95.2069 76.0938 95.6949 76.0938 96.2389C76.0938 96.7882 75.9658 97.2815 75.7098 97.7189C75.4591 98.1509 75.1151 98.4895 74.6778 98.7349C74.2404 98.9802 73.7604 99.1029 73.2378 99.1029ZM73.2378 98.1029C73.5738 98.1029 73.8698 98.0282 74.1258 97.8789C74.3818 97.7242 74.5818 97.5055 74.7258 97.2229C74.8698 96.9402 74.9418 96.6122 74.9418 96.2389C74.9418 95.8655 74.8698 95.5402 74.7258 95.2629C74.5818 94.9802 74.3818 94.7642 74.1258 94.6149C73.8698 94.4655 73.5738 94.3909 73.2378 94.3909C72.9018 94.3909 72.6031 94.4655 72.3418 94.6149C72.0858 94.7642 71.8858 94.9802 71.7418 95.2629C71.5978 95.5402 71.5258 95.8655 71.5258 96.2389C71.5258 96.6122 71.5978 96.9402 71.7418 97.2229C71.8858 97.5055 72.0858 97.7242 72.3418 97.8789C72.6031 98.0282 72.9018 98.1029 73.2378 98.1029ZM80.7693 100.623C80.2519 100.122 79.8493 99.4815 79.5613 98.7029C79.2786 97.9242 79.1373 97.0895 79.1373 96.1989C79.1373 95.2869 79.2866 94.4309 79.5853 93.6309C79.8839 92.8255 80.3186 92.1669 80.8893 91.6549H82.0173V91.7589C81.4306 92.3189 80.9826 92.9909 80.6733 93.7749C80.3693 94.5589 80.2173 95.3669 80.2173 96.1989C80.2173 97.0095 80.3613 97.7935 80.6493 98.5509C80.9426 99.3029 81.3586 99.9562 81.8973 100.511V100.623H80.7693ZM84.6441 99.1029C84.2547 99.1029 83.9027 99.0362 83.5881 98.9029C83.2787 98.7695 83.0334 98.5775 82.8521 98.3269C82.6707 98.0762 82.5774 97.7802 82.5721 97.4389H83.7721C83.7881 97.6682 83.8681 97.8495 84.0121 97.9829C84.1614 98.1162 84.3641 98.1829 84.6201 98.1829C84.8814 98.1829 85.0867 98.1215 85.2361 97.9989C85.3854 97.8709 85.4601 97.7055 85.4601 97.5029C85.4601 97.3375 85.4094 97.2015 85.3081 97.0949C85.2067 96.9882 85.0787 96.9055 84.9241 96.8469C84.7747 96.7829 84.5667 96.7135 84.3001 96.6389C83.9374 96.5322 83.6414 96.4282 83.4121 96.3269C83.1881 96.2202 82.9934 96.0629 82.8281 95.8549C82.6681 95.6415 82.5881 95.3589 82.5881 95.0069C82.5881 94.6762 82.6707 94.3882 82.8361 94.1429C83.0014 93.8975 83.2334 93.7109 83.5321 93.5829C83.8307 93.4495 84.1721 93.3829 84.5561 93.3829C85.1321 93.3829 85.5987 93.5242 85.9561 93.8069C86.3187 94.0842 86.5187 94.4735 86.5561 94.9749H85.3241C85.3134 94.7829 85.2307 94.6255 85.0761 94.5029C84.9267 94.3749 84.7267 94.3109 84.4761 94.3109C84.2574 94.3109 84.0814 94.3669 83.9481 94.4789C83.8201 94.5909 83.7561 94.7535 83.7561 94.9669C83.7561 95.1162 83.8041 95.2415 83.9001 95.3429C84.0014 95.4389 84.1241 95.5189 84.2681 95.5829C84.4174 95.6415 84.6254 95.7109 84.8921 95.7909C85.2547 95.8975 85.5507 96.0042 85.7801 96.1109C86.0094 96.2175 86.2067 96.3775 86.3721 96.5909C86.5374 96.8042 86.6201 97.0842 86.6201 97.4309C86.6201 97.7295 86.5427 98.0069 86.3881 98.2629C86.2334 98.5189 86.0067 98.7242 85.7081 98.8789C85.4094 99.0282 85.0547 99.1029 84.6441 99.1029ZM91.7751 94.6149V99.0469H90.6471V98.4869C90.5031 98.6789 90.3137 98.8309 90.0791 98.9429C89.8497 99.0495 89.5991 99.1029 89.3271 99.1029C88.9804 99.1029 88.6737 99.0309 88.4071 98.8869C88.1404 98.7375 87.9297 98.5215 87.7751 98.2389C87.6257 97.9509 87.5511 97.6095 87.5511 97.2149V94.6149H88.6711V97.0549C88.6711 97.4069 88.7591 97.6789 88.9351 97.8709C89.1111 98.0575 89.3511 98.1509 89.6551 98.1509C89.9644 98.1509 90.2071 98.0575 90.3831 97.8709C90.5591 97.6789 90.6471 97.4069 90.6471 97.0549V94.6149H91.7751ZM94.0001 95.2629C94.1441 95.0495 94.3415 94.8762 94.5921 94.7429C94.8481 94.6095 95.1388 94.5429 95.4641 94.5429C95.8428 94.5429 96.1841 94.6362 96.4881 94.8229C96.7975 95.0095 97.0401 95.2762 97.2161 95.6229C97.3975 95.9642 97.4881 96.3615 97.4881 96.8149C97.4881 97.2682 97.3975 97.6709 97.2161 98.0229C97.0401 98.3695 96.7975 98.6389 96.4881 98.8309C96.1841 99.0229 95.8428 99.1189 95.4641 99.1189C95.1335 99.1189 94.8428 99.0549 94.5921 98.9269C94.3468 98.7935 94.1495 98.6229 94.0001 98.4149V99.0469H92.8801V93.1269H94.0001V95.2629ZM96.3441 96.8149C96.3441 96.5482 96.2881 96.3189 96.1761 96.1269C96.0695 95.9295 95.9255 95.7802 95.7441 95.6789C95.5681 95.5775 95.3761 95.5269 95.1681 95.5269C94.9655 95.5269 94.7735 95.5802 94.5921 95.6869C94.4161 95.7882 94.2721 95.9375 94.1601 96.1349C94.0535 96.3322 94.0001 96.5642 94.0001 96.8309C94.0001 97.0975 94.0535 97.3295 94.1601 97.5269C94.2721 97.7242 94.4161 97.8762 94.5921 97.9829C94.7735 98.0842 94.9655 98.1349 95.1681 98.1349C95.3761 98.1349 95.5681 98.0815 95.7441 97.9749C95.9255 97.8682 96.0695 97.7162 96.1761 97.5189C96.2881 97.3215 96.3441 97.0869 96.3441 96.8149ZM101.71 95.7189V96.6629H98.318V95.7189H101.71ZM105.558 99.1029C105.035 99.1029 104.555 98.9802 104.118 98.7349C103.681 98.4895 103.334 98.1509 103.078 97.7189C102.822 97.2815 102.694 96.7882 102.694 96.2389C102.694 95.6949 102.822 95.2069 103.078 94.7749C103.334 94.3375 103.681 93.9962 104.118 93.7509C104.555 93.5055 105.035 93.3829 105.558 93.3829C106.086 93.3829 106.566 93.5055 106.998 93.7509C107.435 93.9962 107.779 94.3375 108.03 94.7749C108.286 95.2069 108.414 95.6949 108.414 96.2389C108.414 96.7882 108.286 97.2815 108.03 97.7189C107.779 98.1509 107.435 98.4895 106.998 98.7349C106.561 98.9802 106.081 99.1029 105.558 99.1029ZM105.558 98.1029C105.894 98.1029 106.19 98.0282 106.446 97.8789C106.702 97.7242 106.902 97.5055 107.046 97.2229C107.19 96.9402 107.262 96.6122 107.262 96.2389C107.262 95.8655 107.19 95.5402 107.046 95.2629C106.902 94.9802 106.702 94.7642 106.446 94.6149C106.19 94.4655 105.894 94.3909 105.558 94.3909C105.222 94.3909 104.923 94.4655 104.662 94.6149C104.406 94.7642 104.206 94.9802 104.062 95.2629C103.918 95.5402 103.846 95.8655 103.846 96.2389C103.846 96.6122 103.918 96.9402 104.062 97.2229C104.206 97.5055 104.406 97.7242 104.662 97.8789C104.923 98.0282 105.222 98.1029 105.558 98.1029ZM111.279 95.5349H110.503V99.0469H109.367V95.5349H108.863V94.6149H109.367V94.3909C109.367 93.8469 109.522 93.4469 109.831 93.1909C110.141 92.9349 110.607 92.8149 111.231 92.8309V93.7749C110.959 93.7695 110.77 93.8149 110.663 93.9109C110.557 94.0069 110.503 94.1802 110.503 94.4309V94.6149H111.279V95.5349ZM114.037 95.5349H113.261V99.0469H112.125V95.5349H111.621V94.6149H112.125V94.3909C112.125 93.8469 112.28 93.4469 112.589 93.1909C112.898 92.9349 113.365 92.8149 113.989 92.8309V93.7749C113.717 93.7695 113.528 93.8149 113.421 93.9109C113.314 94.0069 113.261 94.1802 113.261 94.4309V94.6149H114.037V95.5349ZM115.331 94.0869C115.134 94.0869 114.968 94.0255 114.835 93.9029C114.707 93.7749 114.643 93.6175 114.643 93.4309C114.643 93.2442 114.707 93.0895 114.835 92.9669C114.968 92.8389 115.134 92.7749 115.331 92.7749C115.528 92.7749 115.691 92.8389 115.819 92.9669C115.952 93.0895 116.019 93.2442 116.019 93.4309C116.019 93.6175 115.952 93.7749 115.819 93.9029C115.691 94.0255 115.528 94.0869 115.331 94.0869ZM115.883 94.6149V99.0469H114.763V94.6149H115.883ZM116.701 96.8309C116.701 96.3722 116.795 95.9722 116.982 95.6309C117.168 95.2842 117.427 95.0175 117.758 94.8309C118.088 94.6389 118.467 94.5429 118.894 94.5429C119.443 94.5429 119.896 94.6815 120.254 94.9589C120.616 95.2309 120.859 95.6149 120.982 96.1109H119.774C119.71 95.9189 119.6 95.7695 119.446 95.6629C119.296 95.5509 119.11 95.4949 118.886 95.4949C118.566 95.4949 118.312 95.6122 118.126 95.8469C117.939 96.0762 117.846 96.4042 117.846 96.8309C117.846 97.2522 117.939 97.5802 118.126 97.8149C118.312 98.0442 118.566 98.1589 118.886 98.1589C119.339 98.1589 119.635 97.9562 119.774 97.5509H120.982C120.859 98.0309 120.616 98.4122 120.254 98.6949C119.891 98.9775 119.438 99.1189 118.894 99.1189C118.467 99.1189 118.088 99.0255 117.758 98.8389C117.427 98.6469 117.168 98.3802 116.982 98.0389C116.795 97.6922 116.701 97.2895 116.701 96.8309ZM125.922 96.7349C125.922 96.8949 125.911 97.0389 125.89 97.1669H122.65C122.677 97.4869 122.789 97.7375 122.986 97.9189C123.183 98.1002 123.426 98.1909 123.714 98.1909C124.13 98.1909 124.426 98.0122 124.602 97.6549H125.81C125.682 98.0815 125.437 98.4335 125.074 98.7109C124.711 98.9829 124.266 99.1189 123.738 99.1189C123.311 99.1189 122.927 99.0255 122.586 98.8389C122.25 98.6469 121.986 98.3775 121.794 98.0309C121.607 97.6842 121.514 97.2842 121.514 96.8309C121.514 96.3722 121.607 95.9695 121.794 95.6229C121.981 95.2762 122.242 95.0095 122.578 94.8229C122.914 94.6362 123.301 94.5429 123.738 94.5429C124.159 94.5429 124.535 94.6335 124.866 94.8149C125.202 94.9962 125.461 95.2549 125.642 95.5909C125.829 95.9215 125.922 96.3029 125.922 96.7349ZM124.762 96.4149C124.757 96.1269 124.653 95.8975 124.45 95.7269C124.247 95.5509 123.999 95.4629 123.706 95.4629C123.429 95.4629 123.194 95.5482 123.002 95.7189C122.815 95.8842 122.701 96.1162 122.658 96.4149H124.762ZM126.451 100.623V100.511C126.99 99.9562 127.404 99.3029 127.692 98.5509C127.985 97.7935 128.132 97.0095 128.132 96.1989C128.132 95.3669 127.977 94.5589 127.668 93.7749C127.364 92.9909 126.918 92.3189 126.332 91.7589V91.6549H127.46C128.03 92.1669 128.465 92.8255 128.764 93.6309C129.062 94.4309 129.212 95.2869 129.212 96.1989C129.212 97.0895 129.068 97.9242 128.78 98.7029C128.497 99.4815 128.097 100.122 127.58 100.623H126.451ZM131.846 97.8709L130.91 100.119H130.19L130.71 97.8709H131.846ZM48.656 105.463V108.919C48.656 109.298 48.7547 109.588 48.952 109.791C49.1493 109.988 49.4267 110.087 49.784 110.087C50.1467 110.087 50.4267 109.988 50.624 109.791C50.8213 109.588 50.92 109.298 50.92 108.919V105.463H52.048V108.911C52.048 109.386 51.944 109.788 51.736 110.119C51.5333 110.444 51.2587 110.69 50.912 110.855C50.5707 111.02 50.1893 111.103 49.768 111.103C49.352 111.103 48.9733 111.02 48.632 110.855C48.296 110.69 48.0293 110.444 47.832 110.119C47.6347 109.788 47.536 109.386 47.536 108.911V105.463H48.656ZM52.8421 108.815C52.8421 108.367 52.9301 107.97 53.1061 107.623C53.2875 107.276 53.5328 107.01 53.8421 106.823C54.1515 106.636 54.4955 106.543 54.8741 106.543C55.1621 106.543 55.4368 106.607 55.6981 106.735C55.9595 106.858 56.1675 107.023 56.3221 107.231V105.127H57.4581V111.047H56.3221V110.391C56.1835 110.61 55.9888 110.786 55.7381 110.919C55.4875 111.052 55.1968 111.119 54.8661 111.119C54.4928 111.119 54.1515 111.023 53.8421 110.831C53.5328 110.639 53.2875 110.37 53.1061 110.023C52.9301 109.671 52.8421 109.268 52.8421 108.815ZM56.3301 108.831C56.3301 108.559 56.2768 108.327 56.1701 108.135C56.0635 107.938 55.9195 107.788 55.7381 107.687C55.5568 107.58 55.3621 107.527 55.1541 107.527C54.9461 107.527 54.7541 107.578 54.5781 107.679C54.4021 107.78 54.2581 107.93 54.1461 108.127C54.0395 108.319 53.9861 108.548 53.9861 108.815C53.9861 109.082 54.0395 109.316 54.1461 109.519C54.2581 109.716 54.4021 109.868 54.5781 109.975C54.7595 110.082 54.9515 110.135 55.1541 110.135C55.3621 110.135 55.5568 110.084 55.7381 109.983C55.9195 109.876 56.0635 109.727 56.1701 109.535C56.2768 109.338 56.3301 109.103 56.3301 108.831ZM58.264 108.815C58.264 108.367 58.352 107.97 58.528 107.623C58.7093 107.276 58.952 107.01 59.256 106.823C59.5653 106.636 59.9093 106.543 60.288 106.543C60.6187 106.543 60.9067 106.61 61.152 106.743C61.4027 106.876 61.6027 107.044 61.752 107.247V106.615H62.88V111.047H61.752V110.399C61.608 110.607 61.408 110.78 61.152 110.919C60.9013 111.052 60.6107 111.119 60.28 111.119C59.9067 111.119 59.5653 111.023 59.256 110.831C58.952 110.639 58.7093 110.37 58.528 110.023C58.352 109.671 58.264 109.268 58.264 108.815ZM61.752 108.831C61.752 108.559 61.6987 108.327 61.592 108.135C61.4853 107.938 61.3413 107.788 61.16 107.687C60.9787 107.58 60.784 107.527 60.576 107.527C60.368 107.527 60.176 107.578 60 107.679C59.824 107.78 59.68 107.93 59.568 108.127C59.4613 108.319 59.408 108.548 59.408 108.815C59.408 109.082 59.4613 109.316 59.568 109.519C59.68 109.716 59.824 109.868 60 109.975C60.1813 110.082 60.3733 110.135 60.576 110.135C60.784 110.135 60.9787 110.084 61.16 109.983C61.3413 109.876 61.4853 109.727 61.592 109.535C61.6987 109.338 61.752 109.103 61.752 108.831ZM64.5419 106.087C64.3445 106.087 64.1792 106.026 64.0459 105.903C63.9179 105.775 63.8539 105.618 63.8539 105.431C63.8539 105.244 63.9179 105.09 64.0459 104.967C64.1792 104.839 64.3445 104.775 64.5419 104.775C64.7392 104.775 64.9019 104.839 65.0299 104.967C65.1632 105.09 65.2299 105.244 65.2299 105.431C65.2299 105.618 65.1632 105.775 65.0299 105.903C64.9019 106.026 64.7392 106.087 64.5419 106.087ZM65.0939 106.615V111.047H63.9739V106.615H65.0939ZM67.3204 107.255C67.4644 107.052 67.6618 106.884 67.9124 106.751C68.1684 106.612 68.4591 106.543 68.7844 106.543C69.1631 106.543 69.5044 106.636 69.8084 106.823C70.1178 107.01 70.3604 107.276 70.5364 107.623C70.7178 107.964 70.8084 108.362 70.8084 108.815C70.8084 109.268 70.7178 109.671 70.5364 110.023C70.3604 110.37 70.1178 110.639 69.8084 110.831C69.5044 111.023 69.1631 111.119 68.7844 111.119C68.4591 111.119 68.1711 111.052 67.9204 110.919C67.6751 110.786 67.4751 110.618 67.3204 110.415V113.159H66.2004V106.615H67.3204V107.255ZM69.6644 108.815C69.6644 108.548 69.6084 108.319 69.4964 108.127C69.3898 107.93 69.2458 107.78 69.0644 107.679C68.8884 107.578 68.6964 107.527 68.4884 107.527C68.2858 107.527 68.0938 107.58 67.9124 107.687C67.7364 107.788 67.5924 107.938 67.4804 108.135C67.3738 108.332 67.3204 108.564 67.3204 108.831C67.3204 109.098 67.3738 109.33 67.4804 109.527C67.5924 109.724 67.7364 109.876 67.9124 109.983C68.0938 110.084 68.2858 110.135 68.4884 110.135C68.6964 110.135 68.8884 110.082 69.0644 109.975C69.2458 109.868 69.3898 109.716 69.4964 109.519C69.6084 109.322 69.6644 109.087 69.6644 108.815ZM75.8063 106.615V111.047H74.6783V110.487C74.5343 110.679 74.345 110.831 74.1103 110.943C73.881 111.05 73.6303 111.103 73.3583 111.103C73.0116 111.103 72.705 111.031 72.4383 110.887C72.1716 110.738 71.961 110.522 71.8063 110.239C71.657 109.951 71.5823 109.61 71.5823 109.215V106.615H72.7023V109.055C72.7023 109.407 72.7903 109.679 72.9663 109.871C73.1423 110.058 73.3823 110.151 73.6863 110.151C73.9956 110.151 74.2383 110.058 74.4143 109.871C74.5903 109.679 74.6783 109.407 74.6783 109.055V106.615H75.8063ZM78.0314 107.303C78.1754 107.068 78.362 106.884 78.5914 106.751C78.826 106.618 79.0927 106.551 79.3914 106.551V107.727H79.0954C78.7434 107.727 78.4767 107.81 78.2954 107.975C78.1194 108.14 78.0314 108.428 78.0314 108.839V111.047H76.9114V106.615H78.0314V107.303ZM81.3698 109.871L80.4338 112.119H79.7138L80.2338 109.871H81.3698ZM86.9633 111.047L85.7313 108.871H85.2033V111.047H84.0833V105.463H86.1793C86.6113 105.463 86.9793 105.54 87.2833 105.695C87.5873 105.844 87.8139 106.05 87.9633 106.311C88.1179 106.567 88.1953 106.855 88.1953 107.175C88.1953 107.543 88.0886 107.876 87.8753 108.175C87.6619 108.468 87.3446 108.671 86.9233 108.783L88.2593 111.047H86.9633ZM85.2033 108.031H86.1393C86.4433 108.031 86.6699 107.959 86.8193 107.815C86.9686 107.666 87.0433 107.46 87.0433 107.199C87.0433 106.943 86.9686 106.746 86.8193 106.607C86.6699 106.463 86.4433 106.391 86.1393 106.391H85.2033V108.031ZM88.9202 108.815C88.9202 108.367 89.0082 107.97 89.1842 107.623C89.3656 107.276 89.6083 107.01 89.9123 106.823C90.2216 106.636 90.5656 106.543 90.9443 106.543C91.2749 106.543 91.5629 106.61 91.8083 106.743C92.0589 106.876 92.2589 107.044 92.4083 107.247V106.615H93.5363V111.047H92.4083V110.399C92.2643 110.607 92.0643 110.78 91.8083 110.919C91.5576 111.052 91.2669 111.119 90.9363 111.119C90.5629 111.119 90.2216 111.023 89.9123 110.831C89.6083 110.639 89.3656 110.37 89.1842 110.023C89.0082 109.671 88.9202 109.268 88.9202 108.815ZM92.4083 108.831C92.4083 108.559 92.3549 108.327 92.2483 108.135C92.1416 107.938 91.9976 107.788 91.8163 107.687C91.6349 107.58 91.4403 107.527 91.2323 107.527C91.0243 107.527 90.8323 107.578 90.6562 107.679C90.4803 107.78 90.3363 107.93 90.2243 108.127C90.1176 108.319 90.0643 108.548 90.0643 108.815C90.0643 109.082 90.1176 109.316 90.2243 109.519C90.3363 109.716 90.4803 109.868 90.6562 109.975C90.8376 110.082 91.0296 110.135 91.2323 110.135C91.4403 110.135 91.6349 110.084 91.8163 109.983C91.9976 109.876 92.1416 109.727 92.2483 109.535C92.3549 109.338 92.4083 109.103 92.4083 108.831ZM95.1981 106.087C94.9955 106.087 94.8275 106.026 94.6941 105.903C94.5661 105.775 94.5021 105.618 94.5021 105.431C94.5021 105.244 94.5661 105.09 94.6941 104.967C94.8275 104.839 94.9955 104.775 95.1981 104.775C95.3955 104.775 95.5581 104.839 95.6861 104.967C95.8141 105.09 95.8781 105.244 95.8781 105.431C95.8781 105.618 95.8141 105.775 95.6861 105.903C95.5581 106.026 95.3955 106.087 95.1981 106.087ZM95.7501 111.775C95.7501 112.266 95.6275 112.618 95.3821 112.831C95.1421 113.05 94.7955 113.159 94.3421 113.159H93.8461V112.207H94.1661C94.3368 112.207 94.4568 112.172 94.5261 112.103C94.5955 112.039 94.6301 111.932 94.6301 111.783V106.615H95.7501V111.775ZM96.5687 108.815C96.5687 108.367 96.6567 107.97 96.8327 107.623C97.014 107.276 97.2567 107.01 97.5607 106.823C97.87 106.636 98.214 106.543 98.5927 106.543C98.9234 106.543 99.2114 106.61 99.4567 106.743C99.7074 106.876 99.9074 107.044 100.057 107.247V106.615H101.185V111.047H100.057V110.399C99.9127 110.607 99.7127 110.78 99.4567 110.919C99.206 111.052 98.9154 111.119 98.5847 111.119C98.2114 111.119 97.87 111.023 97.5607 110.831C97.2567 110.639 97.014 110.37 96.8327 110.023C96.6567 109.671 96.5687 109.268 96.5687 108.815ZM100.057 108.831C100.057 108.559 100.003 108.327 99.8967 108.135C99.79 107.938 99.646 107.788 99.4647 107.687C99.2834 107.58 99.0887 107.527 98.8807 107.527C98.6727 107.527 98.4807 107.578 98.3047 107.679C98.1287 107.78 97.9847 107.93 97.8727 108.127C97.766 108.319 97.7127 108.548 97.7127 108.815C97.7127 109.082 97.766 109.316 97.8727 109.519C97.9847 109.716 98.1287 109.868 98.3047 109.975C98.486 110.082 98.678 110.135 98.8807 110.135C99.0887 110.135 99.2834 110.084 99.4647 109.983C99.646 109.876 99.79 109.727 99.8967 109.535C100.003 109.338 100.057 109.103 100.057 108.831ZM103.975 111.119C103.612 111.119 103.287 111.055 102.999 110.927C102.711 110.794 102.481 110.615 102.311 110.391C102.145 110.167 102.055 109.919 102.039 109.647H103.167C103.188 109.818 103.271 109.959 103.415 110.071C103.564 110.183 103.748 110.239 103.967 110.239C104.18 110.239 104.345 110.196 104.463 110.111C104.585 110.026 104.647 109.916 104.647 109.783C104.647 109.639 104.572 109.532 104.423 109.463C104.279 109.388 104.047 109.308 103.727 109.223C103.396 109.143 103.124 109.06 102.911 108.975C102.703 108.89 102.521 108.759 102.367 108.583C102.217 108.407 102.143 108.17 102.143 107.871C102.143 107.626 102.212 107.402 102.351 107.199C102.495 106.996 102.697 106.836 102.959 106.719C103.225 106.602 103.537 106.543 103.895 106.543C104.423 106.543 104.844 106.676 105.159 106.943C105.473 107.204 105.647 107.559 105.679 108.007H104.607C104.591 107.831 104.516 107.692 104.383 107.591C104.255 107.484 104.081 107.431 103.863 107.431C103.66 107.431 103.503 107.468 103.391 107.543C103.284 107.618 103.231 107.722 103.231 107.855C103.231 108.004 103.305 108.119 103.455 108.199C103.604 108.274 103.836 108.351 104.151 108.431C104.471 108.511 104.735 108.594 104.943 108.679C105.151 108.764 105.329 108.898 105.479 109.079C105.633 109.255 105.713 109.49 105.719 109.783C105.719 110.039 105.647 110.268 105.503 110.471C105.364 110.674 105.161 110.834 104.895 110.951C104.633 111.063 104.327 111.119 103.975 111.119ZM107.942 107.535V109.679C107.942 109.828 107.977 109.938 108.046 110.007C108.121 110.071 108.243 110.103 108.414 110.103H108.934V111.047H108.23C107.286 111.047 106.814 110.588 106.814 109.671V107.535H106.286V106.615H106.814V105.519H107.942V106.615H108.934V107.535H107.942ZM112.236 106.551C112.572 106.551 112.87 106.626 113.132 106.775C113.393 106.919 113.596 107.135 113.74 107.423C113.889 107.706 113.964 108.047 113.964 108.447V111.047H112.844V108.599C112.844 108.247 112.756 107.978 112.58 107.791C112.404 107.599 112.164 107.503 111.86 107.503C111.55 107.503 111.305 107.599 111.124 107.791C110.948 107.978 110.86 108.247 110.86 108.599V111.047H109.74V105.127H110.86V107.167C111.004 106.975 111.196 106.826 111.436 106.719C111.676 106.607 111.942 106.551 112.236 106.551ZM114.741 108.815C114.741 108.367 114.829 107.97 115.005 107.623C115.186 107.276 115.429 107.01 115.733 106.823C116.042 106.636 116.386 106.543 116.765 106.543C117.095 106.543 117.383 106.61 117.629 106.743C117.879 106.876 118.079 107.044 118.229 107.247V106.615H119.357V111.047H118.229V110.399C118.085 110.607 117.885 110.78 117.629 110.919C117.378 111.052 117.087 111.119 116.757 111.119C116.383 111.119 116.042 111.023 115.733 110.831C115.429 110.639 115.186 110.37 115.005 110.023C114.829 109.671 114.741 109.268 114.741 108.815ZM118.229 108.831C118.229 108.559 118.175 108.327 118.069 108.135C117.962 107.938 117.818 107.788 117.637 107.687C117.455 107.58 117.261 107.527 117.053 107.527C116.845 107.527 116.653 107.578 116.477 107.679C116.301 107.78 116.157 107.93 116.045 108.127C115.938 108.319 115.885 108.548 115.885 108.815C115.885 109.082 115.938 109.316 116.045 109.519C116.157 109.716 116.301 109.868 116.477 109.975C116.658 110.082 116.85 110.135 117.053 110.135C117.261 110.135 117.455 110.084 117.637 109.983C117.818 109.876 117.962 109.727 118.069 109.535C118.175 109.338 118.229 109.103 118.229 108.831ZM122.906 106.551C123.434 106.551 123.861 106.719 124.186 107.055C124.512 107.386 124.674 107.85 124.674 108.447V111.047H123.554V108.599C123.554 108.247 123.466 107.978 123.29 107.791C123.114 107.599 122.874 107.503 122.57 107.503C122.261 107.503 122.016 107.599 121.834 107.791C121.658 107.978 121.57 108.247 121.57 108.599V111.047H120.45V106.615H121.57V107.167C121.72 106.975 121.909 106.826 122.138 106.719C122.373 106.607 122.629 106.551 122.906 106.551ZM126.964 109.871L126.028 112.119H125.308L125.828 109.871H126.964ZM130.797 105.463V111.047H129.677V105.463H130.797ZM134.36 106.551C134.888 106.551 135.314 106.719 135.64 107.055C135.965 107.386 136.128 107.85 136.128 108.447V111.047H135.008V108.599C135.008 108.247 134.92 107.978 134.744 107.791C134.568 107.599 134.328 107.503 134.024 107.503C133.714 107.503 133.469 107.599 133.288 107.791C133.112 107.978 133.024 108.247 133.024 108.599V111.047H131.904V106.615H133.024V107.167C133.173 106.975 133.362 106.826 133.592 106.719C133.826 106.607 134.082 106.551 134.36 106.551ZM136.905 108.815C136.905 108.367 136.993 107.97 137.169 107.623C137.35 107.276 137.595 107.01 137.905 106.823C138.214 106.636 138.558 106.543 138.937 106.543C139.225 106.543 139.499 106.607 139.761 106.735C140.022 106.858 140.23 107.023 140.385 107.231V105.127H141.521V111.047H140.385V110.391C140.246 110.61 140.051 110.786 139.801 110.919C139.55 111.052 139.259 111.119 138.929 111.119C138.555 111.119 138.214 111.023 137.905 110.831C137.595 110.639 137.35 110.37 137.169 110.023C136.993 109.671 136.905 109.268 136.905 108.815ZM140.393 108.831C140.393 108.559 140.339 108.327 140.233 108.135C140.126 107.938 139.982 107.788 139.801 107.687C139.619 107.58 139.425 107.527 139.217 107.527C139.009 107.527 138.817 107.578 138.641 107.679C138.465 107.78 138.321 107.93 138.209 108.127C138.102 108.319 138.049 108.548 138.049 108.815C138.049 109.082 138.102 109.316 138.209 109.519C138.321 109.716 138.465 109.868 138.641 109.975C138.822 110.082 139.014 110.135 139.217 110.135C139.425 110.135 139.619 110.084 139.801 109.983C139.982 109.876 140.126 109.727 140.233 109.535C140.339 109.338 140.393 109.103 140.393 108.831ZM143.183 106.087C142.985 106.087 142.82 106.026 142.687 105.903C142.559 105.775 142.495 105.618 142.495 105.431C142.495 105.244 142.559 105.09 142.687 104.967C142.82 104.839 142.985 104.775 143.183 104.775C143.38 104.775 143.543 104.839 143.671 104.967C143.804 105.09 143.871 105.244 143.871 105.431C143.871 105.618 143.804 105.775 143.671 105.903C143.543 106.026 143.38 106.087 143.183 106.087ZM143.735 106.615V111.047H142.615V106.615H143.735ZM144.553 108.815C144.553 108.367 144.641 107.97 144.817 107.623C144.998 107.276 145.241 107.01 145.545 106.823C145.854 106.636 146.198 106.543 146.577 106.543C146.908 106.543 147.196 106.61 147.441 106.743C147.692 106.876 147.892 107.044 148.041 107.247V106.615H149.169V111.047H148.041V110.399C147.897 110.607 147.697 110.78 147.441 110.919C147.19 111.052 146.9 111.119 146.569 111.119C146.196 111.119 145.854 111.023 145.545 110.831C145.241 110.639 144.998 110.37 144.817 110.023C144.641 109.671 144.553 109.268 144.553 108.815ZM148.041 108.831C148.041 108.559 147.988 108.327 147.881 108.135C147.774 107.938 147.63 107.788 147.449 107.687C147.268 107.58 147.073 107.527 146.865 107.527C146.657 107.527 146.465 107.578 146.289 107.679C146.113 107.78 145.969 107.93 145.857 108.127C145.75 108.319 145.697 108.548 145.697 108.815C145.697 109.082 145.75 109.316 145.857 109.519C145.969 109.716 146.113 109.868 146.289 109.975C146.47 110.082 146.662 110.135 146.865 110.135C147.073 110.135 147.268 110.084 147.449 109.983C147.63 109.876 147.774 109.727 147.881 109.535C147.988 109.338 148.041 109.103 148.041 108.831ZM49.488 124.623C48.9707 124.122 48.568 123.482 48.28 122.703C47.9973 121.924 47.856 121.09 47.856 120.199C47.856 119.287 48.0053 118.431 48.304 117.631C48.6027 116.826 49.0373 116.167 49.608 115.655H50.736V115.759C50.1493 116.319 49.7013 116.991 49.392 117.775C49.088 118.559 48.936 119.367 48.936 120.199C48.936 121.01 49.08 121.794 49.368 122.551C49.6613 123.303 50.0773 123.956 50.616 124.511V124.623H49.488ZM52.5548 117.463V123.047H51.4348V117.463H52.5548ZM58.4374 123.047H57.3174L54.7814 119.215V123.047H53.6614V117.455H54.7814L57.3174 121.295V117.455H58.4374V123.047ZM59.2562 124.623V124.511C59.7949 123.956 60.2082 123.303 60.4962 122.551C60.7895 121.794 60.9362 121.01 60.9362 120.199C60.9362 119.367 60.7815 118.559 60.4722 117.775C60.1682 116.991 59.7229 116.319 59.1362 115.759V115.655H60.2642C60.8349 116.167 61.2695 116.826 61.5682 117.631C61.8669 118.431 62.0162 119.287 62.0162 120.199C62.0162 121.09 61.8722 121.924 61.5842 122.703C61.3015 123.482 60.9015 124.122 60.3842 124.623H59.2562ZM64.651 121.871L63.715 124.119H62.995L63.515 121.871H64.651ZM71.4365 119.191C71.4365 119.49 71.3645 119.77 71.2205 120.031C71.0818 120.292 70.8605 120.503 70.5565 120.663C70.2578 120.823 69.8792 120.903 69.4205 120.903H68.4845V123.047H67.3645V117.463H69.4205C69.8525 117.463 70.2205 117.538 70.5245 117.687C70.8285 117.836 71.0552 118.042 71.2045 118.303C71.3592 118.564 71.4365 118.86 71.4365 119.191ZM69.3725 119.999C69.6818 119.999 69.9112 119.93 70.0605 119.791C70.2098 119.647 70.2845 119.447 70.2845 119.191C70.2845 118.647 69.9805 118.375 69.3725 118.375H68.4845V119.999H69.3725ZM72.7997 118.087C72.6024 118.087 72.437 118.026 72.3037 117.903C72.1757 117.775 72.1117 117.618 72.1117 117.431C72.1117 117.244 72.1757 117.09 72.3037 116.967C72.437 116.839 72.6024 116.775 72.7997 116.775C72.997 116.775 73.1597 116.839 73.2877 116.967C73.421 117.09 73.4877 117.244 73.4877 117.431C73.4877 117.618 73.421 117.775 73.2877 117.903C73.1597 118.026 72.997 118.087 72.7997 118.087ZM73.3517 118.615V123.047H72.2317V118.615H73.3517ZM76.9143 118.551C77.4423 118.551 77.8689 118.719 78.1943 119.055C78.5196 119.386 78.6823 119.85 78.6823 120.447V123.047H77.5623V120.599C77.5623 120.247 77.4743 119.978 77.2983 119.791C77.1223 119.599 76.8823 119.503 76.5783 119.503C76.2689 119.503 76.0236 119.599 75.8423 119.791C75.6663 119.978 75.5783 120.247 75.5783 120.599V123.047H74.4583V118.615H75.5783V119.167C75.7276 118.975 75.9169 118.826 76.1463 118.719C76.3809 118.607 76.6369 118.551 76.9143 118.551ZM81.3816 120.247C81.3816 119.698 81.5042 119.207 81.7496 118.775C82.0002 118.338 82.3389 117.999 82.7656 117.759C83.1976 117.514 83.6802 117.391 84.2136 117.391C84.8376 117.391 85.3842 117.551 85.8536 117.871C86.3229 118.191 86.6509 118.634 86.8376 119.199H85.5496C85.4216 118.932 85.2402 118.732 85.0056 118.599C84.7762 118.466 84.5096 118.399 84.2056 118.399C83.8802 118.399 83.5896 118.476 83.3336 118.631C83.0829 118.78 82.8856 118.994 82.7416 119.271C82.6029 119.548 82.5336 119.874 82.5336 120.247C82.5336 120.615 82.6029 120.94 82.7416 121.223C82.8856 121.5 83.0829 121.716 83.3336 121.871C83.5896 122.02 83.8802 122.095 84.2056 122.095C84.5096 122.095 84.7762 122.028 85.0056 121.895C85.2402 121.756 85.4216 121.554 85.5496 121.287H86.8376C86.6509 121.858 86.3229 122.303 85.8536 122.623C85.3896 122.938 84.8429 123.095 84.2136 123.095C83.6802 123.095 83.1976 122.975 82.7656 122.735C82.3389 122.49 82.0002 122.151 81.7496 121.719C81.5042 121.287 81.3816 120.796 81.3816 120.247ZM89.7622 123.119C89.3355 123.119 88.9515 123.026 88.6102 122.839C88.2689 122.647 87.9995 122.378 87.8022 122.031C87.6102 121.684 87.5142 121.284 87.5142 120.831C87.5142 120.378 87.6129 119.978 87.8102 119.631C88.0129 119.284 88.2875 119.018 88.6342 118.831C88.9809 118.639 89.3675 118.543 89.7942 118.543C90.2209 118.543 90.6075 118.639 90.9542 118.831C91.3009 119.018 91.5729 119.284 91.7702 119.631C91.9729 119.978 92.0742 120.378 92.0742 120.831C92.0742 121.284 91.9702 121.684 91.7622 122.031C91.5595 122.378 91.2822 122.647 90.9302 122.839C90.5835 123.026 90.1942 123.119 89.7622 123.119ZM89.7622 122.143C89.9649 122.143 90.1542 122.095 90.3302 121.999C90.5115 121.898 90.6555 121.748 90.7622 121.551C90.8689 121.354 90.9222 121.114 90.9222 120.831C90.9222 120.41 90.8102 120.087 90.5862 119.863C90.3675 119.634 90.0982 119.519 89.7782 119.519C89.4582 119.519 89.1889 119.634 88.9702 119.863C88.7569 120.087 88.6502 120.41 88.6502 120.831C88.6502 121.252 88.7542 121.578 88.9622 121.807C89.1755 122.031 89.4422 122.143 89.7622 122.143ZM92.6077 120.815C92.6077 120.367 92.6957 119.97 92.8717 119.623C93.0531 119.276 93.2984 119.01 93.6078 118.823C93.9171 118.636 94.2611 118.543 94.6398 118.543C94.9278 118.543 95.2024 118.607 95.4638 118.735C95.7251 118.858 95.9331 119.023 96.0878 119.231V117.127H97.2238V123.047H96.0878V122.391C95.9491 122.61 95.7544 122.786 95.5038 122.919C95.2531 123.052 94.9624 123.119 94.6318 123.119C94.2584 123.119 93.9171 123.023 93.6078 122.831C93.2984 122.639 93.0531 122.37 92.8717 122.023C92.6957 121.671 92.6077 121.268 92.6077 120.815ZM96.0958 120.831C96.0958 120.559 96.0424 120.327 95.9358 120.135C95.8291 119.938 95.6851 119.788 95.5038 119.687C95.3224 119.58 95.1278 119.527 94.9198 119.527C94.7118 119.527 94.5198 119.578 94.3438 119.679C94.1678 119.78 94.0238 119.93 93.9118 120.127C93.8051 120.319 93.7518 120.548 93.7518 120.815C93.7518 121.082 93.8051 121.316 93.9118 121.519C94.0238 121.716 94.1678 121.868 94.3438 121.975C94.5251 122.082 94.7171 122.135 94.9198 122.135C95.1278 122.135 95.3224 122.084 95.5038 121.983C95.6851 121.876 95.8291 121.727 95.9358 121.535C96.0424 121.338 96.0958 121.103 96.0958 120.831ZM102.438 120.735C102.438 120.895 102.427 121.039 102.406 121.167H99.1656C99.1923 121.487 99.3043 121.738 99.5016 121.919C99.699 122.1 99.9416 122.191 100.23 122.191C100.646 122.191 100.942 122.012 101.118 121.655H102.326C102.198 122.082 101.952 122.434 101.59 122.711C101.227 122.983 100.782 123.119 100.254 123.119C99.827 123.119 99.443 123.026 99.1016 122.839C98.7656 122.647 98.5016 122.378 98.3096 122.031C98.123 121.684 98.0296 121.284 98.0296 120.831C98.0296 120.372 98.123 119.97 98.3096 119.623C98.4963 119.276 98.7576 119.01 99.0936 118.823C99.4296 118.636 99.8163 118.543 100.254 118.543C100.675 118.543 101.051 118.634 101.382 118.815C101.718 118.996 101.976 119.255 102.158 119.591C102.344 119.922 102.438 120.303 102.438 120.735ZM101.278 120.415C101.272 120.127 101.168 119.898 100.966 119.727C100.763 119.551 100.515 119.463 100.222 119.463C99.9443 119.463 99.7096 119.548 99.5176 119.719C99.331 119.884 99.2163 120.116 99.1736 120.415H101.278ZM103.751 123.103C103.548 123.103 103.38 123.042 103.247 122.919C103.119 122.791 103.055 122.634 103.055 122.447C103.055 122.26 103.119 122.106 103.247 121.983C103.38 121.855 103.548 121.791 103.751 121.791C103.948 121.791 104.111 121.855 104.239 121.983C104.367 122.106 104.431 122.26 104.431 122.447C104.431 122.634 104.367 122.791 104.239 122.919C104.111 123.042 103.948 123.103 103.751 123.103ZM103.751 119.791C103.548 119.791 103.38 119.73 103.247 119.607C103.119 119.479 103.055 119.322 103.055 119.135C103.055 118.948 103.119 118.794 103.247 118.671C103.38 118.543 103.548 118.479 103.751 118.479C103.948 118.479 104.111 118.543 104.239 118.671C104.367 118.794 104.431 118.948 104.431 119.135C104.431 119.322 104.367 119.479 104.239 119.607C104.111 119.73 103.948 119.791 103.751 119.791ZM107.151 118.751C107.178 118.218 107.364 117.807 107.711 117.519C108.063 117.226 108.524 117.079 109.095 117.079C109.484 117.079 109.818 117.148 110.095 117.287C110.372 117.42 110.58 117.604 110.719 117.839C110.863 118.068 110.935 118.33 110.935 118.623C110.935 118.959 110.847 119.244 110.671 119.479C110.5 119.708 110.295 119.863 110.055 119.943V119.975C110.364 120.071 110.604 120.242 110.775 120.487C110.951 120.732 111.039 121.047 111.039 121.431C111.039 121.751 110.964 122.036 110.815 122.287C110.671 122.538 110.455 122.735 110.167 122.879C109.884 123.018 109.543 123.087 109.143 123.087C108.54 123.087 108.05 122.935 107.671 122.631C107.292 122.327 107.092 121.879 107.071 121.287H108.159C108.17 121.548 108.258 121.759 108.423 121.919C108.594 122.074 108.826 122.151 109.119 122.151C109.391 122.151 109.599 122.076 109.743 121.927C109.892 121.772 109.967 121.575 109.967 121.335C109.967 121.015 109.866 120.786 109.663 120.647C109.46 120.508 109.146 120.439 108.719 120.439H108.487V119.519H108.719C109.476 119.519 109.855 119.266 109.855 118.759C109.855 118.53 109.786 118.351 109.647 118.223C109.514 118.095 109.319 118.031 109.063 118.031C108.812 118.031 108.618 118.1 108.479 118.239C108.346 118.372 108.268 118.543 108.247 118.751H107.151ZM111.788 118.247V117.215H113.716V123.047H112.564V118.247H111.788ZM114.838 118.751C114.865 118.218 115.052 117.807 115.398 117.519C115.75 117.226 116.212 117.079 116.782 117.079C117.172 117.079 117.505 117.148 117.782 117.287C118.06 117.42 118.268 117.604 118.406 117.839C118.55 118.068 118.622 118.33 118.622 118.623C118.622 118.959 118.534 119.244 118.358 119.479C118.188 119.708 117.982 119.863 117.742 119.943V119.975C118.052 120.071 118.292 120.242 118.462 120.487C118.638 120.732 118.726 121.047 118.726 121.431C118.726 121.751 118.652 122.036 118.502 122.287C118.358 122.538 118.142 122.735 117.854 122.879C117.572 123.018 117.23 123.087 116.83 123.087C116.228 123.087 115.737 122.935 115.358 122.631C114.98 122.327 114.78 121.879 114.758 121.287H115.846C115.857 121.548 115.945 121.759 116.11 121.919C116.281 122.074 116.513 122.151 116.806 122.151C117.078 122.151 117.286 122.076 117.43 121.927C117.58 121.772 117.654 121.575 117.654 121.335C117.654 121.015 117.553 120.786 117.35 120.647C117.148 120.508 116.833 120.439 116.406 120.439H116.174V119.519H116.406C117.164 119.519 117.542 119.266 117.542 118.759C117.542 118.53 117.473 118.351 117.334 118.223C117.201 118.095 117.006 118.031 116.75 118.031C116.5 118.031 116.305 118.1 116.166 118.239C116.033 118.372 115.956 118.543 115.934 118.751H114.838ZM119.612 120.055C119.612 119.132 119.777 118.41 120.108 117.887C120.444 117.364 120.998 117.103 121.772 117.103C122.545 117.103 123.097 117.364 123.428 117.887C123.764 118.41 123.932 119.132 123.932 120.055C123.932 120.983 123.764 121.711 123.428 122.239C123.097 122.767 122.545 123.031 121.772 123.031C120.998 123.031 120.444 122.767 120.108 122.239C119.777 121.711 119.612 120.983 119.612 120.055ZM122.828 120.055C122.828 119.66 122.801 119.33 122.748 119.063C122.7 118.791 122.598 118.57 122.444 118.399C122.294 118.228 122.07 118.143 121.772 118.143C121.473 118.143 121.246 118.228 121.092 118.399C120.942 118.57 120.841 118.791 120.788 119.063C120.74 119.33 120.716 119.66 120.716 120.055C120.716 120.46 120.74 120.802 120.788 121.079C120.836 121.351 120.937 121.572 121.092 121.743C121.246 121.908 121.473 121.991 121.772 121.991C122.07 121.991 122.297 121.908 122.452 121.743C122.606 121.572 122.708 121.351 122.756 121.079C122.804 120.802 122.828 120.46 122.828 120.055ZM124.783 120.055C124.783 119.132 124.949 118.41 125.279 117.887C125.615 117.364 126.17 117.103 126.943 117.103C127.717 117.103 128.269 117.364 128.599 117.887C128.935 118.41 129.103 119.132 129.103 120.055C129.103 120.983 128.935 121.711 128.599 122.239C128.269 122.767 127.717 123.031 126.943 123.031C126.17 123.031 125.615 122.767 125.279 122.239C124.949 121.711 124.783 120.983 124.783 120.055ZM127.999 120.055C127.999 119.66 127.973 119.33 127.919 119.063C127.871 118.791 127.77 118.57 127.615 118.399C127.466 118.228 127.242 118.143 126.943 118.143C126.645 118.143 126.418 118.228 126.263 118.399C126.114 118.57 126.013 118.791 125.959 119.063C125.911 119.33 125.887 119.66 125.887 120.055C125.887 120.46 125.911 120.802 125.959 121.079C126.007 121.351 126.109 121.572 126.263 121.743C126.418 121.908 126.645 121.991 126.943 121.991C127.242 121.991 127.469 121.908 127.623 121.743C127.778 121.572 127.879 121.351 127.927 121.079C127.975 120.802 127.999 120.46 127.999 120.055ZM129.819 118.247V117.215H131.747V123.047H130.595V118.247H129.819Z" fill="#793A8B"/>
</svg>
