<svg width="196" height="197" viewBox="0 0 196 197" fill="none" xmlns="http://www.w3.org/2000/svg">
<circle cx="98" cy="99" r="95" fill="white" stroke="#7A3D89" stroke-width="6"/>
<circle cx="97.5" cy="97.5" r="63.9" fill="white" stroke="#7A3D89" stroke-width="3.2" stroke-dasharray="12 12"/>
<rect x="17" y="85" width="12" height="12" fill="#F2E7ED"/>
<rect x="7" y="94" width="12" height="12" fill="#F2E7ED"/>
<rect x="17" y="106" width="12" height="12" fill="#F2E7ED"/>
<rect x="7" y="111" width="12" height="12" fill="#F2E7ED"/>
<rect x="17" y="117" width="12" height="12" fill="#F2E7ED"/>
<rect x="23" y="127" width="12" height="12" fill="#F2E7ED"/>
<rect x="17" y="133" width="12" height="12" fill="#F2E7ED"/>
<rect x="33" y="136" width="12" height="12" fill="#F2E7ED"/>
<rect x="25" y="145" width="12" height="12" fill="#F2E7ED"/>
<rect x="35" y="156" width="12" height="12" fill="#F2E7ED"/>
<rect x="37" y="148" width="12" height="12" fill="#F2E7ED"/>
<rect x="48" y="154" width="12" height="12" fill="#F2E7ED"/>
<rect x="57" y="164" width="12" height="12" fill="#F2E7ED"/>
<rect x="47" y="162" width="12" height="12" fill="#F2E7ED"/>
<rect x="71" y="162" width="12" height="12" fill="#F2E7ED"/>
<rect x="65" y="174" width="12" height="12" fill="#F2E7ED"/>
<rect x="75" y="174" width="12" height="12" fill="#F2E7ED"/>
<rect x="87" y="176" width="12" height="12" fill="#F2E7ED"/>
<rect x="87" y="166" width="12" height="12" fill="#F2E7ED"/>
<rect x="99" y="164" width="12" height="12" fill="#F2E7ED"/>
<rect x="99" y="174" width="12" height="12" fill="#F2E7ED"/>
<rect x="114" y="163" width="12" height="12" fill="#F2E7ED"/>
<rect x="112" y="172" width="12" height="12" fill="#F2E7ED"/>
<rect x="123" y="158" width="12" height="12" fill="#F2E7ED"/>
<rect x="132" y="152" width="12" height="12" fill="#F2E7ED"/>
<rect x="141" y="148" width="12" height="12" fill="#F2E7ED"/>
<rect x="150" y="136" width="12" height="12" fill="#F2E7ED"/>
<rect x="157" y="128" width="12" height="12" fill="#F2E7ED"/>
<rect x="161" y="118" width="12" height="12" fill="#F2E7ED"/>
<rect x="169" y="121" width="12" height="12" fill="#F2E7ED"/>
<rect x="166" y="134" width="12" height="12" fill="#F2E7ED"/>
<rect x="157" y="142" width="11" height="12" fill="#F2E7ED"/>
<rect x="150" y="156" width="11" height="12" fill="#F2E7ED"/>
<rect x="138" y="162" width="11" height="12" fill="#F2E7ED"/>
<rect x="124" y="168" width="11" height="12" fill="#F2E7ED"/>
<rect x="11" y="73" width="12" height="12" fill="#F2E7ED"/>
<rect x="17" y="61" width="12" height="12" fill="#F2E7ED"/>
<rect x="24" y="49" width="12" height="12" fill="#F2E7ED"/>
<rect x="30" y="40" width="12" height="12" fill="#F2E7ED"/>
<rect x="33" y="46" width="12" height="12" fill="#F2E7ED"/>
<rect x="35" y="34" width="12" height="12" fill="#F2E7ED"/>
<rect x="44" y="26" width="12" height="12" fill="#F2E7ED"/>
<rect x="51" y="26" width="12" height="12" fill="#F2E7ED"/>
<rect x="52" y="22" width="12" height="12" fill="#F2E7ED"/>
<rect x="59" y="16" width="12" height="12" fill="#F2E7ED"/>
<rect x="65" y="20" width="12" height="12" fill="#F2E7ED"/>
<rect x="71" y="15" width="12" height="12" fill="#F2E7ED"/>
<rect x="75" y="16" width="12" height="12" fill="#F2E7ED"/>
<rect x="81" y="10" width="12" height="12" fill="#F2E7ED"/>
<rect x="85" y="14" width="12" height="12" fill="#F2E7ED"/>
<rect x="98" y="10" width="12" height="12" fill="#F2E7ED"/>
<rect x="109" y="16" width="12" height="12" fill="#F2E7ED"/>
<rect x="120" y="15" width="12" height="12" fill="#F2E7ED"/>
<rect x="129" y="26" width="12" height="12" fill="#F2E7ED"/>
<rect x="137" y="26" width="12" height="12" fill="#F2E7ED"/>
<rect x="143" y="40" width="12" height="12" fill="#F2E7ED"/>
<rect x="155" y="38" width="12" height="12" fill="#F2E7ED"/>
<rect x="156" y="50" width="12" height="12" fill="#F2E7ED"/>
<rect x="167" y="54" width="12" height="12" fill="#F2E7ED"/>
<rect x="162" y="67" width="12" height="12" fill="#F2E7ED"/>
<rect x="173" y="73" width="12" height="12" fill="#F2E7ED"/>
<rect x="167" y="81" width="12" height="12" fill="#F2E7ED"/>
<rect x="175" y="89" width="12" height="12" fill="#F2E7ED"/>
<rect x="168" y="99" width="12" height="12" fill="#F2E7ED"/>
<rect x="173" y="106" width="12" height="12" fill="#F2E7ED"/>
<path d="M17.5 98L20.3064 106.637H29.3882L22.0409 111.975L24.8473 120.613L17.5 115.275L10.1527 120.613L12.9591 111.975L5.61179 106.637H14.6936L17.5 98Z" fill="#793A8B"/>
<path d="M29.5 129L32.3064 137.637H41.3882L34.0409 142.975L36.8473 151.613L29.5 146.275L22.1527 151.613L24.9591 142.975L17.6118 137.637H26.6936L29.5 129Z" fill="#793A8B"/>
<path d="M175.5 98L178.306 106.637H187.388L180.041 111.975L182.847 120.613L175.5 115.275L168.153 120.613L170.959 111.975L163.612 106.637H172.694L175.5 98Z" fill="#793A8B"/>
<path d="M163.5 129L166.306 137.637H175.388L168.041 142.975L170.847 151.613L163.5 146.275L156.153 151.613L158.959 142.975L151.612 137.637H160.694L163.5 129Z" fill="#793A8B"/>
<path d="M138.5 154L141.306 162.637H150.388L143.041 167.975L145.847 176.613L138.5 171.275L131.153 176.613L133.959 167.975L126.612 162.637H135.694L138.5 154Z" fill="#793A8B"/>
<path d="M54.5 154L57.3064 162.637H66.3882L59.0409 167.975L61.8473 176.613L54.5 171.275L47.1527 176.613L49.9591 167.975L42.6118 162.637H51.6936L54.5 154Z" fill="#793A8B"/>
<path d="M100.5 166L103.306 174.637H112.388L105.041 179.975L107.847 188.613L100.5 183.275L93.1527 188.613L95.9591 179.975L88.6118 174.637H97.6936L100.5 166Z" fill="#793A8B"/>
<path d="M33.9231 52.6527C33.2205 51.9965 32.7395 51.2536 32.48 50.4238C32.22 49.5808 32.1914 48.7432 32.3941 47.9108C32.5963 47.0652 33.0159 46.3014 33.6529 45.6192C34.3983 44.8212 35.2559 44.3131 36.2257 44.095C37.1956 43.877 38.1535 43.9862 39.0995 44.4227L37.5611 46.0701C37.0672 45.9152 36.5948 45.9083 36.1439 46.0492C35.6995 46.1832 35.2957 46.4447 34.9326 46.8335C34.544 47.2496 34.2957 47.7137 34.1878 48.2259C34.0794 48.7248 34.1165 49.232 34.2992 49.7475C34.4883 50.2561 34.8216 50.7333 35.2991 51.1793C35.7698 51.6188 36.2687 51.9187 36.7958 52.079C37.3225 52.2261 37.8345 52.2317 38.3317 52.0958C38.8285 51.9468 39.2712 51.6642 39.6598 51.2481C40.0229 50.8593 40.2561 50.4386 40.3595 49.986C40.4624 49.5203 40.4198 49.0463 40.2317 48.564L41.7701 46.9167C42.277 47.8371 42.4548 48.7885 42.3035 49.771C42.1517 50.7403 41.7 51.6274 40.9483 52.4323C40.3113 53.1144 39.5813 53.5884 38.7583 53.8543C37.9349 54.107 37.0973 54.1356 36.2453 53.9402C35.3998 53.738 34.6257 53.3088 33.9231 52.6527Z" fill="#793A8B"/>
<path d="M20.9229 68.8165L22.4185 69.3321L21.5698 71.7939L29.3125 74.4634L28.6737 76.3163L20.9309 73.6469L20.0822 76.1086L18.5866 75.593L20.9229 68.8165Z" fill="#793A8B"/>
<path d="M32.7097 65.0899L28.3471 65.4328L27.9563 66.2701L31.4069 67.8808L30.5778 69.6569L21.723 65.5235L23.2745 62.1998C23.5943 61.5147 23.9893 60.9884 24.4596 60.6209C24.9214 60.2493 25.4148 60.0419 25.9398 59.9985C26.4602 59.9428 26.9742 60.0333 27.4816 60.2702C28.0651 60.5426 28.5148 60.9585 28.8305 61.5178C29.1377 62.0732 29.2242 62.7265 29.0899 63.4775L33.669 63.0348L32.7097 65.0899ZM26.6243 65.6483L27.3171 64.1641C27.5421 63.682 27.5957 63.2693 27.4779 62.9259C27.3517 62.5785 27.0813 62.3082 26.6669 62.1147C26.261 61.9252 25.8928 61.8976 25.5624 62.0317C25.2235 62.1619 24.9415 62.4681 24.7165 62.9501L24.0237 64.4344L26.6243 65.6483Z" fill="#793A8B"/>
<path d="M28.2691 53.6037L36.8954 58.1949L35.9746 59.9251L27.3482 55.334L28.2691 53.6037Z" fill="#793A8B"/>
<path d="M49.3062 43.2795L43.7217 42.635L46.7559 45.7576L45.3503 47.1235L38.5402 40.1153L39.9459 38.7494L42.9997 41.892L42.4962 36.2712L44.193 34.6224L44.6771 40.9062L51.0834 41.5526L49.3062 43.2795Z" fill="#793A8B"/>
<path d="M53.3762 37.5624L55.9938 35.6871L56.8989 36.9504L52.6879 39.9671L46.9969 32.0233L48.5903 30.8818L53.3762 37.5624Z" fill="#793A8B"/>
<path d="M55.992 25.5707L60.9575 33.9871L59.2694 34.983L54.3039 26.5666L55.992 25.5707Z" fill="#793A8B"/>
<path d="M71.9377 30.1471L70.0471 30.664L63.9978 25.3656L65.7661 31.8342L63.8755 32.3511L61.295 22.9114L63.1856 22.3946L69.2386 27.7065L67.4665 21.2243L69.3572 20.7075L71.9377 30.1471Z" fill="#793A8B"/>
<path d="M76.5685 19.9277L76.9853 22.3419L80.2274 21.7821L80.4918 23.3135L77.2498 23.8733L77.6905 26.4255L81.3464 25.7942L81.6179 27.367L76.0306 28.3317L74.3655 18.6884L79.9528 17.7237L80.2244 19.2964L76.5685 19.9277Z" fill="#793A8B"/>
<path d="M104.21 18.8714L104.161 21.3209L107.45 21.3871L107.419 22.9408L104.13 22.8746L104.078 25.4641L107.787 25.5387L107.755 27.1344L102.086 27.0203L102.283 17.2363L107.952 17.3503L107.92 18.946L104.21 18.8714Z" fill="#793A8B"/>
<path d="M170.249 84.9826C169.929 84.381 169.743 83.7823 169.69 83.1866C169.642 82.5991 169.737 82.0622 169.976 81.5761C170.214 81.09 170.595 80.7026 171.118 80.4139L172.103 82.2681C171.762 82.4812 171.548 82.7538 171.46 83.0859C171.377 83.4262 171.44 83.7941 171.651 84.1896C171.865 84.5934 172.129 84.8603 172.441 84.9903C172.761 85.1159 173.078 85.0954 173.391 84.9289C173.647 84.7931 173.815 84.603 173.897 84.3588C173.979 84.1146 174.001 83.8489 173.965 83.5617C173.941 83.2784 173.877 82.9001 173.773 82.4267C173.64 81.7787 173.558 81.2359 173.526 80.7982C173.507 80.3645 173.59 79.9344 173.775 79.5081C173.974 79.0856 174.345 78.7298 174.889 78.4406C175.399 78.1689 175.912 78.06 176.427 78.1139C176.942 78.1678 177.421 78.3729 177.864 78.7293C178.316 79.0812 178.699 79.5538 179.015 80.1472C179.488 81.0372 179.653 81.8744 179.51 82.6588C179.379 83.447 178.942 84.0759 178.198 84.5455L177.186 82.6418C177.474 82.4676 177.649 82.2106 177.711 81.8708C177.786 81.5349 177.721 81.1733 177.515 80.786C177.335 80.4481 177.104 80.2222 176.822 80.1082C176.544 80.0024 176.24 80.0372 175.91 80.2124C175.679 80.3351 175.525 80.5123 175.447 80.7439C175.382 80.9793 175.359 81.2346 175.379 81.5096C175.411 81.7886 175.475 82.1669 175.57 82.6447C175.703 83.2927 175.782 83.8377 175.805 84.2797C175.829 84.7217 175.744 85.1581 175.55 85.5888C175.356 86.0195 174.991 86.3773 174.456 86.6621C173.994 86.9075 173.502 87.0159 172.98 86.9872C172.457 86.9585 171.953 86.777 171.469 86.4426C170.993 86.1038 170.586 85.6171 170.249 84.9826Z" fill="#793A8B"/>
<path d="M163.323 66.7732C162.903 66.2362 162.616 65.679 162.461 65.1014C162.311 64.5311 162.312 63.986 162.462 63.4658C162.612 62.9457 162.92 62.4981 163.385 62.123L164.678 63.778C164.379 64.0471 164.215 64.3528 164.186 64.695C164.163 65.0446 164.29 65.3959 164.565 65.7489C164.847 66.1093 165.153 66.3264 165.483 66.4002C165.82 66.4683 166.129 66.3931 166.408 66.1748C166.636 65.9967 166.769 65.7803 166.807 65.5256C166.845 65.271 166.821 65.0054 166.735 64.7289C166.663 64.454 166.534 64.0925 166.35 63.6443C166.106 63.0292 165.931 62.5089 165.824 62.0835C165.729 61.6597 165.737 61.2217 165.845 60.7696C165.967 60.3191 166.271 59.9043 166.756 59.5251C167.212 59.1689 167.699 58.9726 168.215 58.9363C168.732 58.9 169.239 59.0189 169.737 59.2929C170.243 59.5611 170.702 59.96 171.116 60.4896C171.737 61.2839 172.044 62.0798 172.04 62.8771C172.048 63.676 171.726 64.3713 171.075 64.9629L169.748 63.2638C170.001 63.0423 170.129 62.7588 170.132 62.4133C170.147 62.0695 170.02 61.7247 169.75 61.379C169.515 61.0774 169.248 60.8951 168.95 60.8318C168.657 60.776 168.364 60.8629 168.07 61.0928C167.864 61.2537 167.743 61.4549 167.706 61.6964C167.683 61.9396 167.705 62.195 167.772 62.4625C167.852 62.7316 167.98 63.0932 168.157 63.5471C168.401 64.1622 168.573 64.6853 168.673 65.1165C168.773 65.5477 168.764 65.9922 168.648 66.45C168.532 66.9079 168.235 67.3235 167.757 67.697C167.345 68.0188 166.879 68.2109 166.36 68.2734C165.84 68.3359 165.313 68.2445 164.778 67.9992C164.25 67.7482 163.765 67.3395 163.323 66.7732Z" fill="#793A8B"/>
<path d="M131.356 21.8641L130.841 23.3599L128.379 22.5121L125.713 30.2559L123.86 29.6178L126.526 21.874L124.064 21.0262L124.579 19.5304L131.356 21.8641Z" fill="#793A8B"/>
<path d="M136.37 26.4417L135.195 28.5919L138.083 30.1689L137.338 31.5328L134.451 29.9557L133.209 32.2287L136.465 34.0071L135.7 35.4078L130.724 32.6898L135.415 24.1015L140.391 26.8194L139.626 28.2201L136.37 26.4417Z" fill="#793A8B"/>
<path d="M142.438 40.525L143.136 36.205L142.415 35.6274L140.034 38.5997L138.504 37.3745L144.613 29.747L147.476 32.0399C148.066 32.5125 148.484 33.0207 148.73 33.5645C148.982 34.101 149.067 34.6295 148.985 35.1498C148.916 35.6687 148.707 36.1467 148.357 36.5838C147.954 37.0864 147.444 37.4251 146.826 37.5997C146.214 37.767 145.558 37.6967 144.86 37.3887L144.209 41.9427L142.438 40.525ZM143.334 34.48L144.612 35.5039C145.027 35.8365 145.416 35.9861 145.777 35.9527C146.145 35.9121 146.471 35.7133 146.757 35.3563C147.037 35.0067 147.151 34.6554 147.099 34.3027C147.052 33.9426 146.821 33.5963 146.406 33.2637L145.128 32.2398L143.334 34.48Z" fill="#793A8B"/>
<path d="M156.443 55.1698L158.045 51.0979L157.464 50.3798L154.505 52.7762L153.271 51.253L160.865 45.1033L163.174 47.9539C163.649 48.5414 163.95 49.1271 164.074 49.7108C164.206 50.2887 164.176 50.8231 163.985 51.314C163.807 51.8063 163.501 52.2287 163.066 52.5811C162.565 52.9864 161.994 53.2084 161.353 53.2472C160.719 53.2801 160.094 53.0717 159.478 52.6221L157.87 56.9324L156.443 55.1698ZM158.606 49.4547L159.637 50.7276C159.972 51.1411 160.319 51.3701 160.68 51.4146C161.047 51.4532 161.409 51.3286 161.764 51.0408C162.112 50.7589 162.299 50.44 162.323 50.0842C162.354 49.7225 162.202 49.3349 161.868 48.9215L160.837 47.6485L158.606 49.4547Z" fill="#793A8B"/>
<path d="M155.704 44.62C155.338 44.9931 154.905 45.2547 154.404 45.4048C153.911 45.5613 153.376 45.5533 152.8 45.3807C152.231 45.2146 151.66 44.8505 151.087 44.2884L149.918 43.1414L147.29 45.82L145.891 44.4475L152.734 37.4712L155.302 39.9907C155.842 40.5201 156.21 41.0643 156.407 41.6234C156.604 42.1825 156.636 42.7168 156.502 43.2263C156.375 43.7423 156.109 44.2069 155.704 44.62ZM152.135 43.1002C152.521 43.4793 152.893 43.6737 153.249 43.6834C153.612 43.6865 153.951 43.5282 154.264 43.2083C154.931 42.5287 154.885 41.8163 154.125 41.0713L153.016 39.9831L151.025 42.012L152.135 43.1002Z" fill="#793A8B"/>
<path d="M167.711 55.4117L159.61 60.8762L158.514 59.2512L166.615 53.7868L167.711 55.4117Z" fill="#793A8B"/>
<path d="M118.834 28.5983L116.895 28.3134L113.478 21.0336L112.504 27.6683L110.565 27.3835L111.987 17.7014L113.926 17.9863L117.34 25.2799L118.317 18.6313L120.256 18.9162L118.834 28.5983Z" fill="#793A8B"/>
<path d="M173.752 71.0015L171.63 72.2265L173.275 75.0757L171.929 75.8527L170.284 73.0035L168.041 74.2985L169.896 77.5114L168.514 78.3094L165.679 73.3991L174.154 68.5061L176.989 73.4164L175.607 74.2144L173.752 71.0015Z" fill="#793A8B"/>
<path d="M57.4744 75.3885L56.4197 75.5036C56.3899 75.397 56.3377 75.2969 56.2631 75.2031C56.1907 75.1094 56.0927 75.0337 55.9691 74.9762C55.8455 74.9187 55.6942 74.8899 55.5153 74.8899C55.2745 74.8899 55.0721 74.9421 54.908 75.0465C54.7461 75.1509 54.6662 75.2862 54.6683 75.4524C54.6662 75.5952 54.7184 75.7113 54.8249 75.8008C54.9336 75.8903 55.1126 75.9638 55.3619 76.0213L56.1992 76.2003C56.6637 76.3004 57.0089 76.4592 57.2347 76.6765C57.4627 76.8938 57.5778 77.1783 57.5799 77.5298C57.5778 77.8388 57.4872 78.1115 57.3082 78.348C57.1314 78.5824 56.8853 78.7656 56.57 78.8977C56.2546 79.0298 55.8924 79.0959 55.4833 79.0959C54.8825 79.0959 54.3988 78.9702 54.0323 78.7188C53.6658 78.4652 53.4474 78.1126 53.3771 77.6609L54.5053 77.5522C54.5565 77.7738 54.6651 77.9411 54.8313 78.054C54.9975 78.1669 55.2138 78.2234 55.4801 78.2234C55.755 78.2234 55.9755 78.1669 56.1417 78.054C56.31 77.9411 56.3942 77.8015 56.3942 77.6353C56.3942 77.4947 56.3398 77.3786 56.2312 77.2869C56.1246 77.1953 55.9585 77.125 55.7326 77.076L54.8952 76.9002C54.4244 76.8022 54.076 76.6371 53.8501 76.4048C53.6243 76.1705 53.5124 75.8743 53.5146 75.5163C53.5124 75.2138 53.5945 74.9517 53.7607 74.7301C53.929 74.5064 54.1623 74.3338 54.4606 74.2124C54.761 74.0888 55.1072 74.027 55.4993 74.027C56.0746 74.027 56.5273 74.1495 56.8576 74.3945C57.19 74.6396 57.3956 74.9709 57.4744 75.3885ZM59.6909 76.1236V79H58.5339V72.4545H59.6653V74.9251H59.7228C59.8379 74.6481 60.0158 74.4297 60.2566 74.2699C60.4995 74.108 60.8084 74.027 61.1834 74.027C61.5243 74.027 61.8216 74.0984 62.0751 74.2411C62.3287 74.3839 62.5247 74.5927 62.6632 74.8675C62.8038 75.1424 62.8741 75.478 62.8741 75.8743V79H61.7172V76.0533C61.7172 75.723 61.6319 75.4663 61.4615 75.283C61.2931 75.0977 61.0566 75.005 60.752 75.005C60.5474 75.005 60.3642 75.0497 60.2022 75.1392C60.0424 75.2266 59.9167 75.3533 59.8251 75.5195C59.7356 75.6857 59.6909 75.8871 59.6909 76.1236ZM64.0534 79V74.0909H65.2104V79H64.0534ZM64.6351 73.3942C64.4519 73.3942 64.2942 73.3335 64.1621 73.212C64.03 73.0884 63.964 72.9403 63.964 72.7678C63.964 72.593 64.03 72.445 64.1621 72.3235C64.2942 72.1999 64.4519 72.1381 64.6351 72.1381C64.8205 72.1381 64.9782 72.1999 65.1081 72.3235C65.2402 72.445 65.3063 72.593 65.3063 72.7678C65.3063 72.9403 65.2402 73.0884 65.1081 73.212C64.9782 73.3335 64.8205 73.3942 64.6351 73.3942ZM70.7851 74.0909L69.0368 79H67.7584L66.0102 74.0909H67.2439L68.3721 77.7376H68.4232L69.5546 74.0909H70.7851ZM72.7426 76.1236V79H71.5857V74.0909H72.6915V74.9251H72.749C72.8619 74.6502 73.042 74.4318 73.2892 74.2699C73.5384 74.108 73.8463 74.027 74.2128 74.027C74.5516 74.027 74.8467 74.0994 75.0981 74.2443C75.3517 74.3892 75.5477 74.5991 75.6862 74.8739C75.8268 75.1488 75.896 75.4822 75.8939 75.8743V79H74.7369V76.0533C74.7369 75.7251 74.6517 75.4684 74.4813 75.283C74.3129 75.0977 74.0796 75.005 73.7813 75.005C73.5789 75.005 73.3989 75.0497 73.2412 75.1392C73.0857 75.2266 72.9632 75.3533 72.8737 75.5195C72.7863 75.6857 72.7426 75.8871 72.7426 76.1236ZM78.4827 79.0991C78.1716 79.0991 77.8914 79.0437 77.6421 78.9329C77.395 78.82 77.199 78.6538 77.0541 78.4343C76.9113 78.2148 76.8399 77.9442 76.8399 77.6225C76.8399 77.3455 76.8911 77.1165 76.9933 76.9354C77.0956 76.7543 77.2352 76.6094 77.412 76.5007C77.5889 76.392 77.7881 76.31 78.0097 76.2546C78.2334 76.1971 78.4646 76.1555 78.7032 76.13C78.9909 76.1001 79.2242 76.0735 79.4031 76.0501C79.5821 76.0245 79.7121 75.9862 79.7931 75.935C79.8762 75.8817 79.9177 75.7997 79.9177 75.6889V75.6697C79.9177 75.429 79.8463 75.2425 79.7036 75.1104C79.5608 74.9783 79.3552 74.9123 79.0867 74.9123C78.8034 74.9123 78.5786 74.9741 78.4124 75.0977C78.2483 75.2212 78.1375 75.3672 78.08 75.5355L76.9997 75.3821C77.085 75.0838 77.2256 74.8345 77.4216 74.6342C77.6176 74.4318 77.8573 74.2805 78.1407 74.1804C78.4241 74.0781 78.7373 74.027 79.0803 74.027C79.3169 74.027 79.5523 74.0547 79.7867 74.1101C80.021 74.1655 80.2352 74.2571 80.4291 74.3849C80.623 74.5107 80.7785 74.6822 80.8957 74.8995C81.015 75.1168 81.0747 75.3885 81.0747 75.7145V79H79.9624V78.3256H79.9241C79.8538 78.462 79.7547 78.5898 79.6269 78.7092C79.5012 78.8263 79.3424 78.9212 79.1507 78.9936C78.961 79.0639 78.7384 79.0991 78.4827 79.0991ZM78.7831 78.2489C79.0154 78.2489 79.2167 78.2031 79.3872 78.1115C79.5576 78.0178 79.6887 77.8942 79.7803 77.7408C79.874 77.5874 79.9209 77.4201 79.9209 77.239V76.6605C79.8847 76.6903 79.8229 76.718 79.7355 76.7436C79.6503 76.7692 79.5544 76.7915 79.4479 76.8107C79.3414 76.8299 79.2359 76.8469 79.1315 76.8619C79.0271 76.8768 78.9365 76.8896 78.8598 76.9002C78.6872 76.9237 78.5328 76.962 78.3964 77.0153C78.26 77.0685 78.1524 77.1431 78.0736 77.239C77.9948 77.3327 77.9553 77.4542 77.9553 77.6033C77.9553 77.8164 78.0331 77.9773 78.1887 78.0859C78.3442 78.1946 78.5423 78.2489 78.7831 78.2489ZM84.6894 74.0909V74.9858H81.8673V74.0909H84.6894ZM82.564 72.9148H83.721V77.5234C83.721 77.679 83.7444 77.7983 83.7913 77.8814C83.8403 77.9624 83.9042 78.0178 83.983 78.0476C84.0619 78.0774 84.1492 78.0923 84.2451 78.0923C84.3176 78.0923 84.3836 78.087 84.4433 78.0763C84.5051 78.0657 84.5519 78.0561 84.5839 78.0476L84.7789 78.9521C84.7171 78.9734 84.6286 78.9968 84.5136 79.0224C84.4007 79.0479 84.2622 79.0629 84.0981 79.0671C83.8083 79.0756 83.5473 79.032 83.3151 78.9361C83.0828 78.8381 82.8985 78.6868 82.7622 78.4822C82.6279 78.2777 82.5619 78.022 82.564 77.7152V72.9148ZM86.9194 76.1236V79H85.7624V72.4545H86.8938V74.9251H86.9513C87.0664 74.6481 87.2443 74.4297 87.4851 74.2699C87.728 74.108 88.0369 74.027 88.4119 74.027C88.7528 74.027 89.0501 74.0984 89.3036 74.2411C89.5572 74.3839 89.7532 74.5927 89.8917 74.8675C90.0323 75.1424 90.1026 75.478 90.1026 75.8743V79H88.9457V76.0533C88.9457 75.723 88.8604 75.4663 88.69 75.283C88.5217 75.0977 88.2852 75.005 87.9805 75.005C87.7759 75.005 87.5927 75.0497 87.4308 75.1392C87.271 75.2266 87.1452 75.3533 87.0536 75.5195C86.9641 75.6857 86.9194 75.8871 86.9194 76.1236ZM94.927 79.0991C94.6159 79.0991 94.3358 79.0437 94.0865 78.9329C93.8393 78.82 93.6433 78.6538 93.4984 78.4343C93.3556 78.2148 93.2843 77.9442 93.2843 77.6225C93.2843 77.3455 93.3354 77.1165 93.4377 76.9354C93.54 76.7543 93.6795 76.6094 93.8564 76.5007C94.0332 76.392 94.2324 76.31 94.454 76.2546C94.6777 76.1971 94.9089 76.1555 95.1475 76.13C95.4352 76.1001 95.6685 76.0735 95.8475 76.0501C96.0265 76.0245 96.1564 75.9862 96.2374 75.935C96.3205 75.8817 96.362 75.7997 96.362 75.6889V75.6697C96.362 75.429 96.2907 75.2425 96.1479 75.1104C96.0051 74.9783 95.7995 74.9123 95.5311 74.9123C95.2477 74.9123 95.0229 74.9741 94.8567 75.0977C94.6926 75.2212 94.5819 75.3672 94.5243 75.5355L93.4441 75.3821C93.5293 75.0838 93.6699 74.8345 93.8659 74.6342C94.062 74.4318 94.3017 74.2805 94.585 74.1804C94.8684 74.0781 95.1816 74.027 95.5247 74.027C95.7612 74.027 95.9966 74.0547 96.231 74.1101C96.4654 74.1655 96.6795 74.2571 96.8734 74.3849C97.0673 74.5107 97.2228 74.6822 97.34 74.8995C97.4593 75.1168 97.519 75.3885 97.519 75.7145V79H96.4068V78.3256H96.3684C96.2981 78.462 96.199 78.5898 96.0712 78.7092C95.9455 78.8263 95.7868 78.9212 95.595 78.9936C95.4054 79.0639 95.1827 79.0991 94.927 79.0991ZM95.2275 78.2489C95.4597 78.2489 95.661 78.2031 95.8315 78.1115C96.002 78.0178 96.133 77.8942 96.2246 77.7408C96.3184 77.5874 96.3652 77.4201 96.3652 77.239V76.6605C96.329 76.6903 96.2672 76.718 96.1799 76.7436C96.0946 76.7692 95.9988 76.7915 95.8922 76.8107C95.7857 76.8299 95.6802 76.8469 95.5758 76.8619C95.4714 76.8768 95.3809 76.8896 95.3042 76.9002C95.1316 76.9237 94.9771 76.962 94.8407 77.0153C94.7044 77.0685 94.5968 77.1431 94.5179 77.239C94.4391 77.3327 94.3997 77.4542 94.3997 77.6033C94.3997 77.8164 94.4775 77.9773 94.633 78.0859C94.7885 78.1946 94.9867 78.2489 95.2275 78.2489ZM98.6824 80.8409V74.0909H99.8201V74.9027H99.8873C99.9469 74.7834 100.031 74.6566 100.14 74.5224C100.248 74.386 100.395 74.2699 100.581 74.174C100.766 74.076 101.003 74.027 101.29 74.027C101.67 74.027 102.012 74.1239 102.316 74.3178C102.623 74.5096 102.866 74.794 103.045 75.1712C103.226 75.5462 103.317 76.0064 103.317 76.5518C103.317 77.0909 103.228 77.549 103.051 77.9261C102.874 78.3033 102.634 78.5909 102.329 78.7891C102.024 78.9872 101.679 79.0863 101.294 79.0863C101.012 79.0863 100.779 79.0394 100.594 78.9457C100.408 78.8519 100.259 78.739 100.146 78.6069C100.035 78.4727 99.949 78.3459 99.8873 78.2266H99.8393V80.8409H98.6824ZM99.8169 76.5455C99.8169 76.8629 99.8617 77.141 99.9512 77.3796C100.043 77.6183 100.174 77.8047 100.344 77.9389C100.517 78.071 100.726 78.1371 100.971 78.1371C101.226 78.1371 101.441 78.0689 101.613 77.9325C101.786 77.794 101.916 77.6055 102.003 77.3668C102.093 77.1261 102.137 76.8523 102.137 76.5455C102.137 76.2408 102.094 75.9702 102.006 75.7337C101.919 75.4972 101.789 75.3118 101.616 75.1776C101.444 75.0433 101.229 74.9762 100.971 74.9762C100.724 74.9762 100.514 75.0412 100.341 75.1712C100.169 75.3011 100.037 75.4833 99.948 75.7177C99.8606 75.9521 99.8169 76.228 99.8169 76.5455ZM104.307 80.8409V74.0909H105.445V74.9027H105.512C105.572 74.7834 105.656 74.6566 105.765 74.5224C105.873 74.386 106.02 74.2699 106.206 74.174C106.391 74.076 106.628 74.027 106.915 74.027C107.295 74.027 107.637 74.1239 107.941 74.3178C108.248 74.5096 108.491 74.794 108.67 75.1712C108.851 75.5462 108.942 76.0064 108.942 76.5518C108.942 77.0909 108.853 77.549 108.676 77.9261C108.499 78.3033 108.259 78.5909 107.954 78.7891C107.649 78.9872 107.304 79.0863 106.919 79.0863C106.637 79.0863 106.404 79.0394 106.219 78.9457C106.033 78.8519 105.884 78.739 105.771 78.6069C105.66 78.4727 105.574 78.3459 105.512 78.2266H105.464V80.8409H104.307ZM105.442 76.5455C105.442 76.8629 105.487 77.141 105.576 77.3796C105.668 77.6183 105.799 77.8047 105.969 77.9389C106.142 78.071 106.351 78.1371 106.596 78.1371C106.851 78.1371 107.066 78.0689 107.238 77.9325C107.411 77.794 107.541 77.6055 107.628 77.3668C107.718 77.1261 107.762 76.8523 107.762 76.5455C107.762 76.2408 107.719 75.9702 107.631 75.7337C107.544 75.4972 107.414 75.3118 107.241 75.1776C107.069 75.0433 106.854 74.9762 106.596 74.9762C106.349 74.9762 106.139 75.0412 105.966 75.1712C105.794 75.3011 105.662 75.4833 105.573 75.7177C105.486 75.9521 105.442 76.228 105.442 76.5455ZM111.345 79.0991C111.034 79.0991 110.754 79.0437 110.504 78.9329C110.257 78.82 110.061 78.6538 109.916 78.4343C109.774 78.2148 109.702 77.9442 109.702 77.6225C109.702 77.3455 109.753 77.1165 109.856 76.9354C109.958 76.7543 110.097 76.6094 110.274 76.5007C110.451 76.392 110.65 76.31 110.872 76.2546C111.096 76.1971 111.327 76.1555 111.566 76.13C111.853 76.1001 112.086 76.0735 112.265 76.0501C112.444 76.0245 112.574 75.9862 112.655 75.935C112.738 75.8817 112.78 75.7997 112.78 75.6889V75.6697C112.78 75.429 112.709 75.2425 112.566 75.1104C112.423 74.9783 112.218 74.9123 111.949 74.9123C111.666 74.9123 111.441 74.9741 111.275 75.0977C111.111 75.2212 111 75.3672 110.942 75.5355L109.862 75.3821C109.947 75.0838 110.088 74.8345 110.284 74.6342C110.48 74.4318 110.72 74.2805 111.003 74.1804C111.286 74.0781 111.6 74.027 111.943 74.027C112.179 74.027 112.415 74.0547 112.649 74.1101C112.883 74.1655 113.097 74.2571 113.291 74.3849C113.485 74.5107 113.641 74.6822 113.758 74.8995C113.877 75.1168 113.937 75.3885 113.937 75.7145V79H112.825V78.3256H112.786C112.716 78.462 112.617 78.5898 112.489 78.7092C112.363 78.8263 112.205 78.9212 112.013 78.9936C111.823 79.0639 111.601 79.0991 111.345 79.0991ZM111.645 78.2489C111.878 78.2489 112.079 78.2031 112.249 78.1115C112.42 78.0178 112.551 77.8942 112.643 77.7408C112.736 77.5874 112.783 77.4201 112.783 77.239V76.6605C112.747 76.6903 112.685 76.718 112.598 76.7436C112.513 76.7692 112.417 76.7915 112.31 76.8107C112.204 76.8299 112.098 76.8469 111.994 76.8619C111.889 76.8768 111.799 76.8896 111.722 76.9002C111.55 76.9237 111.395 76.962 111.259 77.0153C111.122 77.0685 111.015 77.1431 110.936 77.239C110.857 77.3327 110.818 77.4542 110.818 77.6033C110.818 77.8164 110.895 77.9773 111.051 78.0859C111.206 78.1946 111.405 78.2489 111.645 78.2489ZM115.1 79V74.0909H116.222V74.9091H116.273C116.363 74.6257 116.516 74.4073 116.733 74.2539C116.953 74.0984 117.203 74.0206 117.485 74.0206C117.548 74.0206 117.62 74.0238 117.699 74.0302C117.78 74.0344 117.847 74.0419 117.9 74.0526V75.1168C117.851 75.0998 117.773 75.0849 117.667 75.0721C117.562 75.0572 117.461 75.0497 117.363 75.0497C117.152 75.0497 116.963 75.0955 116.794 75.1871C116.628 75.2766 116.497 75.4013 116.401 75.5611C116.305 75.7209 116.257 75.9052 116.257 76.114V79H115.1ZM121.384 74.0909V74.9858H118.562V74.0909H121.384ZM119.258 72.9148H120.415V77.5234C120.415 77.679 120.439 77.7983 120.486 77.8814C120.535 77.9624 120.599 78.0178 120.677 78.0476C120.756 78.0774 120.844 78.0923 120.939 78.0923C121.012 78.0923 121.078 78.087 121.138 78.0763C121.199 78.0657 121.246 78.0561 121.278 78.0476L121.473 78.9521C121.411 78.9734 121.323 78.9968 121.208 79.0224C121.095 79.0479 120.956 79.0629 120.792 79.0671C120.503 79.0756 120.242 79.032 120.009 78.9361C119.777 78.8381 119.593 78.6868 119.456 78.4822C119.322 78.2777 119.256 78.022 119.258 77.7152V72.9148ZM122.351 79V74.0909H123.457V74.9251H123.515C123.617 74.6438 123.786 74.4244 124.023 74.2667C124.259 74.1069 124.542 74.027 124.87 74.027C125.202 74.027 125.482 74.108 125.71 74.2699C125.94 74.4297 126.102 74.6481 126.196 74.9251H126.247C126.356 74.6523 126.539 74.435 126.797 74.2731C127.057 74.109 127.365 74.027 127.721 74.027C128.172 74.027 128.541 74.1697 128.826 74.4553C129.112 74.7408 129.255 75.1573 129.255 75.7049V79H128.095V75.8839C128.095 75.5792 128.014 75.3565 127.852 75.2159C127.69 75.0732 127.492 75.0018 127.257 75.0018C126.978 75.0018 126.76 75.0891 126.602 75.2638C126.446 75.4364 126.369 75.6612 126.369 75.9382V79H125.234V75.8359C125.234 75.5824 125.157 75.38 125.004 75.2287C124.853 75.0774 124.655 75.0018 124.41 75.0018C124.243 75.0018 124.092 75.0444 123.956 75.1296C123.819 75.2127 123.711 75.331 123.63 75.4844C123.549 75.6357 123.508 75.8125 123.508 76.0149V79H122.351ZM132.602 79.0959C132.11 79.0959 131.684 78.9936 131.327 78.7891C130.971 78.5824 130.697 78.2905 130.505 77.9134C130.313 77.5341 130.218 77.0877 130.218 76.5742C130.218 76.0692 130.313 75.6261 130.505 75.2447C130.699 74.8612 130.97 74.5629 131.317 74.3498C131.664 74.1346 132.072 74.027 132.541 74.027C132.844 74.027 133.129 74.076 133.398 74.174C133.668 74.2699 133.907 74.419 134.113 74.6214C134.322 74.8239 134.486 75.0817 134.606 75.3949C134.725 75.706 134.785 76.0767 134.785 76.5071V76.8619H130.761V76.082H133.676C133.673 75.8604 133.626 75.6634 133.532 75.4908C133.438 75.3161 133.307 75.1786 133.139 75.0785C132.972 74.9783 132.779 74.9283 132.557 74.9283C132.32 74.9283 132.113 74.9858 131.934 75.1009C131.755 75.2138 131.615 75.3629 131.515 75.5483C131.417 75.7315 131.367 75.9329 131.365 76.1523V76.8331C131.365 77.1186 131.417 77.3636 131.521 77.5682C131.626 77.7706 131.772 77.9261 131.959 78.0348C132.147 78.1413 132.366 78.1946 132.618 78.1946C132.786 78.1946 132.938 78.1712 133.075 78.1243C133.211 78.0753 133.329 78.0039 133.43 77.9102C133.53 77.8164 133.605 77.7003 133.656 77.5618L134.737 77.6832C134.669 77.9687 134.539 78.218 134.347 78.4311C134.157 78.642 133.914 78.8061 133.618 78.9233C133.322 79.0384 132.983 79.0959 132.602 79.0959ZM136.92 76.1236V79H135.763V74.0909H136.869V74.9251H136.927C137.04 74.6502 137.22 74.4318 137.467 74.2699C137.716 74.108 138.024 74.027 138.391 74.027C138.729 74.027 139.024 74.0994 139.276 74.2443C139.529 74.3892 139.725 74.5991 139.864 74.8739C140.005 75.1488 140.074 75.4822 140.072 75.8743V79H138.915V76.0533C138.915 75.7251 138.829 75.4684 138.659 75.283C138.491 75.0977 138.257 75.005 137.959 75.005C137.757 75.005 137.577 75.0497 137.419 75.1392C137.263 75.2266 137.141 75.3533 137.051 75.5195C136.964 75.6857 136.92 75.8871 136.92 76.1236ZM143.699 74.0909V74.9858H140.877V74.0909H143.699ZM141.574 72.9148H142.731V77.5234C142.731 77.679 142.754 77.7983 142.801 77.8814C142.85 77.9624 142.914 78.0178 142.993 78.0476C143.072 78.0774 143.159 78.0923 143.255 78.0923C143.327 78.0923 143.393 78.087 143.453 78.0763C143.515 78.0657 143.562 78.0561 143.594 78.0476L143.789 78.9521C143.727 78.9734 143.638 78.9968 143.523 79.0224C143.41 79.0479 143.272 79.0629 143.108 79.0671C142.818 79.0756 142.557 79.032 142.325 78.9361C142.093 78.8381 141.908 78.6868 141.772 78.4822C141.638 78.2777 141.572 78.022 141.574 77.7152V72.9148ZM53.5945 91.8409V85.0909H54.7322V85.9027H54.7994C54.859 85.7834 54.9432 85.6566 55.0518 85.5224C55.1605 85.386 55.3075 85.2699 55.4929 85.174C55.6783 85.076 55.9148 85.027 56.2024 85.027C56.5817 85.027 56.9237 85.1239 57.2283 85.3178C57.5352 85.5096 57.7781 85.794 57.957 86.1712C58.1381 86.5462 58.2287 87.0064 58.2287 87.5518C58.2287 88.0909 58.1403 88.549 57.9634 88.9261C57.7866 89.3033 57.5458 89.5909 57.2411 89.7891C56.9364 89.9872 56.5913 90.0863 56.2056 90.0863C55.9244 90.0863 55.6911 90.0394 55.5057 89.9457C55.3203 89.8519 55.1712 89.739 55.0582 89.6069C54.9474 89.4727 54.8612 89.3459 54.7994 89.2266H54.7514V91.8409H53.5945ZM54.729 87.5455C54.729 87.8629 54.7738 88.141 54.8633 88.3796C54.9549 88.6183 55.0859 88.8047 55.2564 88.9389C55.429 89.071 55.6378 89.1371 55.8828 89.1371C56.1385 89.1371 56.3526 89.0689 56.5252 88.9325C56.6978 88.794 56.8278 88.6055 56.9151 88.3668C57.0046 88.1261 57.0494 87.8523 57.0494 87.5455C57.0494 87.2408 57.0057 86.9702 56.9183 86.7337C56.831 86.4972 56.701 86.3118 56.5284 86.1776C56.3558 86.0433 56.1406 85.9762 55.8828 85.9762C55.6357 85.9762 55.4258 86.0412 55.2532 86.1712C55.0806 86.3011 54.9496 86.4833 54.8601 86.7177C54.7727 86.9521 54.729 87.228 54.729 87.5455ZM60.3764 83.4545V90H59.2195V83.4545H60.3764ZM63.7075 90.0959C63.2281 90.0959 62.8126 89.9904 62.461 89.7795C62.1095 89.5685 61.8367 89.2734 61.6428 88.8942C61.4511 88.5149 61.3552 88.0717 61.3552 87.5646C61.3552 87.0575 61.4511 86.6133 61.6428 86.2319C61.8367 85.8505 62.1095 85.5543 62.461 85.3434C62.8126 85.1325 63.2281 85.027 63.7075 85.027C64.1869 85.027 64.6024 85.1325 64.9539 85.3434C65.3055 85.5543 65.5771 85.8505 65.7689 86.2319C65.9628 86.6133 66.0597 87.0575 66.0597 87.5646C66.0597 88.0717 65.9628 88.5149 65.7689 88.8942C65.5771 89.2734 65.3055 89.5685 64.9539 89.7795C64.6024 89.9904 64.1869 90.0959 63.7075 90.0959ZM63.7139 89.169C63.9738 89.169 64.1911 89.0977 64.3659 88.9549C64.5406 88.81 64.6705 88.6161 64.7558 88.3732C64.8431 88.1303 64.8868 87.8597 64.8868 87.5614C64.8868 87.261 64.8431 86.9893 64.7558 86.7464C64.6705 86.5014 64.5406 86.3065 64.3659 86.1616C64.1911 86.0167 63.9738 85.9442 63.7139 85.9442C63.4475 85.9442 63.2259 86.0167 63.0491 86.1616C62.8744 86.3065 62.7433 86.5014 62.656 86.7464C62.5708 86.9893 62.5281 87.261 62.5281 87.5614C62.5281 87.8597 62.5708 88.1303 62.656 88.3732C62.7433 88.6161 62.8744 88.81 63.0491 88.9549C63.2259 89.0977 63.4475 89.169 63.7139 89.169ZM69.4931 85.0909V85.9858H66.671V85.0909H69.4931ZM67.3677 83.9148H68.5247V88.5234C68.5247 88.679 68.5481 88.7983 68.595 88.8814C68.644 88.9624 68.7079 89.0178 68.7868 89.0476C68.8656 89.0774 68.9529 89.0923 69.0488 89.0923C69.1213 89.0923 69.1873 89.087 69.247 89.0763C69.3088 89.0657 69.3556 89.0561 69.3876 89.0476L69.5826 89.9521C69.5208 89.9734 69.4324 89.9968 69.3173 90.0224C69.2044 90.0479 69.0659 90.0629 68.9018 90.0671C68.612 90.0756 68.351 90.032 68.1188 89.9361C67.8865 89.8381 67.7022 89.6868 67.5659 89.4822C67.4316 89.2777 67.3656 89.022 67.3677 88.7152V83.9148ZM73.8501 87.1236V90H72.6931V85.0909H73.7989V85.9251H73.8564C73.9694 85.6502 74.1494 85.4318 74.3966 85.2699C74.6459 85.108 74.9537 85.027 75.3202 85.027C75.659 85.027 75.9541 85.0994 76.2055 85.2443C76.4591 85.3892 76.6551 85.5991 76.7936 85.8739C76.9342 86.1488 77.0035 86.4822 77.0013 86.8743V90H75.8444V87.0533C75.8444 86.7251 75.7591 86.4684 75.5887 86.283C75.4204 86.0977 75.1871 86.005 74.8888 86.005C74.6863 86.005 74.5063 86.0497 74.3486 86.1392C74.1931 86.2266 74.0706 86.3533 73.9811 86.5195C73.8937 86.6857 73.8501 86.8871 73.8501 87.1236ZM81.3064 87.9354V85.0909H82.4633V90H81.3415V89.1275H81.2904C81.1796 89.4023 80.9974 89.6271 80.7439 89.8018C80.4925 89.9766 80.1824 90.0639 79.8138 90.0639C79.4921 90.0639 79.2077 89.9925 78.9605 89.8498C78.7155 89.7049 78.5237 89.495 78.3852 89.2202C78.2467 88.9432 78.1775 88.6087 78.1775 88.2166V85.0909H79.3344V88.0376C79.3344 88.3487 79.4197 88.5959 79.5901 88.7791C79.7606 88.9624 79.9843 89.054 80.2613 89.054C80.4317 89.054 80.5969 89.0124 80.7567 88.9293C80.9165 88.8462 81.0475 88.7227 81.1498 88.5586C81.2542 88.3924 81.3064 88.1847 81.3064 87.9354ZM83.6531 90V85.0909H84.7589V85.9251H84.8164C84.9187 85.6438 85.0881 85.4244 85.3246 85.2667C85.5611 85.1069 85.8434 85.027 86.1715 85.027C86.5039 85.027 86.7841 85.108 87.0121 85.2699C87.2422 85.4297 87.4041 85.6481 87.4979 85.9251H87.549C87.6577 85.6523 87.8409 85.435 88.0987 85.2731C88.3587 85.109 88.6665 85.027 89.0224 85.027C89.4741 85.027 89.8427 85.1697 90.1282 85.4553C90.4137 85.7408 90.5565 86.1573 90.5565 86.7049V90H89.3963V86.8839C89.3963 86.5792 89.3153 86.3565 89.1534 86.2159C88.9915 86.0732 88.7933 86.0018 88.5589 86.0018C88.2798 86.0018 88.0614 86.0891 87.9038 86.2638C87.7482 86.4364 87.6705 86.6612 87.6705 86.9382V90H86.5359V86.8359C86.5359 86.5824 86.4592 86.38 86.3058 86.2287C86.1545 86.0774 85.9563 86.0018 85.7113 86.0018C85.5451 86.0018 85.3938 86.0444 85.2575 86.1296C85.1211 86.2127 85.0124 86.331 84.9315 86.4844C84.8505 86.6357 84.81 86.8125 84.81 87.0149V90H83.6531ZM91.7813 90V83.4545H92.9383V85.9027H92.9862C93.0459 85.7834 93.1301 85.6566 93.2387 85.5224C93.3474 85.386 93.4944 85.2699 93.6798 85.174C93.8651 85.076 94.1017 85.027 94.3893 85.027C94.7686 85.027 95.1105 85.1239 95.4152 85.3178C95.722 85.5096 95.9649 85.794 96.1439 86.1712C96.325 86.5462 96.4156 87.0064 96.4156 87.5518C96.4156 88.0909 96.3271 88.549 96.1503 88.9261C95.9735 89.3033 95.7327 89.5909 95.428 89.7891C95.1233 89.9872 94.7781 90.0863 94.3925 90.0863C94.1112 90.0863 93.8779 90.0394 93.6926 89.9457C93.5072 89.8519 93.358 89.739 93.2451 89.6069C93.1343 89.4727 93.048 89.3459 92.9862 89.2266H92.9191V90H91.7813ZM92.9159 87.5455C92.9159 87.8629 92.9607 88.141 93.0502 88.3796C93.1418 88.6183 93.2728 88.8047 93.4433 88.9389C93.6159 89.071 93.8247 89.1371 94.0697 89.1371C94.3254 89.1371 94.5395 89.0689 94.7121 88.9325C94.8847 88.794 95.0146 88.6055 95.102 88.3668C95.1915 88.1261 95.2362 87.8523 95.2362 87.5455C95.2362 87.2408 95.1926 86.9702 95.1052 86.7337C95.0178 86.4972 94.8879 86.3118 94.7153 86.1776C94.5427 86.0433 94.3275 85.9762 94.0697 85.9762C93.8225 85.9762 93.6127 86.0412 93.4401 86.1712C93.2675 86.3011 93.1365 86.4833 93.047 86.7177C92.9596 86.9521 92.9159 87.228 92.9159 87.5455ZM99.5724 90.0959C99.0803 90.0959 98.6552 89.9936 98.2972 89.7891C97.9414 89.5824 97.6676 89.2905 97.4759 88.9134C97.2841 88.5341 97.1882 88.0877 97.1882 87.5742C97.1882 87.0692 97.2841 86.6261 97.4759 86.2447C97.6697 85.8612 97.9403 85.5629 98.2876 85.3498C98.6349 85.1346 99.043 85.027 99.5117 85.027C99.8143 85.027 100.1 85.076 100.368 85.174C100.639 85.2699 100.877 85.419 101.084 85.6214C101.293 85.8239 101.457 86.0817 101.576 86.3949C101.696 86.706 101.755 87.0767 101.755 87.5071V87.8619H97.7315V87.082H100.646C100.644 86.8604 100.596 86.6634 100.502 86.4908C100.409 86.3161 100.278 86.1786 100.109 86.0785C99.9432 85.9783 99.7493 85.9283 99.5277 85.9283C99.2912 85.9283 99.0835 85.9858 98.9045 86.1009C98.7255 86.2138 98.5859 86.3629 98.4858 86.5483C98.3878 86.7315 98.3377 86.9329 98.3356 87.1523V87.8331C98.3356 88.1186 98.3878 88.3636 98.4922 88.5682C98.5966 88.7706 98.7425 88.9261 98.93 89.0348C99.1175 89.1413 99.337 89.1946 99.5884 89.1946C99.7567 89.1946 99.9091 89.1712 100.045 89.1243C100.182 89.0753 100.3 89.0039 100.4 88.9102C100.5 88.8164 100.576 88.7003 100.627 88.5618L101.707 88.6832C101.639 88.9687 101.509 89.218 101.317 89.4311C101.128 89.642 100.885 89.8061 100.589 89.9233C100.293 90.0384 99.9538 90.0959 99.5724 90.0959ZM102.734 90V85.0909H103.856V85.9091H103.907C103.997 85.6257 104.15 85.4073 104.367 85.2539C104.587 85.0984 104.837 85.0206 105.118 85.0206C105.182 85.0206 105.254 85.0238 105.332 85.0302C105.413 85.0344 105.481 85.0419 105.534 85.0526V86.1168C105.485 86.0998 105.407 86.0849 105.301 86.0721C105.196 86.0572 105.095 86.0497 104.997 86.0497C104.786 86.0497 104.596 86.0955 104.428 86.1871C104.262 86.2766 104.131 86.4013 104.035 86.5611C103.939 86.7209 103.891 86.9052 103.891 87.114V90H102.734ZM108.404 88.7855V87.8427L111.181 83.4545H111.967V84.7969H111.488L109.618 87.7596V87.8107H113.495V88.7855H108.404ZM111.526 90V88.4979L111.539 88.076V83.4545H112.658V90H111.526ZM116.843 90.0895C116.368 90.0895 115.946 90.0096 115.577 89.8498C115.211 89.69 114.923 89.4716 114.714 89.1946C114.508 88.9155 114.405 88.5991 114.408 88.2454C114.405 87.9705 114.465 87.718 114.587 87.4879C114.708 87.2578 114.872 87.0661 115.079 86.9126C115.288 86.7571 115.52 86.658 115.775 86.6154V86.5707C115.439 86.4961 115.166 86.3246 114.957 86.0561C114.751 85.7855 114.648 85.4734 114.65 85.1197C114.648 84.783 114.742 84.4826 114.932 84.2184C115.121 83.9542 115.381 83.7464 115.712 83.5952C116.042 83.4418 116.419 83.3651 116.843 83.3651C117.263 83.3651 117.637 83.4418 117.965 83.5952C118.295 83.7464 118.555 83.9542 118.745 84.2184C118.936 84.4826 119.032 84.783 119.032 85.1197C119.032 85.4734 118.927 85.7855 118.716 86.0561C118.507 86.3246 118.237 86.4961 117.907 86.5707V86.6154C118.163 86.658 118.393 86.7571 118.598 86.9126C118.804 87.0661 118.968 87.2578 119.09 87.4879C119.213 87.718 119.275 87.9705 119.275 88.2454C119.275 88.5991 119.171 88.9155 118.962 89.1946C118.753 89.4716 118.465 89.69 118.099 89.8498C117.735 90.0096 117.316 90.0895 116.843 90.0895ZM116.843 89.1754C117.088 89.1754 117.301 89.1339 117.482 89.0508C117.663 88.9656 117.804 88.8462 117.904 88.6928C118.004 88.5394 118.055 88.3626 118.057 88.1623C118.055 87.9535 118.001 87.7692 117.894 87.6094C117.79 87.4474 117.646 87.3207 117.463 87.229C117.282 87.1374 117.075 87.0916 116.843 87.0916C116.609 87.0916 116.4 87.1374 116.217 87.229C116.033 87.3207 115.888 87.4474 115.782 87.6094C115.677 87.7692 115.626 87.9535 115.628 88.1623C115.626 88.3626 115.675 88.5394 115.775 88.6928C115.876 88.8441 116.016 88.9624 116.197 89.0476C116.381 89.1328 116.596 89.1754 116.843 89.1754ZM116.843 86.1935C117.043 86.1935 117.22 86.1531 117.373 86.0721C117.529 85.9911 117.652 85.8782 117.741 85.7333C117.831 85.5884 117.876 85.4212 117.878 85.2315C117.876 85.044 117.832 84.88 117.744 84.7393C117.657 84.5966 117.535 84.4869 117.38 84.4102C117.224 84.3313 117.045 84.2919 116.843 84.2919C116.636 84.2919 116.454 84.3313 116.296 84.4102C116.141 84.4869 116.019 84.5966 115.932 84.7393C115.847 84.88 115.805 85.044 115.807 85.2315C115.805 85.4212 115.848 85.5884 115.935 85.7333C116.025 85.8761 116.147 85.989 116.303 86.0721C116.46 86.1531 116.641 86.1935 116.843 86.1935ZM122.598 83.3651C122.911 83.3672 123.216 83.4226 123.512 83.5312C123.811 83.6378 124.079 83.8125 124.318 84.0554C124.556 84.2962 124.746 84.619 124.887 85.0238C125.027 85.4286 125.097 85.9293 125.097 86.5259C125.1 87.0884 125.04 87.5913 124.919 88.0344C124.799 88.4755 124.628 88.8484 124.404 89.1531C124.18 89.4577 123.911 89.69 123.595 89.8498C123.28 90.0096 122.925 90.0895 122.531 90.0895C122.118 90.0895 121.751 90.0085 121.432 89.8466C121.114 89.6847 120.857 89.4631 120.661 89.1818C120.465 88.9006 120.345 88.5788 120.3 88.2166H121.467C121.526 88.4766 121.648 88.6832 121.831 88.8366C122.017 88.9879 122.25 89.0636 122.531 89.0636C122.985 89.0636 123.334 88.8665 123.579 88.4723C123.824 88.0781 123.947 87.5305 123.947 86.8295H123.902C123.798 87.017 123.662 87.179 123.496 87.3153C123.33 87.4496 123.142 87.5529 122.931 87.6254C122.722 87.6978 122.5 87.734 122.266 87.734C121.882 87.734 121.537 87.6424 121.23 87.4592C120.926 87.2759 120.684 87.0245 120.505 86.7049C120.328 86.3853 120.238 86.0199 120.236 85.6087C120.236 85.1825 120.334 84.8001 120.53 84.4613C120.729 84.1204 121.004 83.8519 121.358 83.6559C121.712 83.4577 122.125 83.3608 122.598 83.3651ZM122.601 84.3239C122.371 84.3239 122.164 84.3803 121.978 84.4933C121.795 84.604 121.65 84.7553 121.544 84.9471C121.439 85.1367 121.387 85.3487 121.387 85.5831C121.389 85.8153 121.441 86.0263 121.544 86.2159C121.648 86.4055 121.79 86.5558 121.969 86.6665C122.15 86.7773 122.356 86.8327 122.589 86.8327C122.761 86.8327 122.922 86.7997 123.071 86.7337C123.22 86.6676 123.35 86.576 123.461 86.4588C123.574 86.3395 123.661 86.2042 123.723 86.0529C123.787 85.9016 123.818 85.7418 123.816 85.5735C123.816 85.3498 123.763 85.1431 123.656 84.9535C123.552 84.7638 123.408 84.6115 123.225 84.4964C123.044 84.3814 122.836 84.3239 122.601 84.3239ZM53.5945 102.841V96.0909H54.7322V96.9027H54.7994C54.859 96.7834 54.9432 96.6566 55.0518 96.5224C55.1605 96.386 55.3075 96.2699 55.4929 96.174C55.6783 96.076 55.9148 96.027 56.2024 96.027C56.5817 96.027 56.9237 96.1239 57.2283 96.3178C57.5352 96.5096 57.7781 96.794 57.957 97.1712C58.1381 97.5462 58.2287 98.0064 58.2287 98.5518C58.2287 99.0909 58.1403 99.549 57.9634 99.9261C57.7866 100.303 57.5458 100.591 57.2411 100.789C56.9364 100.987 56.5913 101.086 56.2056 101.086C55.9244 101.086 55.6911 101.039 55.5057 100.946C55.3203 100.852 55.1712 100.739 55.0582 100.607C54.9474 100.473 54.8612 100.346 54.7994 100.227H54.7514V102.841H53.5945ZM54.729 98.5455C54.729 98.8629 54.7738 99.141 54.8633 99.3796C54.9549 99.6183 55.0859 99.8047 55.2564 99.9389C55.429 100.071 55.6378 100.137 55.8828 100.137C56.1385 100.137 56.3526 100.069 56.5252 99.9325C56.6978 99.794 56.8278 99.6055 56.9151 99.3668C57.0046 99.1261 57.0494 98.8523 57.0494 98.5455C57.0494 98.2408 57.0057 97.9702 56.9183 97.7337C56.831 97.4972 56.701 97.3118 56.5284 97.1776C56.3558 97.0433 56.1406 96.9762 55.8828 96.9762C55.6357 96.9762 55.4258 97.0412 55.2532 97.1712C55.0806 97.3011 54.9496 97.4833 54.8601 97.7177C54.7727 97.9521 54.729 98.228 54.729 98.5455ZM61.3608 101.096C60.8814 101.096 60.4659 100.99 60.1143 100.779C59.7628 100.569 59.4901 100.273 59.2962 99.8942C59.1044 99.5149 59.0085 99.0717 59.0085 98.5646C59.0085 98.0575 59.1044 97.6133 59.2962 97.2319C59.4901 96.8505 59.7628 96.5543 60.1143 96.3434C60.4659 96.1325 60.8814 96.027 61.3608 96.027C61.8402 96.027 62.2557 96.1325 62.6072 96.3434C62.9588 96.5543 63.2305 96.8505 63.4222 97.2319C63.6161 97.6133 63.7131 98.0575 63.7131 98.5646C63.7131 99.0717 63.6161 99.5149 63.4222 99.8942C63.2305 100.273 62.9588 100.569 62.6072 100.779C62.2557 100.99 61.8402 101.096 61.3608 101.096ZM61.3672 100.169C61.6271 100.169 61.8445 100.098 62.0192 99.9549C62.1939 99.81 62.3239 99.6161 62.4091 99.3732C62.4964 99.1303 62.5401 98.8597 62.5401 98.5614C62.5401 98.261 62.4964 97.9893 62.4091 97.7464C62.3239 97.5014 62.1939 97.3065 62.0192 97.1616C61.8445 97.0167 61.6271 96.9442 61.3672 96.9442C61.1009 96.9442 60.8793 97.0167 60.7024 97.1616C60.5277 97.3065 60.3967 97.5014 60.3093 97.7464C60.2241 97.9893 60.1815 98.261 60.1815 98.5614C60.1815 98.8597 60.2241 99.1303 60.3093 99.3732C60.3967 99.6161 60.5277 99.81 60.7024 99.9549C60.8793 100.098 61.1009 100.169 61.3672 100.169ZM68.575 97.3885L67.5203 97.5036C67.4905 97.397 67.4383 97.2969 67.3637 97.2031C67.2913 97.1094 67.1933 97.0337 67.0697 96.9762C66.9461 96.9187 66.7948 96.8899 66.6159 96.8899C66.3751 96.8899 66.1727 96.9421 66.0086 97.0465C65.8467 97.1509 65.7668 97.2862 65.7689 97.4524C65.7668 97.5952 65.819 97.7113 65.9255 97.8008C66.0342 97.8903 66.2132 97.9638 66.4624 98.0213L67.2998 98.2003C67.7643 98.3004 68.1095 98.4592 68.3353 98.6765C68.5633 98.8938 68.6784 99.1783 68.6805 99.5298C68.6784 99.8388 68.5878 100.112 68.4088 100.348C68.232 100.582 67.9859 100.766 67.6705 100.898C67.3552 101.03 66.993 101.096 66.5839 101.096C65.983 101.096 65.4994 100.97 65.1329 100.719C64.7664 100.465 64.548 100.113 64.4777 99.6609L65.6059 99.5522C65.657 99.7738 65.7657 99.9411 65.9319 100.054C66.0981 100.167 66.3144 100.223 66.5807 100.223C66.8556 100.223 67.0761 100.167 67.2423 100.054C67.4106 99.9411 67.4948 99.8015 67.4948 99.6353C67.4948 99.4947 67.4404 99.3786 67.3318 99.2869C67.2252 99.1953 67.059 99.125 66.8332 99.076L65.9958 98.9002C65.5249 98.8022 65.1766 98.6371 64.9507 98.4048C64.7249 98.1705 64.613 97.8743 64.6151 97.5163C64.613 97.2138 64.695 96.9517 64.8612 96.7301C65.0296 96.5064 65.2629 96.3338 65.5612 96.2124C65.8616 96.0888 66.2078 96.027 66.5999 96.027C67.1752 96.027 67.6279 96.1495 67.9582 96.3945C68.2906 96.6396 68.4962 96.9709 68.575 97.3885ZM72.0858 96.0909V96.9858H69.2638V96.0909H72.0858ZM69.9605 94.9148H71.1175V99.5234C71.1175 99.679 71.1409 99.7983 71.1878 99.8814C71.2368 99.9624 71.3007 100.018 71.3795 100.048C71.4584 100.077 71.5457 100.092 71.6416 100.092C71.714 100.092 71.7801 100.087 71.8398 100.076C71.9015 100.066 71.9484 100.056 71.9804 100.048L72.1753 100.952C72.1135 100.973 72.0251 100.997 71.9101 101.022C71.7971 101.048 71.6586 101.063 71.4946 101.067C71.2048 101.076 70.9438 101.032 70.7116 100.936C70.4793 100.838 70.295 100.687 70.1586 100.482C70.0244 100.278 69.9584 100.022 69.9605 99.7152V94.9148ZM73.0534 101V96.0909H74.1593V96.9251H74.2168C74.3191 96.6438 74.4885 96.4244 74.725 96.2667C74.9615 96.1069 75.2438 96.027 75.5719 96.027C75.9043 96.027 76.1845 96.108 76.4125 96.2699C76.6426 96.4297 76.8045 96.6481 76.8983 96.9251H76.9494C77.0581 96.6523 77.2413 96.435 77.4991 96.2731C77.7591 96.109 78.0669 96.027 78.4228 96.027C78.8745 96.027 79.2431 96.1697 79.5286 96.4553C79.8141 96.7408 79.9569 97.1573 79.9569 97.7049V101H78.7967V97.8839C78.7967 97.5792 78.7157 97.3565 78.5538 97.2159C78.3919 97.0732 78.1937 97.0018 77.9593 97.0018C77.6802 97.0018 77.4618 97.0891 77.3042 97.2638C77.1486 97.4364 77.0708 97.6612 77.0708 97.9382V101H75.9363V97.8359C75.9363 97.5824 75.8596 97.38 75.7061 97.2287C75.5549 97.0774 75.3567 97.0018 75.1117 97.0018C74.9455 97.0018 74.7942 97.0444 74.6578 97.1296C74.5215 97.2127 74.4128 97.331 74.3319 97.4844C74.2509 97.6357 74.2104 97.8125 74.2104 98.0149V101H73.0534ZM82.5432 101.099C82.2322 101.099 81.952 101.044 81.7027 100.933C81.4555 100.82 81.2595 100.654 81.1146 100.434C80.9719 100.215 80.9005 99.9442 80.9005 99.6225C80.9005 99.3455 80.9516 99.1165 81.0539 98.9354C81.1562 98.7543 81.2957 98.6094 81.4726 98.5007C81.6494 98.392 81.8486 98.31 82.0702 98.2546C82.2939 98.1971 82.5251 98.1555 82.7638 98.13C83.0514 98.1001 83.2847 98.0735 83.4637 98.0501C83.6427 98.0245 83.7726 97.9862 83.8536 97.935C83.9367 97.8817 83.9782 97.7997 83.9782 97.6889V97.6697C83.9782 97.429 83.9069 97.2425 83.7641 97.1104C83.6214 96.9783 83.4157 96.9123 83.1473 96.9123C82.8639 96.9123 82.6391 96.9741 82.4729 97.0977C82.3089 97.2212 82.1981 97.3672 82.1405 97.5355L81.0603 97.3821C81.1455 97.0838 81.2861 96.8345 81.4822 96.6342C81.6782 96.4318 81.9179 96.2805 82.2013 96.1804C82.4846 96.0781 82.7979 96.027 83.1409 96.027C83.3774 96.027 83.6128 96.0547 83.8472 96.1101C84.0816 96.1655 84.2957 96.2571 84.4896 96.3849C84.6835 96.5107 84.839 96.6822 84.9562 96.8995C85.0756 97.1168 85.1352 97.3885 85.1352 97.7145V101H84.023V100.326H83.9846C83.9143 100.462 83.8153 100.59 83.6874 100.709C83.5617 100.826 83.403 100.921 83.2112 100.994C83.0216 101.064 82.7989 101.099 82.5432 101.099ZM82.8437 100.249C83.0759 100.249 83.2773 100.203 83.4477 100.112C83.6182 100.018 83.7492 99.8942 83.8408 99.7408C83.9346 99.5874 83.9814 99.4201 83.9814 99.239V98.6605C83.9452 98.6903 83.8834 98.718 83.7961 98.7436C83.7108 98.7692 83.615 98.7915 83.5084 98.8107C83.4019 98.8299 83.2964 98.8469 83.192 98.8619C83.0876 98.8768 82.9971 98.8896 82.9204 98.9002C82.7478 98.9237 82.5933 98.962 82.4569 99.0153C82.3206 99.0685 82.213 99.1431 82.1341 99.239C82.0553 99.3327 82.0159 99.4542 82.0159 99.6033C82.0159 99.8164 82.0937 99.9773 82.2492 100.086C82.4047 100.195 82.6029 100.249 82.8437 100.249ZM90.1785 97.3885L89.1238 97.5036C89.094 97.397 89.0418 97.2969 88.9672 97.2031C88.8948 97.1094 88.7968 97.0337 88.6732 96.9762C88.5496 96.9187 88.3983 96.8899 88.2194 96.8899C87.9786 96.8899 87.7762 96.9421 87.6121 97.0465C87.4502 97.1509 87.3703 97.2862 87.3724 97.4524C87.3703 97.5952 87.4225 97.7113 87.529 97.8008C87.6377 97.8903 87.8167 97.9638 88.066 98.0213L88.9033 98.2003C89.3678 98.3004 89.713 98.4592 89.9388 98.6765C90.1668 98.8938 90.2819 99.1783 90.284 99.5298C90.2819 99.8388 90.1913 100.112 90.0123 100.348C89.8355 100.582 89.5894 100.766 89.2741 100.898C88.9587 101.03 88.5965 101.096 88.1874 101.096C87.5866 101.096 87.1029 100.97 86.7364 100.719C86.3699 100.465 86.1515 100.113 86.0812 99.6609L87.2094 99.5522C87.2606 99.7738 87.3692 99.9411 87.5354 100.054C87.7016 100.167 87.9179 100.223 88.1842 100.223C88.4591 100.223 88.6796 100.167 88.8458 100.054C89.0141 99.9411 89.0983 99.8015 89.0983 99.6353C89.0983 99.4947 89.0439 99.3786 88.9353 99.2869C88.8287 99.1953 88.6626 99.125 88.4367 99.076L87.5993 98.9002C87.1285 98.8022 86.7801 98.6371 86.5542 98.4048C86.3284 98.1705 86.2165 97.8743 86.2187 97.5163C86.2165 97.2138 86.2986 96.9517 86.4648 96.7301C86.6331 96.5064 86.8664 96.3338 87.1647 96.2124C87.4651 96.0888 87.8113 96.027 88.2034 96.027C88.7787 96.027 89.2314 96.1495 89.5617 96.3945C89.8941 96.6396 90.0997 96.9709 90.1785 97.3885ZM93.6894 96.0909V96.9858H90.8673V96.0909H93.6894ZM91.564 94.9148H92.721V99.5234C92.721 99.679 92.7444 99.7983 92.7913 99.8814C92.8403 99.9624 92.9042 100.018 92.983 100.048C93.0619 100.077 93.1492 100.092 93.2451 100.092C93.3176 100.092 93.3836 100.087 93.4433 100.076C93.5051 100.066 93.5519 100.056 93.5839 100.048L93.7789 100.952C93.7171 100.973 93.6286 100.997 93.5136 101.022C93.4007 101.048 93.2622 101.063 93.0981 101.067C92.8083 101.076 92.5473 101.032 92.3151 100.936C92.0828 100.838 91.8985 100.687 91.7622 100.482C91.6279 100.278 91.5619 100.022 91.564 99.7152V94.9148ZM96.7775 101.096C96.2853 101.096 95.8603 100.994 95.5023 100.789C95.1465 100.582 94.8727 100.29 94.6809 99.9134C94.4892 99.5341 94.3933 99.0877 94.3933 98.5742C94.3933 98.0692 94.4892 97.6261 94.6809 97.2447C94.8748 96.8612 95.1454 96.5629 95.4927 96.3498C95.84 96.1346 96.248 96.027 96.7168 96.027C97.0194 96.027 97.3049 96.076 97.5733 96.174C97.8439 96.2699 98.0826 96.419 98.2892 96.6214C98.498 96.8239 98.6621 97.0817 98.7814 97.3949C98.9007 97.706 98.9604 98.0767 98.9604 98.5071V98.8619H94.9366V98.082H97.8514C97.8493 97.8604 97.8013 97.6634 97.7076 97.4908C97.6138 97.3161 97.4828 97.1786 97.3145 97.0785C97.1483 96.9783 96.9544 96.9283 96.7328 96.9283C96.4963 96.9283 96.2885 96.9858 96.1096 97.1009C95.9306 97.2138 95.791 97.3629 95.6909 97.5483C95.5929 97.7315 95.5428 97.9329 95.5407 98.1523V98.8331C95.5407 99.1186 95.5929 99.3636 95.6973 99.5682C95.8017 99.7706 95.9476 99.9261 96.1351 100.035C96.3226 100.141 96.5421 100.195 96.7935 100.195C96.9618 100.195 97.1142 100.171 97.2505 100.124C97.3869 100.075 97.5051 100.004 97.6053 99.9102C97.7054 99.8164 97.7811 99.7003 97.8322 99.5618L98.9125 99.6832C98.8443 99.9687 98.7143 100.218 98.5226 100.431C98.3329 100.642 98.09 100.806 97.7939 100.923C97.4977 101.038 97.1589 101.096 96.7775 101.096ZM99.9392 101V96.0909H101.061V96.9091H101.112C101.202 96.6257 101.355 96.4073 101.572 96.2539C101.792 96.0984 102.042 96.0206 102.323 96.0206C102.387 96.0206 102.459 96.0238 102.538 96.0302C102.619 96.0344 102.686 96.0419 102.739 96.0526V97.1168C102.69 97.0998 102.612 97.0849 102.506 97.0721C102.401 97.0572 102.3 97.0497 102.202 97.0497C101.991 97.0497 101.801 97.0955 101.633 97.1871C101.467 97.2766 101.336 97.4013 101.24 97.5611C101.144 97.7209 101.096 97.9052 101.096 98.114V101H99.9392ZM105.74 102.841V96.0909H106.878V96.9027H106.945C107.005 96.7834 107.089 96.6566 107.197 96.5224C107.306 96.386 107.453 96.2699 107.638 96.174C107.824 96.076 108.06 96.027 108.348 96.027C108.727 96.027 109.069 96.1239 109.374 96.3178C109.681 96.5096 109.924 96.794 110.103 97.1712C110.284 97.5462 110.374 98.0064 110.374 98.5518C110.374 99.0909 110.286 99.549 110.109 99.9261C109.932 100.303 109.691 100.591 109.387 100.789C109.082 100.987 108.737 101.086 108.351 101.086C108.07 101.086 107.837 101.039 107.651 100.946C107.466 100.852 107.317 100.739 107.204 100.607C107.093 100.473 107.007 100.346 106.945 100.227H106.897V102.841H105.74ZM106.875 98.5455C106.875 98.8629 106.919 99.141 107.009 99.3796C107.1 99.6183 107.231 99.8047 107.402 99.9389C107.574 100.071 107.783 100.137 108.028 100.137C108.284 100.137 108.498 100.069 108.671 99.9325C108.843 99.794 108.973 99.6055 109.061 99.3668C109.15 99.1261 109.195 98.8523 109.195 98.5455C109.195 98.2408 109.151 97.9702 109.064 97.7337C108.976 97.4972 108.847 97.3118 108.674 97.1776C108.501 97.0433 108.286 96.9762 108.028 96.9762C107.781 96.9762 107.571 97.0412 107.399 97.1712C107.226 97.3011 107.095 97.4833 107.006 97.7177C106.918 97.9521 106.875 98.228 106.875 98.5455ZM113.506 101.096C113.027 101.096 112.611 100.99 112.26 100.779C111.908 100.569 111.636 100.273 111.442 99.8942C111.25 99.5149 111.154 99.0717 111.154 98.5646C111.154 98.0575 111.25 97.6133 111.442 97.2319C111.636 96.8505 111.908 96.5543 112.26 96.3434C112.611 96.1325 113.027 96.027 113.506 96.027C113.986 96.027 114.401 96.1325 114.753 96.3434C115.104 96.5543 115.376 96.8505 115.568 97.2319C115.762 97.6133 115.859 98.0575 115.859 98.5646C115.859 99.0717 115.762 99.5149 115.568 99.8942C115.376 100.273 115.104 100.569 114.753 100.779C114.401 100.99 113.986 101.096 113.506 101.096ZM113.513 100.169C113.773 100.169 113.99 100.098 114.165 99.9549C114.339 99.81 114.469 99.6161 114.555 99.3732C114.642 99.1303 114.686 98.8597 114.686 98.5614C114.686 98.261 114.642 97.9893 114.555 97.7464C114.469 97.5014 114.339 97.3065 114.165 97.1616C113.99 97.0167 113.773 96.9442 113.513 96.9442C113.246 96.9442 113.025 97.0167 112.848 97.1616C112.673 97.3065 112.542 97.5014 112.455 97.7464C112.37 97.9893 112.327 98.261 112.327 98.5614C112.327 98.8597 112.37 99.1303 112.455 99.3732C112.542 99.6161 112.673 99.81 112.848 99.9549C113.025 100.098 113.246 100.169 113.513 100.169ZM120.721 97.3885L119.666 97.5036C119.636 97.397 119.584 97.2969 119.509 97.2031C119.437 97.1094 119.339 97.0337 119.215 96.9762C119.092 96.9187 118.94 96.8899 118.761 96.8899C118.521 96.8899 118.318 96.9421 118.154 97.0465C117.992 97.1509 117.912 97.2862 117.914 97.4524C117.912 97.5952 117.964 97.7113 118.071 97.8008C118.18 97.8903 118.359 97.9638 118.608 98.0213L119.445 98.2003C119.91 98.3004 120.255 98.4592 120.481 98.6765C120.709 98.8938 120.824 99.1783 120.826 99.5298C120.824 99.8388 120.733 100.112 120.554 100.348C120.377 100.582 120.131 100.766 119.816 100.898C119.501 101.03 119.138 101.096 118.729 101.096C118.129 101.096 117.645 100.97 117.278 100.719C116.912 100.465 116.694 100.113 116.623 99.6609L117.751 99.5522C117.803 99.7738 117.911 99.9411 118.077 100.054C118.244 100.167 118.46 100.223 118.726 100.223C119.001 100.223 119.222 100.167 119.388 100.054C119.556 99.9411 119.64 99.8015 119.64 99.6353C119.64 99.4947 119.586 99.3786 119.477 99.2869C119.371 99.1953 119.205 99.125 118.979 99.076L118.141 98.9002C117.67 98.8022 117.322 98.6371 117.096 98.4048C116.87 98.1705 116.759 97.8743 116.761 97.5163C116.759 97.2138 116.841 96.9517 117.007 96.7301C117.175 96.5064 117.408 96.3338 117.707 96.2124C118.007 96.0888 118.353 96.027 118.745 96.027C119.321 96.027 119.773 96.1495 120.104 96.3945C120.436 96.6396 120.642 96.9709 120.721 97.3885ZM124.231 96.0909V96.9858H121.409V96.0909H124.231ZM122.106 94.9148H123.263V99.5234C123.263 99.679 123.286 99.7983 123.333 99.8814C123.382 99.9624 123.446 100.018 123.525 100.048C123.604 100.077 123.691 100.092 123.787 100.092C123.86 100.092 123.926 100.087 123.985 100.076C124.047 100.066 124.094 100.056 124.126 100.048L124.321 100.952C124.259 100.973 124.171 100.997 124.056 101.022C123.943 101.048 123.804 101.063 123.64 101.067C123.35 101.076 123.089 101.032 122.857 100.936C122.625 100.838 122.441 100.687 122.304 100.482C122.17 100.278 122.104 100.022 122.106 99.7152V94.9148ZM129.573 101.096C129.093 101.096 128.678 100.99 128.326 100.779C127.975 100.569 127.702 100.273 127.508 99.8942C127.316 99.5149 127.22 99.0717 127.22 98.5646C127.22 98.0575 127.316 97.6133 127.508 97.2319C127.702 96.8505 127.975 96.5543 128.326 96.3434C128.678 96.1325 129.093 96.027 129.573 96.027C130.052 96.027 130.468 96.1325 130.819 96.3434C131.171 96.5543 131.442 96.8505 131.634 97.2319C131.828 97.6133 131.925 98.0575 131.925 98.5646C131.925 99.0717 131.828 99.5149 131.634 99.8942C131.442 100.273 131.171 100.569 130.819 100.779C130.468 100.99 130.052 101.096 129.573 101.096ZM129.579 100.169C129.839 100.169 130.056 100.098 130.231 99.9549C130.406 99.81 130.536 99.6161 130.621 99.3732C130.708 99.1303 130.752 98.8597 130.752 98.5614C130.752 98.261 130.708 97.9893 130.621 97.7464C130.536 97.5014 130.406 97.3065 130.231 97.1616C130.056 97.0167 129.839 96.9442 129.579 96.9442C129.313 96.9442 129.091 97.0167 128.914 97.1616C128.74 97.3065 128.609 97.5014 128.521 97.7464C128.436 97.9893 128.393 98.261 128.393 98.5614C128.393 98.8597 128.436 99.1303 128.521 99.3732C128.609 99.6161 128.74 99.81 128.914 99.9549C129.091 100.098 129.313 100.169 129.579 100.169ZM135.393 96.0909V96.9858H132.491V96.0909H135.393ZM133.217 101V95.6275C133.217 95.2972 133.285 95.0224 133.422 94.8029C133.56 94.5835 133.745 94.4194 133.978 94.3107C134.21 94.2021 134.468 94.1477 134.751 94.1477C134.951 94.1477 135.129 94.1637 135.285 94.1957C135.44 94.2276 135.555 94.2564 135.63 94.282L135.4 95.1768C135.351 95.1619 135.289 95.147 135.214 95.1321C135.14 95.1151 135.057 95.1065 134.965 95.1065C134.75 95.1065 134.598 95.1587 134.508 95.2631C134.421 95.3654 134.377 95.5124 134.377 95.7042V101H133.217ZM138.786 96.0909V96.9858H135.884V96.0909H138.786ZM136.61 101V95.6275C136.61 95.2972 136.678 95.0224 136.814 94.8029C136.953 94.5835 137.138 94.4194 137.37 94.3107C137.602 94.2021 137.86 94.1477 138.144 94.1477C138.344 94.1477 138.522 94.1637 138.677 94.1957C138.833 94.2276 138.948 94.2564 139.023 94.282L138.792 95.1768C138.743 95.1619 138.682 95.147 138.607 95.1321C138.532 95.1151 138.449 95.1065 138.358 95.1065C138.143 95.1065 137.99 95.1587 137.901 95.2631C137.813 95.3654 137.77 95.5124 137.77 95.7042V101H136.61ZM139.692 101V96.0909H140.849V101H139.692ZM140.274 95.3942C140.091 95.3942 139.933 95.3335 139.801 95.212C139.669 95.0884 139.603 94.9403 139.603 94.7678C139.603 94.593 139.669 94.445 139.801 94.3235C139.933 94.1999 140.091 94.1381 140.274 94.1381C140.459 94.1381 140.617 94.1999 140.747 94.3235C140.879 94.445 140.945 94.593 140.945 94.7678C140.945 94.9403 140.879 95.0884 140.747 95.212C140.617 95.3335 140.459 95.3942 140.274 95.3942ZM144.18 101.096C143.69 101.096 143.269 100.988 142.918 100.773C142.568 100.558 142.299 100.261 142.109 99.8814C141.922 99.5 141.828 99.0611 141.828 98.5646C141.828 98.0661 141.924 97.6261 142.116 97.2447C142.307 96.8612 142.578 96.5629 142.927 96.3498C143.279 96.1346 143.694 96.027 144.174 96.027C144.572 96.027 144.925 96.1005 145.232 96.2475C145.541 96.3924 145.787 96.598 145.97 96.8643C146.153 97.1286 146.258 97.4375 146.283 97.7912H145.177C145.133 97.5547 145.026 97.3576 144.858 97.1999C144.691 97.0401 144.469 96.9602 144.19 96.9602C143.953 96.9602 143.745 97.0241 143.566 97.152C143.388 97.2777 143.248 97.4588 143.148 97.6953C143.05 97.9318 143.001 98.2152 143.001 98.5455C143.001 98.88 143.05 99.1676 143.148 99.4084C143.246 99.647 143.383 99.8313 143.56 99.9613C143.739 100.089 143.949 100.153 144.19 100.153C144.36 100.153 144.513 100.121 144.647 100.057C144.783 99.9911 144.897 99.8963 144.989 99.7727C145.08 99.6491 145.143 99.4989 145.177 99.3221H146.283C146.255 99.6694 146.153 99.9773 145.976 100.246C145.799 100.512 145.559 100.721 145.254 100.872C144.949 101.021 144.591 101.096 144.18 101.096ZM149.406 101.096C148.914 101.096 148.489 100.994 148.131 100.789C147.775 100.582 147.502 100.29 147.31 99.9134C147.118 99.5341 147.022 99.0877 147.022 98.5742C147.022 98.0692 147.118 97.6261 147.31 97.2447C147.504 96.8612 147.774 96.5629 148.122 96.3498C148.469 96.1346 148.877 96.027 149.346 96.027C149.648 96.027 149.934 96.076 150.202 96.174C150.473 96.2699 150.711 96.419 150.918 96.6214C151.127 96.8239 151.291 97.0817 151.41 97.3949C151.53 97.706 151.589 98.0767 151.589 98.5071V98.8619H147.566V98.082H150.48C150.478 97.8604 150.43 97.6634 150.336 97.4908C150.243 97.3161 150.112 97.1786 149.943 97.0785C149.777 96.9783 149.583 96.9283 149.362 96.9283C149.125 96.9283 148.917 96.9858 148.738 97.1009C148.559 97.2138 148.42 97.3629 148.32 97.5483C148.222 97.7315 148.172 97.9329 148.17 98.1523V98.8331C148.17 99.1186 148.222 99.3636 148.326 99.5682C148.431 99.7706 148.577 99.9261 148.764 100.035C148.952 100.141 149.171 100.195 149.422 100.195C149.591 100.195 149.743 100.171 149.879 100.124C150.016 100.075 150.134 100.004 150.234 99.9102C150.334 99.8164 150.41 99.7003 150.461 99.5618L151.541 99.6832C151.473 99.9687 151.343 100.218 151.151 100.431C150.962 100.642 150.719 100.806 150.423 100.923C150.127 101.038 149.788 101.096 149.406 101.096ZM56.228 105.455H57.4041V110.057C57.402 110.479 57.3125 110.842 57.1357 111.147C56.9588 111.449 56.7116 111.683 56.3942 111.847C56.0788 112.009 55.7113 112.089 55.2915 112.089C54.908 112.089 54.5629 112.021 54.256 111.885C53.9513 111.746 53.7095 111.542 53.5305 111.271C53.3516 111.001 53.2621 110.664 53.2621 110.261H54.4414C54.4435 110.438 54.4819 110.591 54.5565 110.718C54.6332 110.846 54.7386 110.944 54.8729 111.012C55.0071 111.081 55.1616 111.115 55.3363 111.115C55.5259 111.115 55.6868 111.075 55.8189 110.996C55.951 110.915 56.0511 110.796 56.1193 110.638C56.1896 110.481 56.2259 110.287 56.228 110.057V105.455ZM60.7807 112.096C60.3013 112.096 59.8858 111.99 59.5343 111.779C59.1827 111.569 58.91 111.273 58.7161 110.894C58.5243 110.515 58.4284 110.072 58.4284 109.565C58.4284 109.058 58.5243 108.613 58.7161 108.232C58.91 107.85 59.1827 107.554 59.5343 107.343C59.8858 107.132 60.3013 107.027 60.7807 107.027C61.2601 107.027 61.6756 107.132 62.0272 107.343C62.3787 107.554 62.6504 107.85 62.8422 108.232C63.036 108.613 63.133 109.058 63.133 109.565C63.133 110.072 63.036 110.515 62.8422 110.894C62.6504 111.273 62.3787 111.569 62.0272 111.779C61.6756 111.99 61.2601 112.096 60.7807 112.096ZM60.7871 111.169C61.0471 111.169 61.2644 111.098 61.4391 110.955C61.6138 110.81 61.7438 110.616 61.829 110.373C61.9164 110.13 61.96 109.86 61.96 109.561C61.96 109.261 61.9164 108.989 61.829 108.746C61.7438 108.501 61.6138 108.306 61.4391 108.162C61.2644 108.017 61.0471 107.944 60.7871 107.944C60.5208 107.944 60.2992 108.017 60.1223 108.162C59.9476 108.306 59.8166 108.501 59.7292 108.746C59.644 108.989 59.6014 109.261 59.6014 109.561C59.6014 109.86 59.644 110.13 59.7292 110.373C59.8166 110.616 59.9476 110.81 60.1223 110.955C60.2992 111.098 60.5208 111.169 60.7871 111.169ZM65.9367 112.086C65.551 112.086 65.2059 111.987 64.9012 111.789C64.5965 111.591 64.3557 111.303 64.1789 110.926C64.002 110.549 63.9136 110.091 63.9136 109.552C63.9136 109.006 64.0031 108.546 64.1821 108.171C64.3632 107.794 64.6072 107.51 64.914 107.318C65.2208 107.124 65.5628 107.027 65.9399 107.027C66.2275 107.027 66.464 107.076 66.6494 107.174C66.8348 107.27 66.9818 107.386 67.0905 107.522C67.1991 107.657 67.2833 107.783 67.343 107.903H67.3909V105.455H68.551V112H67.4133V111.227H67.343C67.2833 111.346 67.197 111.473 67.0841 111.607C66.9711 111.739 66.822 111.852 66.6366 111.946C66.4513 112.039 66.218 112.086 65.9367 112.086ZM66.2595 111.137C66.5045 111.137 66.7133 111.071 66.8859 110.939C67.0585 110.805 67.1895 110.618 67.279 110.38C67.3685 110.141 67.4133 109.863 67.4133 109.545C67.4133 109.228 67.3685 108.952 67.279 108.718C67.1917 108.483 67.0617 108.301 66.8891 108.171C66.7187 108.041 66.5088 107.976 66.2595 107.976C66.0017 107.976 65.7865 108.043 65.6139 108.178C65.4413 108.312 65.3113 108.497 65.224 108.734C65.1366 108.97 65.093 109.241 65.093 109.545C65.093 109.852 65.1366 110.126 65.224 110.367C65.3135 110.605 65.4445 110.794 65.6171 110.933C65.7918 111.069 66.0059 111.137 66.2595 111.137ZM70.9409 109.124V112H69.7839V105.455H70.9153V107.925H70.9728C71.0879 107.648 71.2658 107.43 71.5066 107.27C71.7495 107.108 72.0584 107.027 72.4334 107.027C72.7743 107.027 73.0716 107.098 73.3251 107.241C73.5787 107.384 73.7747 107.593 73.9132 107.868C74.0538 108.142 74.1241 108.478 74.1241 108.874V112H72.9672V109.053C72.9672 108.723 72.8819 108.466 72.7115 108.283C72.5431 108.098 72.3066 108.005 72.002 108.005C71.7974 108.005 71.6142 108.05 71.4522 108.139C71.2924 108.227 71.1667 108.353 71.0751 108.52C70.9856 108.686 70.9409 108.887 70.9409 109.124ZM75.3034 113.841V107.091H76.4412V107.903H76.5083C76.568 107.783 76.6522 107.657 76.7608 107.522C76.8695 107.386 77.0165 107.27 77.2019 107.174C77.3873 107.076 77.6238 107.027 77.9114 107.027C78.2907 107.027 78.6326 107.124 78.9373 107.318C79.2441 107.51 79.487 107.794 79.666 108.171C79.8471 108.546 79.9377 109.006 79.9377 109.552C79.9377 110.091 79.8493 110.549 79.6724 110.926C79.4956 111.303 79.2548 111.591 78.9501 111.789C78.6454 111.987 78.3002 112.086 77.9146 112.086C77.6333 112.086 77.4 112.039 77.2147 111.946C77.0293 111.852 76.8801 111.739 76.7672 111.607C76.6564 111.473 76.5701 111.346 76.5083 111.227H76.4604V113.841H75.3034ZM76.438 109.545C76.438 109.863 76.4828 110.141 76.5723 110.38C76.6639 110.618 76.7949 110.805 76.9654 110.939C77.138 111.071 77.3468 111.137 77.5918 111.137C77.8475 111.137 78.0616 111.069 78.2342 110.933C78.4068 110.794 78.5368 110.605 78.6241 110.367C78.7136 110.126 78.7583 109.852 78.7583 109.545C78.7583 109.241 78.7147 108.97 78.6273 108.734C78.54 108.497 78.41 108.312 78.2374 108.178C78.0648 108.043 77.8496 107.976 77.5918 107.976C77.3446 107.976 77.1348 108.041 76.9622 108.171C76.7896 108.301 76.6586 108.483 76.5691 108.718C76.4817 108.952 76.438 109.228 76.438 109.545ZM84.0574 109.935V107.091H85.2143V112H84.0925V111.127H84.0414C83.9306 111.402 83.7484 111.627 83.4949 111.802C83.2434 111.977 82.9334 112.064 82.5648 112.064C82.2431 112.064 81.9586 111.993 81.7115 111.85C81.4664 111.705 81.2747 111.495 81.1362 111.22C80.9977 110.943 80.9284 110.609 80.9284 110.217V107.091H82.0854V110.038C82.0854 110.349 82.1706 110.596 82.3411 110.779C82.5115 110.962 82.7353 111.054 83.0123 111.054C83.1827 111.054 83.3478 111.012 83.5076 110.929C83.6674 110.846 83.7985 110.723 83.9007 110.559C84.0051 110.392 84.0574 110.185 84.0574 109.935ZM86.404 112V107.091H87.5258V107.909H87.577C87.6665 107.626 87.8199 107.407 88.0372 107.254C88.2567 107.098 88.507 107.021 88.7883 107.021C88.8522 107.021 88.9236 107.024 89.0024 107.03C89.0834 107.034 89.1505 107.042 89.2037 107.053V108.117C89.1547 108.1 89.077 108.085 88.9704 108.072C88.866 108.057 88.7648 108.05 88.6668 108.05C88.4559 108.05 88.2662 108.096 88.0979 108.187C87.9317 108.277 87.8007 108.401 87.7048 108.561C87.6089 108.721 87.561 108.905 87.561 109.114V112H86.404ZM92.2559 112V105.455H94.7105C95.2133 105.455 95.6352 105.542 95.9761 105.717C96.3192 105.891 96.578 106.136 96.7528 106.452C96.9296 106.765 97.018 107.13 97.018 107.548C97.018 107.968 96.9285 108.332 96.7496 108.641C96.5727 108.948 96.3117 109.185 95.9665 109.354C95.6214 109.52 95.1974 109.603 94.6945 109.603H92.9463V108.619H94.5347C94.8287 108.619 95.0695 108.578 95.257 108.497C95.4445 108.414 95.583 108.294 95.6725 108.136C95.7641 107.976 95.8099 107.78 95.8099 107.548C95.8099 107.316 95.7641 107.118 95.6725 106.953C95.5809 106.787 95.4413 106.662 95.2538 106.576C95.0663 106.489 94.8245 106.445 94.5283 106.445H93.4417V112H92.2559ZM95.6373 109.034L97.2577 112H95.9346L94.343 109.034H95.6373ZM99.471 112.099C99.1599 112.099 98.8797 112.044 98.6304 111.933C98.3833 111.82 98.1872 111.654 98.0423 111.434C97.8996 111.215 97.8282 110.944 97.8282 110.623C97.8282 110.346 97.8794 110.116 97.9816 109.935C98.0839 109.754 98.2235 109.609 98.4003 109.501C98.5771 109.392 98.7764 109.31 98.998 109.255C99.2217 109.197 99.4529 109.156 99.6915 109.13C99.9791 109.1 100.212 109.074 100.391 109.05C100.57 109.025 100.7 108.986 100.781 108.935C100.864 108.882 100.906 108.8 100.906 108.689V108.67C100.906 108.429 100.835 108.243 100.692 108.11C100.549 107.978 100.343 107.912 100.075 107.912C99.7916 107.912 99.5669 107.974 99.4007 108.098C99.2366 108.221 99.1258 108.367 99.0683 108.536L97.988 108.382C98.0732 108.084 98.2139 107.835 98.4099 107.634C98.6059 107.432 98.8456 107.281 99.129 107.18C99.4124 107.078 99.7256 107.027 100.069 107.027C100.305 107.027 100.541 107.055 100.775 107.11C101.009 107.165 101.223 107.257 101.417 107.385C101.611 107.511 101.767 107.682 101.884 107.9C102.003 108.117 102.063 108.388 102.063 108.714V112H100.951V111.326H100.912C100.842 111.462 100.743 111.59 100.615 111.709C100.489 111.826 100.331 111.921 100.139 111.994C99.9493 112.064 99.7267 112.099 99.471 112.099ZM99.7714 111.249C100.004 111.249 100.205 111.203 100.375 111.112C100.546 111.018 100.677 110.894 100.769 110.741C100.862 110.587 100.909 110.42 100.909 110.239V109.661C100.873 109.69 100.811 109.718 100.724 109.744C100.639 109.769 100.543 109.792 100.436 109.811C100.33 109.83 100.224 109.847 100.12 109.862C100.015 109.877 99.9248 109.89 99.8481 109.9C99.6755 109.924 99.521 109.962 99.3847 110.015C99.2483 110.069 99.1407 110.143 99.0619 110.239C98.983 110.333 98.9436 110.454 98.9436 110.603C98.9436 110.816 99.0214 110.977 99.1769 111.086C99.3325 111.195 99.5306 111.249 99.7714 111.249ZM103.226 107.091H104.383V112.281C104.383 112.635 104.316 112.927 104.182 113.157C104.048 113.387 103.854 113.559 103.6 113.672C103.347 113.784 103.039 113.841 102.677 113.841C102.634 113.841 102.595 113.84 102.558 113.838C102.522 113.838 102.483 113.837 102.44 113.835V112.892C102.472 112.894 102.501 112.895 102.526 112.895C102.552 112.897 102.579 112.898 102.606 112.898C102.828 112.898 102.987 112.844 103.082 112.735C103.178 112.629 103.226 112.472 103.226 112.265V107.091ZM103.802 106.394C103.616 106.394 103.457 106.333 103.325 106.212C103.195 106.088 103.13 105.94 103.13 105.768C103.13 105.593 103.195 105.445 103.325 105.324C103.457 105.2 103.616 105.138 103.802 105.138C103.985 105.138 104.141 105.2 104.271 105.324C104.403 105.445 104.47 105.593 104.47 105.768C104.47 105.94 104.403 106.088 104.271 106.212C104.141 106.333 103.985 106.394 103.802 106.394ZM106.986 112.099C106.675 112.099 106.394 112.044 106.145 111.933C105.898 111.82 105.702 111.654 105.557 111.434C105.414 111.215 105.343 110.944 105.343 110.623C105.343 110.346 105.394 110.116 105.496 109.935C105.599 109.754 105.738 109.609 105.915 109.501C106.092 109.392 106.291 109.31 106.513 109.255C106.736 109.197 106.968 109.156 107.206 109.13C107.494 109.1 107.727 109.074 107.906 109.05C108.085 109.025 108.215 108.986 108.296 108.935C108.379 108.882 108.421 108.8 108.421 108.689V108.67C108.421 108.429 108.349 108.243 108.206 108.11C108.064 107.978 107.858 107.912 107.59 107.912C107.306 107.912 107.081 107.974 106.915 108.098C106.751 108.221 106.64 108.367 106.583 108.536L105.503 108.382C105.588 108.084 105.729 107.835 105.925 107.634C106.121 107.432 106.36 107.281 106.644 107.18C106.927 107.078 107.24 107.027 107.583 107.027C107.82 107.027 108.055 107.055 108.29 107.11C108.524 107.165 108.738 107.257 108.932 107.385C109.126 107.511 109.281 107.682 109.399 107.9C109.518 108.117 109.578 108.388 109.578 108.714V112H108.465V111.326H108.427C108.357 111.462 108.258 111.59 108.13 111.709C108.004 111.826 107.845 111.921 107.654 111.994C107.464 112.064 107.241 112.099 106.986 112.099ZM107.286 111.249C107.518 111.249 107.72 111.203 107.89 111.112C108.061 111.018 108.192 110.894 108.283 110.741C108.377 110.587 108.424 110.42 108.424 110.239V109.661C108.388 109.69 108.326 109.718 108.238 109.744C108.153 109.769 108.057 109.792 107.951 109.811C107.844 109.83 107.739 109.847 107.634 109.862C107.53 109.877 107.439 109.89 107.363 109.9C107.19 109.924 107.036 109.962 106.899 110.015C106.763 110.069 106.655 110.143 106.577 110.239C106.498 110.333 106.458 110.454 106.458 110.603C106.458 110.816 106.536 110.977 106.692 111.086C106.847 111.195 107.045 111.249 107.286 111.249ZM114.621 108.388L113.566 108.504C113.536 108.397 113.484 108.297 113.41 108.203C113.337 108.109 113.239 108.034 113.116 107.976C112.992 107.919 112.841 107.89 112.662 107.89C112.421 107.89 112.219 107.942 112.055 108.047C111.893 108.151 111.813 108.286 111.815 108.452C111.813 108.595 111.865 108.711 111.971 108.801C112.08 108.89 112.259 108.964 112.508 109.021L113.346 109.2C113.81 109.3 114.155 109.459 114.381 109.676C114.609 109.894 114.724 110.178 114.726 110.53C114.724 110.839 114.634 111.112 114.455 111.348C114.278 111.582 114.032 111.766 113.716 111.898C113.401 112.03 113.039 112.096 112.63 112.096C112.029 112.096 111.545 111.97 111.179 111.719C110.812 111.465 110.594 111.113 110.524 110.661L111.652 110.552C111.703 110.774 111.812 110.941 111.978 111.054C112.144 111.167 112.36 111.223 112.627 111.223C112.901 111.223 113.122 111.167 113.288 111.054C113.456 110.941 113.541 110.801 113.541 110.635C113.541 110.495 113.486 110.379 113.378 110.287C113.271 110.195 113.105 110.125 112.879 110.076L112.042 109.9C111.571 109.802 111.222 109.637 110.997 109.405C110.771 109.17 110.659 108.874 110.661 108.516C110.659 108.214 110.741 107.952 110.907 107.73C111.075 107.506 111.309 107.334 111.607 107.212C111.907 107.089 112.254 107.027 112.646 107.027C113.221 107.027 113.674 107.15 114.004 107.395C114.336 107.64 114.542 107.971 114.621 108.388ZM118.132 107.091V107.986H115.31V107.091H118.132ZM116.006 105.915H117.163V110.523C117.163 110.679 117.187 110.798 117.234 110.881C117.283 110.962 117.347 111.018 117.425 111.048C117.504 111.077 117.592 111.092 117.688 111.092C117.76 111.092 117.826 111.087 117.886 111.076C117.947 111.066 117.994 111.056 118.026 111.048L118.221 111.952C118.159 111.973 118.071 111.997 117.956 112.022C117.843 112.048 117.705 112.063 117.54 112.067C117.251 112.076 116.99 112.032 116.757 111.936C116.525 111.838 116.341 111.687 116.205 111.482C116.07 111.278 116.004 111.022 116.006 110.715V105.915ZM120.362 109.124V112H119.205V105.455H120.336V107.925H120.394C120.509 107.648 120.687 107.43 120.927 107.27C121.17 107.108 121.479 107.027 121.854 107.027C122.195 107.027 122.492 107.098 122.746 107.241C123 107.384 123.196 107.593 123.334 107.868C123.475 108.142 123.545 108.478 123.545 108.874V112H122.388V109.053C122.388 108.723 122.303 108.466 122.132 108.283C121.964 108.098 121.728 108.005 121.423 108.005C121.218 108.005 121.035 108.05 120.873 108.139C120.713 108.227 120.588 108.353 120.496 108.52C120.407 108.686 120.362 108.887 120.362 109.124ZM126.137 112.099C125.826 112.099 125.546 112.044 125.296 111.933C125.049 111.82 124.853 111.654 124.708 111.434C124.566 111.215 124.494 110.944 124.494 110.623C124.494 110.346 124.545 110.116 124.648 109.935C124.75 109.754 124.889 109.609 125.066 109.501C125.243 109.392 125.442 109.31 125.664 109.255C125.888 109.197 126.119 109.156 126.358 109.13C126.645 109.1 126.878 109.074 127.057 109.05C127.236 109.025 127.366 108.986 127.447 108.935C127.53 108.882 127.572 108.8 127.572 108.689V108.67C127.572 108.429 127.501 108.243 127.358 108.11C127.215 107.978 127.009 107.912 126.741 107.912C126.458 107.912 126.233 107.974 126.067 108.098C125.903 108.221 125.792 108.367 125.734 108.536L124.654 108.382C124.739 108.084 124.88 107.835 125.076 107.634C125.272 107.432 125.512 107.281 125.795 107.18C126.078 107.078 126.392 107.027 126.735 107.027C126.971 107.027 127.207 107.055 127.441 107.11C127.675 107.165 127.889 107.257 128.083 107.385C128.277 107.511 128.433 107.682 128.55 107.9C128.669 108.117 128.729 108.388 128.729 108.714V112H127.617V111.326H127.578C127.508 111.462 127.409 111.59 127.281 111.709C127.155 111.826 126.997 111.921 126.805 111.994C126.615 112.064 126.393 112.099 126.137 112.099ZM126.437 111.249C126.67 111.249 126.871 111.203 127.041 111.112C127.212 111.018 127.343 110.894 127.435 110.741C127.528 110.587 127.575 110.42 127.575 110.239V109.661C127.539 109.69 127.477 109.718 127.39 109.744C127.305 109.769 127.209 109.792 127.102 109.811C126.996 109.83 126.89 109.847 126.786 109.862C126.681 109.877 126.591 109.89 126.514 109.9C126.342 109.924 126.187 109.962 126.051 110.015C125.914 110.069 125.807 110.143 125.728 110.239C125.649 110.333 125.61 110.454 125.61 110.603C125.61 110.816 125.687 110.977 125.843 111.086C125.998 111.195 126.197 111.249 126.437 111.249ZM131.049 109.124V112H129.892V107.091H130.998V107.925H131.056C131.169 107.65 131.349 107.432 131.596 107.27C131.845 107.108 132.153 107.027 132.519 107.027C132.858 107.027 133.153 107.099 133.405 107.244C133.658 107.389 133.854 107.599 133.993 107.874C134.133 108.149 134.203 108.482 134.201 108.874V112H133.044V109.053C133.044 108.725 132.958 108.468 132.788 108.283C132.62 108.098 132.386 108.005 132.088 108.005C131.886 108.005 131.706 108.05 131.548 108.139C131.392 108.227 131.27 108.353 131.18 108.52C131.093 108.686 131.049 108.887 131.049 109.124ZM136.089 112.07C135.896 112.07 135.729 112.002 135.591 111.866C135.452 111.729 135.384 111.563 135.386 111.367C135.384 111.175 135.452 111.011 135.591 110.875C135.729 110.739 135.896 110.67 136.089 110.67C136.277 110.67 136.44 110.739 136.578 110.875C136.719 111.011 136.79 111.175 136.793 111.367C136.79 111.497 136.756 111.615 136.69 111.722C136.626 111.828 136.541 111.914 136.435 111.978C136.33 112.039 136.215 112.07 136.089 112.07ZM136.089 108.567C135.896 108.567 135.729 108.499 135.591 108.363C135.452 108.224 135.384 108.058 135.386 107.864C135.384 107.673 135.452 107.509 135.591 107.372C135.729 107.234 135.896 107.164 136.089 107.164C136.277 107.164 136.44 107.234 136.578 107.372C136.719 107.509 136.79 107.673 136.793 107.864C136.79 107.992 136.756 108.109 136.69 108.216C136.626 108.322 136.541 108.408 136.435 108.472C136.33 108.536 136.215 108.567 136.089 108.567ZM140.963 108.798V109.75H138.016V108.798H140.963ZM55.9308 123.089C55.4705 123.089 55.0614 123.011 54.7035 122.853C54.3477 122.695 54.0664 122.476 53.8597 122.195C53.6531 121.913 53.5433 121.588 53.5305 121.22H54.7322C54.7429 121.397 54.8015 121.551 54.908 121.683C55.0146 121.813 55.1563 121.914 55.3331 121.987C55.5099 122.059 55.7081 122.096 55.9276 122.096C56.1619 122.096 56.3697 122.055 56.5508 121.974C56.7319 121.891 56.8736 121.776 56.9759 121.629C57.0781 121.482 57.1282 121.312 57.1261 121.121C57.1282 120.923 57.0771 120.748 56.9727 120.597C56.8683 120.445 56.717 120.327 56.5188 120.242C56.3228 120.157 56.0863 120.114 55.8093 120.114H55.2308V119.2H55.8093C56.0373 119.2 56.2365 119.161 56.407 119.082C56.5795 119.003 56.7148 118.892 56.8129 118.749C56.9109 118.604 56.9588 118.437 56.9567 118.248C56.9588 118.062 56.9173 117.901 56.832 117.765C56.7489 117.626 56.6307 117.519 56.4773 117.442C56.326 117.365 56.1481 117.327 55.9435 117.327C55.7433 117.327 55.5579 117.363 55.3874 117.436C55.217 117.508 55.0795 117.612 54.9751 117.746C54.8707 117.878 54.8153 118.036 54.8089 118.219H53.668C53.6765 117.852 53.782 117.531 53.9844 117.254C54.1889 116.974 54.4616 116.757 54.8026 116.602C55.1435 116.444 55.5259 116.365 55.9499 116.365C56.3867 116.365 56.766 116.447 57.0877 116.611C57.4116 116.773 57.6619 116.991 57.8388 117.266C58.0156 117.541 58.104 117.845 58.104 118.177C58.1062 118.546 57.9975 118.855 57.7781 119.104C57.5607 119.353 57.2752 119.516 56.9215 119.593V119.644C57.3817 119.708 57.7344 119.879 57.9794 120.156C58.2266 120.43 58.3491 120.772 58.3469 121.181C58.3469 121.548 58.2425 121.876 58.0337 122.166C57.8271 122.453 57.5415 122.679 57.1772 122.843C56.815 123.007 56.3995 123.089 55.9308 123.089ZM59.3257 121.786V120.843L62.1031 116.455H62.8893V117.797H62.4099L60.5402 120.76V120.811H64.417V121.786H59.3257ZM62.4482 123V121.498L62.461 121.076V116.455H63.5796V123H62.4482ZM65.4381 123V122.143L67.7105 119.916C67.9278 119.696 68.1089 119.501 68.2538 119.331C68.3987 119.161 68.5074 118.995 68.5798 118.836C68.6523 118.676 68.6885 118.505 68.6885 118.324C68.6885 118.118 68.6416 117.941 68.5479 117.794C68.4541 117.645 68.3252 117.529 68.1611 117.449C67.9971 117.368 67.8106 117.327 67.6018 117.327C67.3866 117.327 67.1981 117.372 67.0361 117.461C66.8742 117.549 66.7485 117.673 66.659 117.835C66.5716 117.997 66.528 118.19 66.528 118.414H65.3998C65.3998 117.998 65.4946 117.637 65.6842 117.33C65.8738 117.023 66.1349 116.786 66.4672 116.618C66.8018 116.449 67.1853 116.365 67.6178 116.365C68.0567 116.365 68.4424 116.447 68.7748 116.611C69.1072 116.775 69.365 117 69.5482 117.286C69.7336 117.571 69.8263 117.897 69.8263 118.263C69.8263 118.509 69.7794 118.749 69.6856 118.986C69.5919 119.222 69.4268 119.484 69.1903 119.772C68.9559 120.06 68.6267 120.408 68.2027 120.817L67.0745 121.964V122.009H69.9253V123H65.4381ZM73.4474 123.125C72.9211 123.125 72.4694 122.991 72.0922 122.725C71.7172 122.457 71.4285 122.07 71.2261 121.565C71.0258 121.058 70.9257 120.447 70.9257 119.734C70.9278 119.02 71.029 118.413 71.2293 117.912C71.4317 117.409 71.7204 117.026 72.0954 116.761C72.4726 116.497 72.9232 116.365 73.4474 116.365C73.9715 116.365 74.4221 116.497 74.7993 116.761C75.1764 117.026 75.4651 117.409 75.6654 117.912C75.8678 118.415 75.969 119.022 75.969 119.734C75.969 120.45 75.8678 121.061 75.6654 121.568C75.4651 122.073 75.1764 122.459 74.7993 122.725C74.4243 122.991 73.9736 123.125 73.4474 123.125ZM73.4474 122.124C73.8564 122.124 74.1792 121.923 74.4157 121.52C74.6544 121.115 74.7737 120.52 74.7737 119.734C74.7737 119.214 74.7194 118.777 74.6107 118.423C74.502 118.07 74.3486 117.803 74.1505 117.624C73.9523 117.443 73.718 117.353 73.4474 117.353C73.0404 117.353 72.7187 117.555 72.4822 117.96C72.2456 118.363 72.1263 118.954 72.1242 119.734C72.1221 120.256 72.1743 120.695 72.2808 121.05C72.3895 121.406 72.5429 121.675 72.741 121.856C72.9392 122.035 73.1746 122.124 73.4474 122.124ZM79.4503 123.125C78.924 123.125 78.4723 122.991 78.0952 122.725C77.7202 122.457 77.4315 122.07 77.229 121.565C77.0288 121.058 76.9286 120.447 76.9286 119.734C76.9308 119.02 77.032 118.413 77.2322 117.912C77.4347 117.409 77.7234 117.026 78.0984 116.761C78.4755 116.497 78.9261 116.365 79.4503 116.365C79.9744 116.365 80.4251 116.497 80.8022 116.761C81.1793 117.026 81.468 117.409 81.6683 117.912C81.8707 118.415 81.9719 119.022 81.9719 119.734C81.9719 120.45 81.8707 121.061 81.6683 121.568C81.468 122.073 81.1793 122.459 80.8022 122.725C80.4272 122.991 79.9766 123.125 79.4503 123.125ZM79.4503 122.124C79.8594 122.124 80.1822 121.923 80.4187 121.52C80.6573 121.115 80.7766 120.52 80.7766 119.734C80.7766 119.214 80.7223 118.777 80.6136 118.423C80.505 118.07 80.3516 117.803 80.1534 117.624C79.9553 117.443 79.7209 117.353 79.4503 117.353C79.0433 117.353 78.7216 117.555 78.4851 117.96C78.2486 118.363 78.1293 118.954 78.1271 119.734C78.125 120.256 78.1772 120.695 78.2837 121.05C78.3924 121.406 78.5458 121.675 78.744 121.856C78.9421 122.035 79.1776 122.124 79.4503 122.124ZM85.6961 116.455V123H84.5104V117.608H84.472L82.9411 118.586V117.5L84.5679 116.455H85.6961Z" fill="#7A3D89"/>
</svg>
